<svg width="32" height="33" viewBox="0 0 32 33" fill="none" xmlns="http://www.w3.org/2000/svg">
<mask id="mask0" mask-type="alpha" maskUnits="userSpaceOnUse" x="0" y="0" width="32" height="33">
<circle cx="16" cy="16.1692" r="16" fill="#95C8D4"/>
</mask>
<g mask="url(#mask0)">
<circle cx="16" cy="16.1692" r="16" fill="#95C8D4"/>
<path d="M33.4886 3.25317V31.0747C33.4886 31.793 33.0456 32.3732 32.497 32.3732H-3.91973C-4.4683 32.3732 -4.91138 31.793 -4.91138 31.0747V3.25317H33.4886Z" fill="#95C8D4"/>
<path d="M25.072 24.5383H6.60093C6.42336 24.5383 6.25306 24.4679 6.1275 24.3426C6.00194 24.2173 5.9314 24.0473 5.9314 23.87L5.9314 9.8157C5.9314 9.63846 6.00194 9.46847 6.1275 9.34314C6.25306 9.21781 6.42336 9.1474 6.60093 9.1474C6.7785 9.1474 6.9488 9.21781 7.07436 9.34314C7.19992 9.46847 7.27046 9.63846 7.27046 9.8157L7.27046 23.2017H25.0745C25.252 23.2017 25.4223 23.2721 25.5479 23.3975C25.6735 23.5228 25.744 23.6928 25.744 23.87C25.744 24.0473 25.6735 24.2173 25.5479 24.3426C25.4223 24.4679 25.252 24.5383 25.0745 24.5383H25.072Z" fill="#E6E6E6"/>
<path d="M17.9671 18.4079L14.9579 17.5944C14.9579 17.6094 14.9579 17.622 14.9579 17.6345C14.9578 17.9619 14.8657 18.2827 14.6921 18.5606L17.7163 19.3791C17.7163 19.359 17.7163 19.3415 17.7163 19.3215C17.7143 18.9998 17.801 18.6837 17.9671 18.4079V18.4079Z" fill="#E6E6E6"/>
<path d="M11.5806 18.3524L8.39375 21.0732C8.31179 21.1639 8.26589 21.2814 8.26467 21.4035C8.26346 21.5256 8.30702 21.644 8.38716 21.7363C8.4673 21.8286 8.57848 21.8885 8.69976 21.9047C8.82105 21.9208 8.94407 21.8922 9.04565 21.8241L12.2325 19.1133C11.9461 18.9278 11.7197 18.6636 11.5806 18.3524V18.3524Z" fill="#E6E6E6"/>
<path d="M22.6016 13.8224L20.0188 17.657C20.344 17.761 20.6323 17.9565 20.8488 18.2202L23.4317 14.3931C23.105 14.2879 22.8165 14.0895 22.6016 13.8224V13.8224Z" fill="#E6E6E6"/>
<path d="M12.2334 19.1139C12.4301 19.2425 12.6508 19.3304 12.8822 19.3722C13.1136 19.414 13.351 19.409 13.5804 19.3574C13.8099 19.3058 14.0265 19.2087 14.2176 19.0718C14.4087 18.935 14.5703 18.7612 14.6928 18.5608L13.3164 18.1878L12.2334 19.1139Z" fill="#FFD066"/>
<path d="M13.3235 17.1563L14.9585 17.5943C14.9467 17.3389 14.8791 17.0892 14.7604 16.8626C14.6416 16.6361 14.4747 16.4382 14.2712 16.2829C14.0677 16.1277 13.8326 16.0187 13.5825 15.9637C13.3323 15.9087 13.0732 15.9091 12.8232 15.9647C12.5732 16.0203 12.3384 16.1299 12.1353 16.2857C11.9322 16.4415 11.7658 16.6398 11.6476 16.8666C11.5295 17.0934 11.4625 17.3434 11.4514 17.5988C11.4402 17.8542 11.4853 18.109 11.5833 18.3452L12.8697 17.2464C12.9325 17.1961 13.0066 17.1616 13.0856 17.1459C13.1646 17.1302 13.2462 17.1338 13.3235 17.1563V17.1563Z" fill="#FFD066"/>
<path d="M19.3465 19.8217L17.7166 19.3787C17.7303 19.654 17.8089 19.9223 17.9461 20.1616C18.0832 20.4009 18.275 20.6045 18.5059 20.7559C18.7367 20.9073 19.0001 21.0021 19.2746 21.0328C19.5491 21.0634 19.827 21.029 20.0856 20.9322C20.3443 20.8355 20.5764 20.6792 20.7631 20.4761C20.9498 20.2729 21.0859 20.0286 21.1603 19.7631C21.2346 19.4976 21.2451 19.2183 21.191 18.948C21.1368 18.6776 21.0195 18.4238 20.8486 18.2073L19.8957 19.619C19.8369 19.7059 19.7523 19.7723 19.6538 19.8086C19.5553 19.845 19.4478 19.8496 19.3465 19.8217V19.8217Z" fill="#FFD066"/>
<path d="M20.0178 17.6576C19.6413 17.5329 19.2336 17.5393 18.8611 17.6757C18.4887 17.812 18.1736 18.0704 17.967 18.4085L19.2607 18.7614L20.0178 17.6576Z" fill="#FFD066"/>
<path d="M23.9635 10.9392C23.627 10.9351 23.2964 11.0276 23.0111 11.2058C22.7258 11.384 22.4978 11.6402 22.3543 11.9441C22.2108 12.248 22.1579 12.5866 22.2018 12.9196C22.2457 13.2527 22.3845 13.5661 22.6019 13.8226L23.5472 12.4209C23.6217 12.3107 23.737 12.2346 23.8678 12.2092C23.9985 12.1839 24.134 12.2114 24.2444 12.2858C24.3548 12.3601 24.431 12.4752 24.4564 12.6057C24.4818 12.7362 24.4543 12.8714 24.3798 12.9816L23.4319 14.3808C23.6703 14.4453 23.9197 14.4589 24.1638 14.4206C24.4078 14.3824 24.6411 14.2931 24.8482 14.1587C25.0553 14.0243 25.2317 13.8478 25.3657 13.6406C25.4998 13.4335 25.5886 13.2005 25.6262 12.9568C25.6639 12.713 25.6495 12.4641 25.5842 12.2263C25.5188 11.9885 25.4039 11.7672 25.247 11.5767C25.0901 11.3863 24.8946 11.231 24.6734 11.1212C24.4523 11.0113 24.2103 10.9493 23.9635 10.9392V10.9392Z" fill="#FFD066"/>
<path d="M14.9576 17.5944L13.3226 17.1563C13.2439 17.1351 13.1612 17.1334 13.0817 17.1513C13.0022 17.1692 12.9282 17.2061 12.8662 17.259L11.5798 18.3578C11.7206 18.6652 11.9469 18.9259 12.2318 19.1087L13.3151 18.1826L14.6918 18.5555C14.8644 18.2791 14.9565 17.9601 14.9576 17.6344C14.9576 17.6344 14.9576 17.6094 14.9576 17.5944Z" fill="#FFD066"/>
<path d="M20.018 17.6557L19.2659 18.7745L17.9673 18.4066C17.8017 18.6816 17.715 18.9968 17.7166 19.3177C17.7166 19.3377 17.7166 19.3552 17.7166 19.3753L19.3461 19.8183C19.4474 19.8462 19.5549 19.8416 19.6534 19.8052C19.7519 19.7688 19.8365 19.7025 19.8952 19.6155L20.8479 18.2039C20.6294 17.9458 20.3414 17.7556 20.018 17.6557Z" fill="#FFD066"/>
<path d="M24.236 12.2854C24.1814 12.2485 24.12 12.2228 24.0554 12.2096C23.9907 12.1964 23.9242 12.1961 23.8594 12.2086C23.7947 12.2212 23.733 12.2464 23.678 12.2828C23.6231 12.3191 23.5758 12.366 23.539 12.4206L22.5938 13.8223C22.8103 14.0848 23.0986 14.2787 23.4237 14.3804L24.3714 12.9813C24.4084 12.9267 24.4342 12.8654 24.4474 12.8009C24.4606 12.7364 24.4609 12.6699 24.4483 12.6053C24.4357 12.5407 24.4105 12.4791 24.3741 12.4243C24.3376 12.3694 24.2907 12.3222 24.236 12.2854Z" fill="#FFD066"/>
<path d="M33.4889 6.45331V1.86622C33.4889 0.772056 33.0458 -0.111694 32.4972 -0.111694H-3.91948C-4.46806 -0.111694 -4.91113 0.772056 -4.91113 1.86622L-4.91113 6.45331H33.4889V6.45331Z" fill="#605E5C"/>
<path d="M25.4499 4.75761C26.2568 4.75761 26.9108 4.10308 26.9108 3.29568C26.9108 2.48827 26.2568 1.83374 25.4499 1.83374C24.6431 1.83374 23.989 2.48827 23.989 3.29568C23.989 4.10308 24.6431 4.75761 25.4499 4.75761Z" fill="#E6E6E6"/>
<path d="M21.3596 4.75688C22.1664 4.75688 22.8205 4.10235 22.8205 3.29494C22.8205 2.48754 22.1664 1.83301 21.3596 1.83301C20.5528 1.83301 19.8987 2.48754 19.8987 3.29494C19.8987 4.10235 20.5528 4.75688 21.3596 4.75688Z" fill="#E6E6E6"/>
<path d="M17.2685 4.75841C18.0754 4.75841 18.7294 4.10387 18.7294 3.29647C18.7294 2.48906 18.0754 1.83453 17.2685 1.83453C16.4617 1.83453 15.8076 2.48906 15.8076 3.29647C15.8076 4.10387 16.4617 4.75841 17.2685 4.75841Z" fill="#E6E6E6"/>
</g>
</svg>
