<svg width="65" height="65" viewBox="0 0 65 65" fill="none" xmlns="http://www.w3.org/2000/svg">
<path d="M32.0146 56.4842C19.264 56.4842 8.92395 46.1035 8.92395 33.444C8.92395 20.7846 19.264 10.4038 32.0146 10.4038C44.7652 10.4038 55.1053 20.7213 55.1053 33.444C55.1053 46.1668 44.7652 56.4842 32.0146 56.4842ZM32.0146 11.8596C20.0887 11.8596 10.4464 21.5441 10.4464 33.3807C10.4464 45.2173 20.1521 54.9018 32.0146 54.9018C43.9406 54.9018 53.5828 45.2173 53.5828 33.3807C53.5828 21.5441 43.8771 11.8596 32.0146 11.8596Z" fill="#4497A9"/>
<path d="M58.0879 36.1664C58.0245 36.1664 58.0245 36.1664 58.0879 36.1664C57.5805 36.1031 57.3267 35.7866 57.3267 35.3435C57.3902 34.7106 57.3902 34.0776 57.3902 33.4446C57.3902 33.0015 57.7073 32.6851 58.1514 32.6851C58.5954 32.6851 58.9126 33.0015 58.9126 33.4446C58.9126 34.1409 58.9126 34.7739 58.8492 35.4701C58.7857 35.8499 58.4686 36.1664 58.0879 36.1664Z" fill="#FFD066"/>
<path d="M53.3918 49.2051C53.265 49.2051 53.0747 49.1418 52.9478 49.0785C52.6306 48.8253 52.5037 48.3822 52.7575 48.0024C54.8509 45.0908 56.2464 41.7993 56.8808 38.318C56.9442 37.8749 57.3883 37.6217 57.7689 37.7483C58.213 37.8116 58.4667 38.2547 58.3398 38.6344C57.642 42.369 56.1196 45.787 53.9628 48.8886C53.8359 49.0785 53.6456 49.2051 53.3918 49.2051Z" fill="#FFD066"/>
<path d="M46.0356 56.1676C45.7818 56.1676 45.5281 56.041 45.4012 55.7878C45.1475 55.408 45.2743 54.9649 45.655 54.7118C47.4312 53.5724 49.0805 52.1799 50.6029 50.6607C50.9201 50.3442 51.3642 50.3442 51.6814 50.5974C51.9985 50.9139 51.9985 51.357 51.7448 51.6735C50.2223 53.3192 48.4461 54.7751 46.5431 55.9777C46.3527 56.1676 46.1624 56.1676 46.0356 56.1676Z" fill="#FFD066"/>
<path d="M13.1123 16.1646C12.9219 16.1646 12.7316 16.1013 12.6048 15.9748C12.2876 15.6583 12.2876 15.2152 12.6048 14.8987C13.4929 13.9492 14.5078 13.0631 15.5228 12.2402C15.84 11.987 16.3475 12.0503 16.6012 12.3668C16.855 12.6833 16.7915 13.1897 16.4744 13.4429C15.5228 14.2024 14.5713 15.0253 13.7466 15.9115C13.4929 16.1013 13.3026 16.1646 13.1123 16.1646Z" fill="#FFD066"/>
<path d="M6.89353 41.2934C6.57635 41.2934 6.25917 41.1035 6.13229 40.7237C5.94199 40.154 5.81511 39.5844 5.68824 38.9514C5.62481 38.5716 5.87855 38.1285 6.25917 38.0652C6.63978 38.0019 7.08383 38.2551 7.14727 38.6349C7.27414 39.2046 7.40101 39.711 7.52788 40.2806C7.65476 40.6604 7.40101 41.1035 7.0204 41.2301C7.0204 41.2934 6.95696 41.2934 6.89353 41.2934Z" fill="#FFD066"/>
<path d="M18.7565 11.7337C18.5028 11.7337 18.2491 11.6071 18.1222 11.354C17.9319 10.9742 18.0588 10.5311 18.3759 10.3412C21.5477 8.44229 25.0367 7.23964 28.716 6.79656C29.16 6.73326 29.5406 7.04975 29.5406 7.42953C29.6041 7.87261 29.2869 8.25239 28.9063 8.25239C25.4173 8.69548 22.1186 9.77153 19.1372 11.5439C19.0103 11.6704 18.8834 11.7337 18.7565 11.7337Z" fill="#FFD066"/>
<path d="M37.5978 8.69538C37.5344 8.69538 37.4709 8.69538 37.4075 8.69538C35.6313 8.31559 33.7916 8.1257 31.952 8.1257C31.5079 8.1257 31.1908 7.80921 31.1908 7.36613C31.1908 6.92305 31.5079 6.60657 31.952 6.60657C33.9185 6.60657 35.8216 6.79646 37.7247 7.23954C38.1053 7.30284 38.4225 7.74592 38.2956 8.1257C38.2956 8.44219 37.9784 8.69538 37.5978 8.69538Z" fill="#FFD066"/>
<path d="M44.1313 11.0373C44.0044 11.0373 43.8776 11.0373 43.7507 10.974C42.9894 10.5942 42.2282 10.2145 41.467 9.89797C41.0864 9.77138 40.8961 9.32829 41.0229 8.88521C41.1498 8.50543 41.5939 8.31554 42.0379 8.44213C42.8626 8.75862 43.6872 9.1384 44.4485 9.58148C44.8291 9.77138 44.956 10.2145 44.7657 10.5942C44.6388 10.9107 44.385 11.0373 44.1313 11.0373Z" fill="#FFD066"/>
<path d="M57.9599 30.8489C57.5793 30.8489 57.2621 30.5957 57.1986 30.2159C56.3105 23.2532 52.5044 16.8602 46.6683 12.7458C46.3511 12.4927 46.2242 12.0496 46.478 11.6698C46.7317 11.3533 47.1758 11.2267 47.5564 11.4799C53.7097 15.8474 57.7696 22.6202 58.7211 30.026C58.7845 30.4691 58.4674 30.8489 58.0867 30.8489C58.0233 30.8489 57.9599 30.8489 57.9599 30.8489Z" fill="#FFD066"/>
<path d="M40.0718 58.9531C39.7546 58.9531 39.4375 58.7632 39.374 58.4468C39.2472 58.067 39.4375 57.6239 39.8815 57.4973C40.8331 57.1808 41.848 56.801 42.7361 56.3579C43.1168 56.1681 43.5608 56.3579 43.7511 56.7377C43.9414 57.1175 43.7511 57.5606 43.3705 57.7505C42.3555 58.1936 41.3405 58.6366 40.3256 58.9531C40.2621 58.9531 40.1987 58.9531 40.0718 58.9531Z" fill="#FFD066"/>
<path d="M32.016 60.2831C27.512 60.2831 23.1349 59.1437 19.2019 57.0549C18.8213 56.865 18.6944 56.4219 18.8847 56.0422C19.075 55.6624 19.5191 55.5358 19.8997 55.7257C23.579 57.7512 27.7658 58.7639 32.016 58.7639C33.4115 58.7639 34.8706 58.6373 36.2027 58.4475C36.6468 58.3842 37.0274 58.6373 37.0908 59.0804C37.1543 59.5235 36.9005 59.9033 36.4565 59.9666C34.9974 60.1565 33.475 60.2831 32.016 60.2831Z" fill="#FFD066"/>
<path d="M14.3792 53.4461C14.1889 53.4461 13.9986 53.3828 13.8717 53.2562C11.0805 50.7243 8.92372 47.7493 7.40126 44.3313C7.21095 43.9515 7.40126 43.5084 7.78187 43.3185C8.16249 43.1286 8.60654 43.3185 8.79685 43.6983C10.2559 46.9265 12.2858 49.7748 14.8867 52.1168C15.2039 52.37 15.2039 52.8764 14.9501 53.1929C14.8233 53.3828 14.5695 53.4461 14.3792 53.4461Z" fill="#FFD066"/>
<path d="M5.87988 34.2041C5.43583 34.2041 5.11865 33.8876 5.11865 33.4445C5.11865 28.5073 6.45081 23.6967 9.05168 19.5191C9.24199 19.1393 9.74947 19.076 10.0667 19.2659C10.4473 19.4558 10.5107 19.9622 10.3204 20.2787C7.90983 24.2031 6.64111 28.7605 6.64111 33.4445C6.64111 33.8243 6.32393 34.2041 5.87988 34.2041Z" fill="#FFD066"/>
<path d="M14.4797 52.3185C18.4491 52.3185 21.6669 49.1006 21.6669 45.1312C21.6669 41.1618 18.4491 37.944 14.4797 37.944C10.5103 37.944 7.29242 41.1618 7.29242 45.1312C7.29242 49.1006 10.5103 52.3185 14.4797 52.3185Z" fill="#8FC1CB"/>
<path d="M18.6073 39.2552C16.422 36.1958 12.1485 36.2443 10.0118 39.498C11.2258 38.5268 12.7798 37.944 14.431 37.944C16.0335 37.944 17.4418 38.4296 18.6073 39.2552Z" fill="#4497A9"/>
<path d="M9.88472 50.6424C11.0502 49.7683 12.7013 49.1855 14.5953 49.1855C16.3921 49.1855 18.0432 49.6712 19.2087 50.5453C19.9372 49.914 20.5199 49.1855 20.9084 48.3114C20.2285 45.3977 20.18 43.2123 19.5487 41.1727C19.3058 40.4443 19.0145 39.813 18.626 39.2302C17.4605 38.4047 16.0036 37.919 14.4982 37.919C12.7613 37.8596 11.2117 38.4668 9.99767 39.4381C9.65773 39.9723 9.44766 40.6385 9.20485 41.3184C8.6221 43.1638 8.57353 45.3977 7.99078 48.1657C8.37928 49.137 9.05916 49.9625 9.88472 50.6424Z" fill="#4497A9"/>
<path d="M14.5766 49.2107C12.7312 49.2107 11.0235 49.7259 9.83838 50.6122C11.101 51.6321 12.6826 52.3187 14.4309 52.3187C16.2277 52.3187 17.8788 51.6388 19.1414 50.5219C18.0245 49.6963 16.3734 49.1621 14.5766 49.2107Z" fill="#8FC1CB"/>
<path d="M11.9544 44.743H11.2746C10.7404 44.743 10.2548 44.3059 10.2548 43.7232V43.6746C10.2548 43.1404 10.6918 42.6548 11.2746 42.6548H11.9544C12.3429 42.6548 12.6343 42.9462 12.6343 43.3347V44.0631C12.6343 44.4516 12.3429 44.743 11.9544 44.743Z" fill="#D5E9EE"/>
<path d="M16.9077 44.7428H17.5875C18.1217 44.7428 18.6073 44.3058 18.5588 43.723V43.6744C18.5588 43.1402 18.1217 42.6546 17.539 42.7032H16.8591C16.5192 42.7032 16.2278 42.9946 16.2278 43.3831V44.1115C16.2763 44.4514 16.5677 44.7428 16.9077 44.7428Z" fill="#D5E9EE"/>
<path d="M16.8591 49.4537C16.2763 49.2595 15.8393 49.0652 15.8878 48.2882V45.5687H13.2169V48.2397C13.2169 48.8224 13.1198 49.1138 12.4399 49.4052C11.9543 49.5509 11.5172 49.6965 11.1287 49.8908C12.1 50.2307 13.2655 50.4735 14.4795 50.425C15.7422 50.425 16.9489 50.1941 17.9201 49.8056C17.5815 49.6861 17.2476 49.5508 16.8591 49.4537Z" fill="#D5E9EE"/>
<path d="M13.2185 46.1373L13.2257 50.2169L15.8808 50.195L15.8731 46.164L13.2185 46.1373Z" fill="url(#paint0_radial)"/>
<path d="M17.8791 42.6545C17.8791 45.2769 16.3736 47.3651 14.4311 47.4136C12.4886 47.4136 10.9346 45.3255 10.9346 42.7031C10.9346 40.0807 12.4401 38.2353 14.3826 38.1868C16.2765 38.1868 17.8305 40.0321 17.8791 42.6545Z" fill="#D5E9EE"/>
<path d="M12.8286 37.7984C12.8286 37.7984 13.1685 39.5467 15.111 40.3237C17.9276 41.4406 17.879 43.1403 17.879 43.1403C17.879 43.1403 19.4816 41.1492 17.5391 38.5754C15.5481 35.9531 12.8286 37.7984 12.8286 37.7984Z" fill="#4497A9"/>
<path d="M11.1904 33.3713C17.155 33.3713 21.9903 28.5466 21.9903 22.595C21.9903 16.6434 17.155 11.8187 11.1904 11.8187C5.22577 11.8187 0.390503 16.6434 0.390503 22.595C0.390503 28.5466 5.22577 33.3713 11.1904 33.3713Z" fill="#8FC1CB"/>
<path d="M5.90987 21.2538C5.95787 24.1275 8.16585 26.4743 10.8538 26.4264C13.5418 26.3785 15.7018 23.9838 15.6538 21.1101C15.6058 18.2364 14.4538 15.9375 10.7098 15.9375C6.96586 15.9375 5.86187 18.3322 5.90987 21.2538Z" fill="#4497A9"/>
<path d="M12.7264 24.8938H14.1664C14.7904 24.8938 15.2704 24.4149 15.2704 23.7922C15.2704 23.1696 14.7904 22.6907 14.1664 22.6907H12.7264V24.8938Z" fill="#D5E9EE"/>
<path d="M14.3109 30.785C13.2549 30.1624 11.9589 29.8271 10.6149 29.8271C9.36691 29.8271 8.16692 30.0666 7.20693 30.6414C6.48694 31.0245 5.95895 31.4077 5.57495 31.7908C7.20693 32.7966 9.17491 33.3713 11.2389 33.3713C12.9669 33.3713 14.5988 32.9882 16.0388 32.2698C15.6068 31.7429 15.0788 31.2161 14.3109 30.785Z" fill="#4497A9"/>
<path d="M8.7416 24.8938H7.30162C6.67763 24.8938 6.19763 24.4149 6.19763 23.7922C6.19763 23.1696 6.67763 22.6907 7.30162 22.6907H8.7416V24.8938Z" fill="#D5E9EE"/>
<path d="M9.12634 28.9173V25.7562H12.1503V28.8694C12.1503 29.5878 12.2463 29.8273 12.9663 30.1625C13.8783 30.5936 12.1023 31.6952 10.7103 31.6952C9.31834 31.6952 7.44636 30.4499 8.16635 30.1625C8.74234 29.9709 9.17434 29.7794 9.12634 28.9173Z" fill="#C3F2F4"/>
<path d="M9.12634 28.9173V25.7562H12.1503V28.8694C12.1503 29.5878 12.2463 29.8273 12.9663 30.1625C13.8783 30.5936 12.1023 31.6952 10.7103 31.6952C9.31834 31.6952 7.44636 30.4499 8.16635 30.1625C8.74234 29.9709 9.17434 29.7794 9.12634 28.9173Z" fill="url(#paint1_radial)"/>
<path d="M7.44678 17.7579C7.92677 14.9321 11.2387 14.3573 13.3507 15.2194C15.1747 15.9858 16.1827 17.8057 16.7107 16.4647C16.7107 16.4647 18.1027 17.9494 17.7187 19.6257C17.3347 21.3021 15.7987 21.8768 14.4547 21.3021C13.5427 20.9189 12.7267 19.3863 10.9987 18.4284C9.55875 17.6142 7.44678 17.7579 7.44678 17.7579Z" fill="#4497A9"/>
<path d="M7.01385 22.6427C7.01385 25.4685 8.69384 27.7674 10.8058 27.7674C12.9178 27.7674 14.5978 25.4685 14.5978 22.6427C14.5978 19.8169 12.9178 17.7574 10.8058 17.7574C8.69384 17.7574 7.01385 19.769 7.01385 22.6427Z" fill="#D5E9EE"/>
<path d="M6.67763 18.5716C6.67763 18.5716 8.6456 17.3743 10.8056 17.3743C12.9656 17.3743 14.9335 18.5237 14.9335 18.5237L15.4135 22.5469L14.5975 22.6427L13.9255 19.6732C13.8295 19.4816 13.6375 19.3379 13.3496 19.3379H8.26161C8.02161 19.3379 7.78161 19.5295 7.73361 19.769L7.01362 22.7385L6.19763 22.6427L6.67763 18.5716Z" fill="#4497A9"/>
<path d="M28.8928 15.6406C32.8622 15.6406 36.0801 12.4228 36.0801 8.45336C36.0801 4.48395 32.8622 1.26611 28.8928 1.26611C24.9234 1.26611 21.7056 4.48395 21.7056 8.45336C21.7056 12.4228 24.9234 15.6406 28.8928 15.6406Z" fill="#8FC1CB"/>
<path d="M30.7382 7.43366H26.7075C25.9791 7.43366 25.3478 6.85091 25.3478 6.07391V3.98572C25.3478 2.23748 26.7561 0.877727 28.4558 0.877727H28.8928C30.6411 0.877727 32.0008 -0.287772 32.0008 3.98572V6.07391C32.0494 6.85091 31.4666 7.43366 30.7382 7.43366Z" fill="#4497A9"/>
<path d="M33.9434 13.5525C33.7006 13.4068 33.5063 13.3097 33.3121 13.2126C32.3408 12.6784 30.9811 12.4841 29.5728 12.4841H28.213C26.659 12.4841 25.1536 12.7269 24.1823 13.3097C24.0852 13.3583 23.9395 13.4554 23.7938 13.5525C25.105 14.8637 26.9018 15.6407 28.8443 15.6407C30.8839 15.6407 32.6808 14.8637 33.9434 13.5525Z" fill="#4497A9"/>
<path d="M31.1269 12.484C30.8355 12.3869 30.447 12.1927 30.447 11.8527V7.57922H27.1447V11.9498C27.1447 12.2412 26.8048 12.4355 26.562 12.5326C26.4649 12.5812 26.3677 12.5812 26.3192 12.6297C26.3192 12.9697 27.6304 14.038 28.893 13.9895C30.1556 13.9409 31.3697 12.824 31.3697 12.5812C31.2726 12.5326 31.224 12.5326 31.1269 12.484Z" fill="#D5E9EE"/>
<path d="M30.447 7.57922H27.1447V11.9498C27.1447 12.4355 26.3192 12.6297 26.3192 12.6297L31.3697 12.5812C31.3697 12.5812 30.447 12.3383 30.447 11.9013V7.57922Z" fill="url(#paint2_radial)"/>
<path d="M24.8139 6.89967C24.8139 7.48242 25.2995 7.96805 25.8823 7.96805C25.9308 7.96805 26.4165 7.96805 26.465 7.96805C26.9992 7.91948 26.9507 7.48242 26.9507 6.89967C26.9507 6.36549 27.0478 5.87986 26.5136 5.8313C26.465 5.8313 25.9308 5.8313 25.8823 5.8313C25.2995 5.8313 24.8139 6.26836 24.8139 6.89967Z" fill="#D5E9EE"/>
<path d="M29.1357 10.7362H28.3102C26.9504 10.7362 25.882 9.66778 25.882 8.30804V4.52016C25.882 3.16042 26.9504 2.09204 28.3102 2.09204H29.1357C30.4955 2.09204 31.5639 3.16042 31.5639 4.52016V8.30804C31.5639 9.66778 30.4469 10.7362 29.1357 10.7362Z" fill="#D5E9EE"/>
<path d="M32.6321 6.89967C32.6321 7.48242 32.1465 7.96805 31.5637 7.96805C31.5152 7.96805 31.0296 7.96805 30.981 7.96805C30.4468 7.91948 30.4954 7.48242 30.4954 6.89967C30.4954 6.36549 30.3982 5.87986 30.9324 5.8313C30.981 5.8313 31.5152 5.8313 31.5637 5.8313C32.1465 5.8313 32.6321 6.26836 32.6321 6.89967Z" fill="#D5E9EE"/>
<path d="M30.6413 1.50879H26.8048L25.5908 3.3056L25.8336 5.83085L26.1735 3.98547C26.2706 3.40273 26.8048 3.01423 27.3876 3.01423H30.0099C30.5927 3.01423 31.1269 3.45129 31.224 3.98547L31.5639 5.83085L31.8068 3.3056L30.6413 1.50879Z" fill="#4497A9"/>
<path d="M27.6788 3.5972C28.2689 3.5972 28.7472 3.11887 28.7472 2.52882C28.7472 1.93878 28.2689 1.46045 27.6788 1.46045C27.0888 1.46045 26.6105 1.93878 26.6105 2.52882C26.6105 3.11887 27.0888 3.5972 27.6788 3.5972Z" fill="#4497A9"/>
<path d="M51.8239 64.7325C58.7642 64.7325 64.3905 59.1186 64.3905 52.1934C64.3905 45.2683 58.7642 39.6543 51.8239 39.6543C44.8836 39.6543 39.2573 45.2683 39.2573 52.1934C39.2573 59.1186 44.8836 64.7325 51.8239 64.7325Z" fill="#8FC1CB"/>
<path d="M53.946 53.6985H49.3662V59.7173C49.3662 60.386 48.1933 60.6089 48.1933 60.6089L55.1747 60.5532C55.1747 60.5532 53.8901 60.2746 53.8901 59.6058L53.946 53.6985Z" fill="url(#paint3_radial)"/>
<path d="M57.9129 61.3883C56.5724 60.6638 54.7293 60.3851 52.7745 60.3851H50.9314C48.7532 60.3851 46.7426 60.6638 45.3463 61.5555C45.0112 61.7226 44.6761 61.9456 44.3409 62.2799C44.3968 62.2799 44.3968 62.3357 44.4526 62.3357C45.8489 63.3388 47.4128 64.0633 49.1442 64.4534C50.0378 64.6206 50.9314 64.732 51.825 64.732C52.7745 64.732 53.6681 64.6206 54.5059 64.4534C56.2373 64.0633 57.8012 63.3388 59.1416 62.3914C59.1974 62.3357 59.2533 62.3357 59.3091 62.2799C58.8065 61.7784 58.3597 61.5555 57.9129 61.3883Z" fill="#4497A9"/>
<path d="M54.8955 60.4418C54.5045 60.2746 53.946 60.0516 53.946 59.6058V53.6985H49.3662V59.7173C49.3662 60.4418 48.3609 60.5532 48.1933 60.6089C48.1933 60.6089 50.204 63.0053 51.0976 63.897C51.4327 64.2314 51.9354 64.2314 52.2705 63.897C53.2199 63.0053 54.8955 61.2777 55.1747 60.6089C55.1189 60.4975 55.0072 60.4975 54.8955 60.4418Z" fill="#D5E9EE"/>
<path d="M53.946 55.2588H49.3662V59.6057C49.3662 60.2744 48.1933 60.4974 48.1933 60.4974L55.1747 60.4416C55.1747 60.4416 53.8901 60.163 53.8901 59.4942L53.946 55.2588Z" fill="url(#paint4_radial)"/>
<path d="M47.3556 51.1904C48.0959 51.1904 48.6961 50.5916 48.6961 49.8529C48.6961 49.1142 48.0959 48.5154 47.3556 48.5154C46.6153 48.5154 46.0152 49.1142 46.0152 49.8529C46.0152 50.5916 46.6153 51.1904 47.3556 51.1904Z" fill="#4497A9"/>
<path d="M50.2608 46.0071C51.0936 46.0071 51.7688 45.3334 51.7688 44.5024C51.7688 43.6714 51.0936 42.9977 50.2608 42.9977C49.4279 42.9977 48.7528 43.6714 48.7528 44.5024C48.7528 45.3334 49.4279 46.0071 50.2608 46.0071Z" fill="#4497A9"/>
<path d="M48.3057 47.0104C49.1385 47.0104 49.8137 46.3367 49.8137 45.5057C49.8137 44.6747 49.1385 44.001 48.3057 44.001C47.4728 44.001 46.7977 44.6747 46.7977 45.5057C46.7977 46.3367 47.4728 47.0104 48.3057 47.0104Z" fill="#4497A9"/>
<path d="M47.3002 49.0724C48.1331 49.0724 48.8082 48.3987 48.8082 47.5677C48.8082 46.7367 48.1331 46.063 47.3002 46.063C46.4674 46.063 45.7922 46.7367 45.7922 47.5677C45.7922 48.3987 46.4674 49.0724 47.3002 49.0724Z" fill="#4497A9"/>
<path d="M55.7892 51.1904C56.5295 51.1904 57.1296 50.5916 57.1296 49.8529C57.1296 49.1142 56.5295 48.5154 55.7892 48.5154C55.0489 48.5154 54.4488 49.1142 54.4488 49.8529C54.4488 50.5916 55.0489 51.1904 55.7892 51.1904Z" fill="#4497A9"/>
<path d="M52.829 46.0627C53.6618 46.0627 54.337 45.3891 54.337 44.558C54.337 43.727 53.6618 43.0533 52.829 43.0533C51.9961 43.0533 51.321 43.727 51.321 44.558C51.321 45.3891 51.9961 46.0627 52.829 46.0627Z" fill="#4497A9"/>
<path d="M54.9513 47.0659C55.7842 47.0659 56.4593 46.3922 56.4593 45.5612C56.4593 44.7302 55.7842 44.0565 54.9513 44.0565C54.1185 44.0565 53.4434 44.7302 53.4434 45.5612C53.4434 46.3922 54.1185 47.0659 54.9513 47.0659Z" fill="#4497A9"/>
<path d="M55.7338 49.3514C56.5666 49.3514 57.2418 48.6778 57.2418 47.8467C57.2418 47.0157 56.5666 46.342 55.7338 46.342C54.9009 46.342 54.2258 47.0157 54.2258 47.8467C54.2258 48.6778 54.9009 49.3514 55.7338 49.3514Z" fill="#4497A9"/>
<path d="M54.3373 53.4195H48.808C47.8027 53.4195 46.9649 52.5836 46.9649 51.5805V48.6825C46.9649 46.2862 48.9197 44.3914 51.2655 44.3914H51.8798C54.2814 44.3914 56.1804 46.3419 56.1804 48.6825V51.5805C56.2362 52.5836 55.3985 53.4195 54.3373 53.4195Z" fill="#4497A9"/>
<path d="M46.184 52.6392C46.184 53.4751 46.8542 54.0881 47.6361 54.1439C47.6919 54.1439 48.418 54.1439 48.4739 54.1439C49.1999 54.0881 49.1441 53.4194 49.1441 52.6949C49.1441 51.9704 49.2558 51.3017 48.5297 51.2459C48.4739 51.2459 47.7478 51.2459 47.6919 51.2459C46.8542 51.1902 46.184 51.859 46.184 52.6392Z" fill="#D5E9EE"/>
<path d="M52.1603 57.9891H51.0433C49.2002 57.9891 47.6922 56.4844 47.6922 54.6453V49.4068C47.6922 47.5677 49.2002 46.063 51.0433 46.063H52.1603C54.0034 46.063 55.5114 47.5677 55.5114 49.4068V54.6453C55.5114 56.4844 54.0034 57.9891 52.1603 57.9891Z" fill="#D5E9EE"/>
<path d="M57.0185 52.6392C57.0185 53.4751 56.3482 54.0881 55.5663 54.1439C55.5105 54.1439 54.7844 54.1439 54.7286 54.1439C54.0025 54.0881 54.0583 53.4194 54.0583 52.6949C54.0583 51.9704 53.9466 51.3017 54.6727 51.2459C54.7286 51.2459 55.4546 51.2459 55.5105 51.2459C56.3482 51.1902 57.0185 51.859 57.0185 52.6392Z" fill="#D5E9EE"/>
<path d="M54.2269 45.2277H48.9769L47.3572 47.7355L47.6923 51.1907L48.1391 48.6829C48.3067 47.9027 49.0328 47.2896 49.8147 47.2896H53.445C54.2828 47.2896 54.953 47.8469 55.1206 48.6829L55.5674 51.1907L55.9025 47.7355L54.2269 45.2277Z" fill="#4497A9"/>
<path d="M53.5 48.1816C54.3328 48.1816 55.0079 47.5079 55.0079 46.6769C55.0079 45.8459 54.3328 45.1722 53.5 45.1722C52.6671 45.1722 51.992 45.8459 51.992 46.6769C51.992 47.5079 52.6671 48.1816 53.5 48.1816Z" fill="#4497A9"/>
<path d="M32.9592 41.4347C37.7207 41.4347 41.5807 37.5941 41.5807 32.8564C41.5807 28.1187 37.7207 24.2781 32.9592 24.2781C28.1977 24.2781 24.3378 28.1187 24.3378 32.8564C24.3378 37.5941 28.1977 41.4347 32.9592 41.4347Z" fill="#4497A9"/>
<path d="M31.7526 36.0897C31.537 36.0897 31.3215 36.0035 31.1491 35.831L28.8213 33.5032C28.4764 33.1584 28.4764 32.6411 28.8213 32.2962C29.1661 31.9514 29.6834 31.9514 30.0283 32.2962L31.7526 34.0205L36.0633 29.7098C36.4081 29.365 36.9254 29.365 37.2703 29.7098C37.6151 30.0547 37.6151 30.572 37.2703 30.9168L32.3561 35.831C32.1836 36.0035 31.9681 36.0897 31.7526 36.0897Z" fill="white"/>
<defs>
<radialGradient id="paint0_radial" cx="0" cy="0" r="1" gradientUnits="userSpaceOnUse" gradientTransform="translate(13.956 44.6645) rotate(0.576514) scale(3.49319 3.51457)">
<stop offset="0.4164" stop-color="#8FC1CB"/>
<stop offset="0.9849" stop-color="#D5E9EE"/>
</radialGradient>
<radialGradient id="paint1_radial" cx="0" cy="0" r="1" gradientUnits="userSpaceOnUse" gradientTransform="translate(10.9688 26.0347) scale(2.80379 2.79767)">
<stop offset="0.104167" stop-color="#8FC1CB"/>
<stop offset="1" stop-color="#D5E9EE"/>
</radialGradient>
<radialGradient id="paint2_radial" cx="0" cy="0" r="1" gradientUnits="userSpaceOnUse" gradientTransform="translate(28.4301 7.46806) scale(4.71673)">
<stop offset="0.0295757" stop-color="#8FC1CB"/>
<stop offset="0.9168" stop-color="#D5E9EE"/>
</radialGradient>
<radialGradient id="paint3_radial" cx="0" cy="0" r="1" gradientUnits="userSpaceOnUse" gradientTransform="translate(51.1846 53.5453) scale(6.51206 6.49783)">
<stop offset="0.0295757" stop-color="#92DDED"/>
<stop offset="0.9168" stop-color="#92DDED" stop-opacity="0"/>
</radialGradient>
<radialGradient id="paint4_radial" cx="0" cy="0" r="1" gradientUnits="userSpaceOnUse" gradientTransform="translate(51.1846 55.1654) scale(5.37252 5.36079)">
<stop offset="0.0295757" stop-color="#8FC1CB"/>
<stop offset="0.9168" stop-color="#D5E9EE"/>
</radialGradient>
</defs>
</svg>
