<svg width="65" height="65" viewBox="0 0 65 65" fill="none" xmlns="http://www.w3.org/2000/svg">
<path d="M32.2469 57.2566C18.6482 57.2566 7.72278 46.2149 7.72278 32.6162C7.72278 19.0175 18.7645 8.09204 32.2469 8.09204C45.7294 8.09204 56.7711 19.1337 56.7711 32.6162C56.7711 46.2149 45.7294 57.2566 32.2469 57.2566ZM32.2469 9.83547C19.6943 9.83547 9.34998 20.0636 9.34998 32.7324C9.34998 45.4013 19.6943 55.5132 32.2469 55.5132C44.7996 55.5132 55.1439 45.2851 55.1439 32.6162C55.1439 19.9473 44.7996 9.83547 32.2469 9.83547Z" fill="#4497A9"/>
<path d="M12.1395 14.3684C11.907 14.3684 11.6746 14.2522 11.5583 14.136C11.2096 13.7873 11.2096 13.3224 11.5583 12.9737C12.4882 11.9276 13.5342 10.9978 14.6965 10.1842C15.0452 9.95177 15.6263 9.95177 15.8588 10.3005C16.0912 10.6491 16.0912 11.2303 15.7425 11.4627C14.6965 12.2763 13.7667 13.2062 12.8368 14.136C12.6044 14.2522 12.3719 14.3684 12.1395 14.3684Z" fill="#FFD066"/>
<path d="M59.9094 35.638C59.9094 35.638 59.7931 35.638 59.9094 35.638C59.3282 35.638 58.9795 35.1731 59.0958 34.7082C59.0958 34.0108 59.212 33.3135 59.212 32.6161C59.212 32.1512 59.5607 31.8025 60.0256 31.8025C60.4905 31.8025 60.8392 32.1512 60.8392 32.6161C60.8392 33.3135 60.8392 34.0108 60.723 34.8244C60.723 35.2893 60.3743 35.638 59.9094 35.638Z" fill="#CCE17F"/>
<path d="M54.9115 49.4694C54.7953 49.4694 54.5628 49.4694 54.4466 49.3532C54.0979 49.1207 53.9817 48.5396 54.2141 48.1909C56.4225 45.0527 57.9334 41.6821 58.6308 37.9628C58.747 37.4979 59.212 37.1492 59.6769 37.2654C60.1418 37.3817 60.4905 37.8466 60.3742 38.3115C59.5606 42.2633 58.0497 45.9826 55.7251 49.237C55.4927 49.3532 55.144 49.4694 54.9115 49.4694Z" fill="#FFD066"/>
<path d="M18.1833 9.60297C17.8347 9.60297 17.6022 9.48674 17.486 9.13806C17.2535 8.78937 17.3698 8.20823 17.8347 7.97578C21.2053 5.9999 24.9246 4.72138 28.8763 4.25647C29.3413 4.25647 29.8062 4.48893 29.8062 4.95384C29.8062 5.41875 29.5737 5.88367 29.1088 5.88367C25.3895 6.34858 21.9027 7.51086 18.7645 9.37051C18.4158 9.60297 18.2996 9.60297 18.1833 9.60297Z" fill="#FFD066"/>
<path d="M38.1746 6.3486C38.0584 6.3486 38.0584 6.3486 37.9421 6.3486C36.0825 5.88368 34.1066 5.76745 32.1307 5.76745C31.6658 5.76745 31.3171 5.41877 31.3171 4.95386C31.3171 4.48894 31.6658 4.14026 32.1307 4.14026C34.2228 4.14026 36.315 4.37271 38.2908 4.83763C38.7558 4.95386 38.9882 5.41877 38.9882 5.88368C38.872 6.11614 38.5233 6.3486 38.1746 6.3486Z" fill="#FFD066"/>
<path d="M45.0321 8.90559C44.9159 8.90559 44.7997 8.90559 44.6834 8.78937C43.8698 8.32445 43.0562 7.97577 42.2426 7.62708C41.7777 7.39463 41.5453 6.92971 41.7777 6.4648C42.0102 5.99989 42.4751 5.76743 42.94 5.99989C43.8698 6.34857 44.6834 6.81348 45.497 7.16217C45.9619 7.39462 46.0782 7.85954 45.8457 8.32445C45.6133 8.78936 45.3808 8.90559 45.0321 8.90559Z" fill="#FFD066"/>
<path d="M59.7931 29.943C59.3281 29.943 58.9794 29.5943 58.9794 29.2456C58.0496 21.807 53.9816 15.0658 47.8215 10.6491C47.4728 10.4166 47.3566 9.8355 47.5891 9.48682C47.8215 9.13813 48.4027 9.0219 48.7514 9.25436C55.2601 13.9035 59.5606 21.1096 60.6066 29.0132C60.6066 29.4781 60.3742 29.943 59.7931 29.943Z" fill="#FFD066"/>
<path d="M47.1242 56.908C46.8918 56.908 46.5431 56.7918 46.4268 56.5593C46.1944 56.2106 46.3106 55.6295 46.6593 55.397C48.519 54.2348 50.2624 52.7238 51.8896 51.0966C52.2383 50.7479 52.7032 50.7479 53.0519 51.0966C53.4005 51.4453 53.4005 51.9102 53.0519 52.2589C51.4247 54.0023 49.565 55.6295 47.4729 56.908C47.4729 56.908 47.2404 56.908 47.1242 56.908Z" fill="#FFD066"/>
<path d="M40.8479 59.9299C40.4992 59.9299 40.1505 59.6974 40.0343 59.3487C39.9181 58.8838 40.1505 58.4189 40.6155 58.3027C41.6615 57.954 42.7076 57.6053 43.6374 57.1404C44.1023 56.9079 44.5672 57.1404 44.7997 57.6053C45.0321 58.0702 44.7997 58.5351 44.3348 58.7676C43.2887 59.2325 42.2426 59.6974 41.0804 60.0461C40.9641 59.9299 40.8479 59.9299 40.8479 59.9299Z" fill="#FFD066"/>
<path d="M32.247 61.3246C27.4816 61.3246 22.8325 60.1623 18.6483 57.8378C18.1834 57.6053 18.0671 57.1404 18.2996 56.6755C18.532 56.2106 18.9969 56.0943 19.4619 56.3268C23.4136 58.4189 27.8303 59.5812 32.247 59.5812C33.7579 59.5812 35.2689 59.465 36.6637 59.2325C37.1286 59.1163 37.5935 59.465 37.5935 59.9299C37.7097 60.3948 37.361 60.8597 36.8961 60.8597C35.3851 61.0922 33.8742 61.3246 32.247 61.3246Z" fill="#FFD066"/>
<path d="M13.5343 54.0024C13.3018 54.0024 13.0693 53.8862 12.9531 53.7699C7.02547 48.3072 3.65485 40.6361 3.65485 32.6164C3.65485 27.3861 5.04958 22.2721 7.83906 17.7392C8.07152 17.3905 8.65266 17.158 9.00135 17.5067C9.35003 17.7392 9.58249 18.3203 9.2338 18.669C6.67678 22.8532 5.28204 27.7348 5.28204 32.6164C5.28204 40.1712 8.42021 47.3774 13.9992 52.4914C14.3479 52.8401 14.3479 53.305 13.9992 53.6537C13.9992 53.8862 13.7667 54.0024 13.5343 54.0024Z" fill="#FFD066"/>
<path d="M20.3562 42.5158C18.8444 42.1871 17.2011 42.0557 15.4264 42.0557C7.07873 42.0557 1.22877 45.9337 0.308557 52.441C-0.545931 58.6853 7.60457 63.8122 18.0556 61.446C22.9854 60.3286 26.732 64.7325 26.732 64.7325L25.8117 60.7887C25.9432 60.1314 26.4033 59.6055 26.9949 59.4083C28.3095 58.9482 29.164 58.1595 29.7555 57.1078C30.4128 55.9247 30.61 54.3471 30.61 52.441C30.5443 47.2483 26.2718 43.7646 20.3562 42.5158Z" fill="#8FC1CB"/>
<path d="M10.2337 53.8213C10.9235 53.8213 11.4826 53.2622 11.4826 52.5725C11.4826 51.8827 10.9235 51.3236 10.2337 51.3236C9.544 51.3236 8.98486 51.8827 8.98486 52.5725C8.98486 53.2622 9.544 53.8213 10.2337 53.8213Z" fill="white"/>
<path d="M15.3607 52.5068C16.0504 52.5068 16.6096 51.9476 16.6096 51.2579C16.6096 50.5682 16.0504 50.009 15.3607 50.009C14.671 50.009 14.1118 50.5682 14.1118 51.2579C14.1118 51.9476 14.671 52.5068 15.3607 52.5068Z" fill="white"/>
<path d="M20.4876 53.4926C21.1774 53.4926 21.7365 52.9335 21.7365 52.2437C21.7365 51.554 21.1774 50.9949 20.4876 50.9949C19.7979 50.9949 19.2388 51.554 19.2388 52.2437C19.2388 52.9335 19.7979 53.4926 20.4876 53.4926Z" fill="white"/>
<path d="M48.9881 34.4845C49.8316 35.0213 51.1351 35.0213 52.0552 34.4845L63.6335 25.1299C63.2501 24.7465 62.7134 24.5165 62.0999 24.5165H39.3268C39.0967 24.5165 38.9434 24.5165 38.79 24.5932C38.4066 24.7465 38.0233 24.9765 37.7166 25.2833C37.7932 25.5133 37.9466 25.7433 38.1766 25.9733L48.9881 34.4845Z" fill="#4497A9"/>
<path d="M63.6335 25.1299L52.0552 34.4845C51.1351 35.0979 49.9083 35.0213 48.9881 34.4845L38.2533 25.8967C38.0233 25.6666 37.8699 25.4366 37.7933 25.2066C37.4865 25.5899 37.3332 26.05 37.3332 26.5101V38.165V40.6187C37.3332 41.7689 38.2533 42.689 39.4035 42.689H43.084H62.1766C63.3268 42.689 64.2469 41.7689 64.2469 40.6187V36.4781V28.657V26.5868C64.2469 26.05 64.0169 25.5133 63.6335 25.1299Z" fill="#8FC1CB"/>
<path d="M31.3523 8.78366C31.3523 10.6239 30.5089 12.3108 29.052 13.691C28.6686 14.0744 28.3619 14.5345 28.2085 15.0712L27.2117 18.675L26.7517 16.6047C26.5983 15.9913 25.9849 15.6846 25.4482 15.9147C23.9146 16.5281 22.2277 16.8348 20.3875 16.8348C14.33 16.8348 9.42261 13.2309 9.42261 8.78366C9.42261 4.33638 14.33 0.732544 20.3875 0.732544C26.445 0.732544 31.3523 4.33638 31.3523 8.78366Z" fill="#4497A9"/>
<path d="M16.7836 3.87622H16.5536C16.5536 3.87622 16.4769 3.87622 16.4002 3.9529C16.1702 4.02957 16.0168 4.18293 15.9402 4.33628C15.7868 4.48964 15.7868 4.71967 15.7868 4.9497C15.7868 5.17973 15.7868 5.33309 15.7868 5.56312C15.8635 7.40338 16.5536 9.09028 17.7804 10.6238C18.4705 11.4673 19.2373 12.1574 20.1574 12.6941C21.0775 13.2309 21.9977 13.6142 23.1478 13.8443C23.2245 13.8443 23.3779 13.8443 23.5312 13.8443C23.6846 13.8443 23.8379 13.7676 23.9913 13.7676C24.1446 13.6909 24.298 13.6142 24.3747 13.4609C24.3747 13.4609 24.3747 13.4609 24.4513 13.3842V13.3075L24.528 13.0775L24.6047 12.8475C24.6814 12.6941 24.6814 12.5408 24.6814 12.3874C24.6814 12.3107 24.6814 12.1574 24.6814 12.0807C24.6814 11.774 24.528 11.544 24.298 11.3906L23.8379 11.0072C23.4545 10.7005 23.0711 10.3938 22.6111 10.3171C22.3044 10.2404 22.0743 10.1638 21.8443 10.1638C21.6143 10.1638 21.3842 10.2404 21.1542 10.3171L20.3108 10.7005L18.2405 8.17015L18.8539 7.55673C19.1606 7.25002 19.314 6.78996 19.314 6.32989C19.314 6.09986 19.2373 5.86983 19.1606 5.6398C19.0839 5.40977 19.0073 5.17973 18.8539 4.9497L18.5472 4.48964C18.3938 4.18293 18.0871 4.02957 17.7037 3.9529C17.5504 3.9529 17.3203 3.87622 17.0903 3.9529L16.7836 3.87622Z" fill="white"/>
</svg>
