<svg width="66" height="65" viewBox="0 0 66 65" fill="none" xmlns="http://www.w3.org/2000/svg">
<path d="M34.9577 47.3439C34.9577 48.3099 34.1124 49.0949 33.1464 49.0949C32.1804 49.0949 31.3351 48.3099 31.3351 47.3439V46.1364H35.0181L34.9577 47.3439Z" fill="#4497A9"/>
<path d="M33.1464 16.3702C38.3389 16.3702 42.5653 20.5967 42.5653 25.8495C42.5653 31.2231 38.2785 33.2759 38.2785 39.1325H28.0747C28.0747 33.2155 23.7275 31.1627 23.7275 25.8495C23.7275 20.5967 27.954 16.3702 33.1464 16.3702Z" fill="#FFD066"/>
<path d="M35.6219 27.6608H30.7313C30.369 27.6608 30.1275 27.9627 30.1275 28.2645C30.1275 28.5664 30.4294 28.8683 30.7313 28.8683H32.5426V36.7174C32.5426 37.0796 32.8445 37.3211 33.1464 37.3211C33.4483 37.3211 33.7501 37.0193 33.7501 36.7174V28.8683H35.6219C35.9841 28.8683 36.2256 28.5664 36.2256 28.2645C36.2256 27.9627 35.9841 27.6608 35.6219 27.6608Z" fill="white"/>
<path d="M15.637 27.0569H15.0936C14.7313 27.0569 14.4898 26.755 14.4898 26.4531C14.4898 26.0909 14.7917 25.8494 15.0936 25.8494H15.637C15.9992 25.8494 16.2408 26.1513 16.2408 26.4531C16.2408 26.755 15.9992 27.0569 15.637 27.0569Z" fill="#FFD066"/>
<path d="M19.6823 27.0569H17.8106C17.4483 27.0569 17.2068 26.755 17.2068 26.4531C17.2068 26.0909 17.5087 25.8494 17.8106 25.8494H19.6823C20.0445 25.8494 20.286 26.1513 20.286 26.4531C20.286 26.755 19.9841 27.0569 19.6823 27.0569Z" fill="#FFD066"/>
<path d="M18.0521 20.9589C17.9314 20.9589 17.8106 20.8985 17.6898 20.8382L16.2408 19.9325C15.9389 19.7514 15.8785 19.3287 16.0597 19.0268C16.1804 18.9061 16.3012 18.7853 16.4823 18.725C16.6634 18.6646 16.8446 18.725 16.9653 18.7853L18.4144 19.691C18.7163 19.8721 18.7766 20.2948 18.5955 20.5967C18.4747 20.8985 18.2936 20.9589 18.0521 20.9589Z" fill="#FFD066"/>
<path d="M21.0106 22.8307C20.8898 22.8307 20.7691 22.7704 20.6483 22.71L19.1993 21.8043C18.8974 21.6232 18.7766 21.2006 19.0181 20.8987C19.0785 20.7779 19.2596 20.6572 19.4408 20.5968C19.6219 20.5364 19.803 20.5968 19.9238 20.6572L21.3728 21.5628C21.6747 21.744 21.7955 22.1666 21.554 22.4685C21.4332 22.71 21.2521 22.8307 21.0106 22.8307Z" fill="#FFD066"/>
<path d="M20.286 31.5853C20.0445 31.5853 19.8634 31.4646 19.7426 31.2834C19.5615 30.9816 19.6219 30.5589 19.9238 30.3778L20.6483 29.9551C20.769 29.8948 20.9502 29.8344 21.1313 29.8948C21.3124 29.9551 21.4332 30.0155 21.554 30.1966C21.7351 30.4985 21.6747 30.9212 21.3728 31.1023L20.6483 31.525C20.5275 31.525 20.4068 31.5853 20.286 31.5853Z" fill="#FFD066"/>
<path d="M16.603 33.8797C16.3615 33.8797 16.1804 33.7589 16.0597 33.5778C15.8785 33.2759 15.9389 32.8533 16.2408 32.6721L18.1729 31.525C18.2936 31.4646 18.4747 31.4042 18.6559 31.4646C18.837 31.525 18.9578 31.5853 19.0785 31.7665C19.2597 32.0684 19.1993 32.491 18.8974 32.6721L16.9653 33.8193C16.8446 33.8193 16.7238 33.8797 16.603 33.8797Z" fill="#FFD066"/>
<path d="M51.0785 26.6344H50.5351C50.1728 26.6344 49.9313 26.3325 49.9313 26.0307C49.9313 25.6684 50.2332 25.4269 50.5351 25.4269H51.0785C51.4408 25.4269 51.6823 25.7288 51.6823 26.0307C51.6823 26.3929 51.3804 26.6344 51.0785 26.6344Z" fill="#FFD066"/>
<path d="M48.3615 26.6344H46.4898C46.1276 26.6344 45.886 26.3325 45.886 26.0307C45.886 25.6684 46.1879 25.4269 46.4898 25.4269H48.3615C48.7238 25.4269 48.9653 25.7288 48.9653 26.0307C48.9653 26.3929 48.7238 26.6344 48.3615 26.6344Z" fill="#FFD066"/>
<path d="M49.6898 33.8798C49.5691 33.8798 49.4483 33.8194 49.3275 33.759L48.12 32.9741C47.8181 32.793 47.7577 32.3704 47.9389 32.0685C48.0596 31.9477 48.1804 31.827 48.3615 31.7666C48.5426 31.7062 48.7238 31.7666 48.8445 31.827L50.0521 32.6119C50.354 32.793 50.4143 33.2156 50.2332 33.5175C50.1124 33.759 49.8709 33.8798 49.6898 33.8798Z" fill="#FFD066"/>
<path d="M46.671 32.008C46.5502 32.008 46.4295 31.9476 46.3087 31.8872L44.8597 30.9816C44.5578 30.8004 44.4974 30.3778 44.6785 30.0759C44.7389 29.9552 44.9201 29.8344 45.1012 29.774C45.2823 29.7137 45.4635 29.774 45.5842 29.8344L47.0333 30.7401C47.3351 30.9212 47.3955 31.3438 47.2144 31.6457C47.0936 31.8872 46.9125 32.008 46.671 32.008Z" fill="#FFD066"/>
<path d="M45.2822 22.8306C45.0407 22.8306 44.8596 22.7098 44.7389 22.5287C44.5577 22.2268 44.6181 21.8041 44.92 21.623L45.6445 21.2004C45.7653 21.14 45.9464 21.0796 46.1275 21.14C46.3087 21.2004 46.4294 21.2608 46.5502 21.4419C46.7313 21.7438 46.6709 22.1664 46.369 22.3475L45.6445 22.7702C45.4634 22.7702 45.403 22.8306 45.2822 22.8306Z" fill="#FFD066"/>
<path d="M47.637 21.3211C47.3955 21.3211 47.2143 21.2003 47.0936 21.0192C46.9125 20.7173 46.9728 20.2947 47.2747 20.1135L48.9049 19.2682C49.0257 19.2079 49.2068 19.1475 49.3879 19.2079C49.5691 19.2682 49.6898 19.3286 49.8106 19.5098C49.9917 19.8116 49.9313 20.2343 49.6294 20.4154L47.9992 21.2607C47.8785 21.3211 47.7577 21.3211 47.637 21.3211Z" fill="#FFD066"/>
<path fill-rule="evenodd" clip-rule="evenodd" d="M38.3379 42.6343C38.3379 45.4721 36.0436 47.7664 33.2059 47.7664C30.3681 47.7664 28.0738 45.4721 28.0738 42.6343V39.1324H38.2776L38.3379 42.6343Z" fill="#8FC1CB"/>
<path d="M29.8247 42.0307H28.0738V41.1854H29.7644C29.9455 41.1854 30.0662 41.3062 30.0662 41.4873V41.7288C30.1266 41.91 30.0059 42.0307 29.8247 42.0307Z" fill="#4497A9"/>
<path d="M38.3067 42.0307H32.5104C32.3293 42.0307 32.2086 41.91 32.2086 41.7288V41.4873C32.2086 41.3062 32.3293 41.1854 32.5104 41.1854H38.3067V42.0307Z" fill="#4497A9"/>
<path d="M33.0256 44.8985H32.7841C32.603 44.8985 32.4822 44.7778 32.4822 44.5966V44.3551C32.4822 44.174 32.603 44.0532 32.7841 44.0532H33.0256C33.2068 44.0532 33.3275 44.174 33.3275 44.3551V44.5966C33.3275 44.7778 33.2068 44.8985 33.0256 44.8985Z" fill="#4497A9"/>
<path d="M31.3664 44.5966V44.3551C31.3664 44.174 31.2456 44.0532 30.9437 44.0532H28.2871C28.3475 44.3551 28.4682 44.5966 28.589 44.8985H31.0645C31.2456 44.8985 31.3664 44.7778 31.3664 44.5966Z" fill="#4497A9"/>
<path d="M35.6844 44.3551V44.5966C35.6844 44.7777 35.8051 44.8985 35.9863 44.8985H37.7976C37.9184 44.657 38.0888 44.3551 38.1492 44.0532H35.9863C35.8051 44.0532 35.6844 44.174 35.6844 44.3551Z" fill="#4497A9"/>
<path d="M33.0861 60.2043C17.9314 60.2043 5.61438 47.8873 5.61438 32.7326C5.61438 17.5779 17.9314 5.26086 33.0861 5.26086C48.2408 5.26086 60.5578 17.5779 60.5578 32.7326C60.5578 47.8873 48.2408 60.2043 33.0861 60.2043ZM33.0861 7.07219C18.9578 7.07219 7.4257 18.6043 7.4257 32.7326C7.4257 46.8609 18.9578 58.393 33.0861 58.393C47.2144 58.393 58.7465 46.8609 58.7465 32.7326C58.7465 18.6043 47.2144 7.07219 33.0861 7.07219Z" fill="#4497A9"/>
<path d="M10.6257 12.1439C10.3841 12.1439 10.203 12.0835 10.0219 11.9024C9.65962 11.5401 9.65962 10.9967 10.0219 10.6345C11.1087 9.48729 12.2558 8.46087 13.4634 7.49483C13.886 7.19294 14.4294 7.25332 14.7313 7.67596C15.0332 8.09861 14.9728 8.642 14.5502 8.94389C13.403 9.84955 12.3162 10.8156 11.2898 11.9024C11.1087 12.0835 10.8672 12.1439 10.6257 12.1439Z" fill="#8FC1CB"/>
<path d="M17.2672 6.83055C16.9653 6.83055 16.6634 6.64942 16.4823 6.40791C16.2408 5.98527 16.3615 5.44187 16.7842 5.13998C20.5879 2.90602 24.754 1.45696 29.1012 0.913566C29.5842 0.853188 30.0672 1.21545 30.1276 1.69847C30.188 2.18149 29.8257 2.66451 29.3427 2.72489C25.237 3.20791 21.3125 4.53621 17.6898 6.7098C17.5691 6.83055 17.4483 6.83055 17.2672 6.83055Z" fill="#8FC1CB"/>
<path d="M39.7276 3.26839C39.6672 3.26839 39.6068 3.26839 39.5465 3.26839C37.4333 2.78538 35.2597 2.54387 33.0861 2.54387C32.6031 2.54387 32.1804 2.12122 32.1804 1.6382C32.1804 1.15519 32.6031 0.732544 33.0861 0.732544C35.3804 0.732544 37.7351 0.974054 39.9691 1.45707C40.4521 1.57783 40.754 2.06085 40.6333 2.54387C40.5729 2.96651 40.1502 3.26839 39.7276 3.26839Z" fill="#8FC1CB"/>
<path d="M47.4558 6.04573C47.3351 6.04573 47.1539 5.98535 47.0332 5.92497C46.1275 5.44196 45.2219 5.01931 44.3162 4.65705C43.8332 4.47592 43.652 3.93252 43.8332 3.4495C44.0143 2.96648 44.5577 2.78535 45.0407 2.96648C45.9464 3.38912 46.9728 3.87214 47.8785 4.35516C48.3011 4.59667 48.4822 5.14007 48.2407 5.56271C48.12 5.8646 47.8181 6.04573 47.4558 6.04573Z" fill="#8FC1CB"/>
<path d="M63.939 29.7135C63.5163 29.7135 63.0937 29.3513 63.0333 28.9286C62.0069 20.5966 57.4182 12.989 50.5352 8.09843C50.1125 7.79654 50.0522 7.25315 50.2937 6.8305C50.5955 6.40786 51.1993 6.34749 51.5616 6.64937C58.8673 11.8418 63.6974 19.872 64.7842 28.6871C64.8446 29.1701 64.4823 29.6532 63.9993 29.7135C63.9993 29.7135 63.9993 29.7135 63.939 29.7135Z" fill="#8FC1CB"/>
<path d="M64.12 35.9931H64.0596C63.5766 35.9327 63.2144 35.51 63.2144 35.027C63.2747 34.2421 63.2747 33.5176 63.2747 32.7327C63.2747 32.2497 63.6974 31.827 64.1804 31.827C64.6634 31.827 65.0861 32.2497 65.0861 32.7327C65.0861 33.5176 65.0257 34.3629 64.9653 35.1478C64.9653 35.6308 64.5427 35.9931 64.12 35.9931Z" fill="#8FC1CB"/>
<path d="M58.505 51.5703C58.3238 51.5703 58.1427 51.5099 57.9616 51.3891C57.5389 51.0872 57.4785 50.5438 57.7201 50.1212C60.1955 46.6193 61.8257 42.7552 62.671 38.5891C62.7918 38.1061 63.2144 37.8042 63.7578 37.8646C64.2408 37.9853 64.5427 38.408 64.4823 38.9514C63.637 43.3589 61.8257 47.4646 59.2295 51.1476C59.0484 51.3891 58.8068 51.5703 58.505 51.5703Z" fill="#8FC1CB"/>
<path d="M49.8106 59.9024C49.5087 59.9024 49.2068 59.7816 49.0257 59.4798C48.7842 59.0571 48.9049 58.5137 49.3276 58.2118C51.4408 56.8232 53.4332 55.193 55.1842 53.3213C55.5464 52.959 56.0898 52.959 56.4521 53.2609C56.8144 53.6232 56.8144 54.1665 56.5125 54.5288C54.6408 56.5213 52.5879 58.2118 50.2936 59.6609C50.1125 59.842 49.9313 59.9024 49.8106 59.9024Z" fill="#8FC1CB"/>
<path d="M42.6861 63.2232C42.3238 63.2232 41.9615 62.9816 41.8408 62.6194C41.6597 62.1364 41.9615 61.6533 42.4446 61.4722C43.5917 61.11 44.7389 60.6269 45.8861 60.1439C46.3691 59.9024 46.8521 60.1439 47.0936 60.5666C47.3351 61.0496 47.0936 61.5326 46.671 61.7741C45.4634 62.3175 44.2559 62.8005 43.0483 63.2232C42.8672 63.2232 42.8068 63.2232 42.6861 63.2232Z" fill="#8FC1CB"/>
<path d="M33.0861 64.7327C27.7729 64.7327 22.4596 63.4044 17.8106 60.8685C17.3879 60.627 17.2068 60.0836 17.4483 59.661C17.6898 59.2383 18.2332 59.0572 18.6559 59.2987C23.0634 61.6534 28.0144 62.9214 33.0257 62.9214C34.7163 62.9214 36.4068 62.8006 38.037 62.4987C38.52 62.4384 39.0031 62.7402 39.0634 63.2233C39.1238 63.7063 38.8219 64.1893 38.3389 64.2497C36.6483 64.6119 34.837 64.7327 33.0861 64.7327Z" fill="#8FC1CB"/>
<path d="M12.1351 56.5816C11.8936 56.5816 11.7125 56.5212 11.5313 56.3401C8.21056 53.3212 5.67472 49.7589 3.86339 45.6533C3.68226 45.1703 3.86339 44.6872 4.34641 44.4457C4.82943 44.2646 5.31245 44.4457 5.55396 44.9287C7.24453 48.7929 9.72 52.174 12.7992 55.0118C13.1615 55.374 13.2219 55.9174 12.8596 56.2797C12.6181 56.5212 12.3766 56.5816 12.1351 56.5816Z" fill="#8FC1CB"/>
<path d="M3.13887 42.1514C2.71622 42.1514 2.35396 41.9099 2.29358 41.4872C2.11245 40.8231 1.93132 40.0985 1.75018 39.4344C1.62943 38.9514 1.93132 38.4684 2.47471 38.3476C2.95773 38.2268 3.44075 38.5287 3.56151 39.0721C3.68226 39.7363 3.86339 40.4004 4.04453 41.0646C4.16528 41.5476 3.92377 42.0306 3.44075 42.2117C3.32 42.1514 3.25962 42.1514 3.13887 42.1514Z" fill="#8FC1CB"/>
<path d="M1.99172 33.6383C1.5087 33.6383 1.08606 33.2156 1.08606 32.7326C1.08606 26.876 2.71625 21.0798 5.73512 16.1288C5.97663 15.7062 6.5804 15.5854 7.00305 15.8269C7.42569 16.0685 7.54644 16.6722 7.30493 17.0949C4.40682 21.7439 2.89738 27.1779 2.89738 32.7326C2.89738 33.2156 2.47474 33.6383 1.99172 33.6383Z" fill="#8FC1CB"/>
</svg>
