<svg width="33" height="32" viewBox="0 0 33 32" fill="none" xmlns="http://www.w3.org/2000/svg">
<path fill-rule="evenodd" clip-rule="evenodd" d="M7.89014 16.1606C9.31156 17.0254 10.3538 18.4514 10.7082 20.1311C10.8177 20.0068 10.932 19.886 11.051 19.7691C12.3644 18.4783 14.1352 17.7624 15.9751 17.7805H16.1518C17.9948 17.7805 19.7608 18.5162 21.0619 19.8234C21.1447 19.9066 21.2253 19.9918 21.3035 20.0787C21.6758 18.3886 22.7455 16.9604 24.1954 16.11V9.10159H7.89014V16.1606Z" fill="#E1DFDD"/>
<path d="M24.1954 7.48206H7.89014V9.10175H24.1954V7.48206V7.48206Z" fill="#605E5C"/>
<path d="M7.89014 7.48155H24.1954V5.39463C24.1954 4.74052 23.6342 4.17985 22.9795 4.211H9.10602C8.42014 4.17985 7.89014 4.74052 7.89014 5.39463V7.48155V7.48155Z" fill="#95C8D4"/>
<path fill-rule="evenodd" clip-rule="evenodd" d="M15.123 4.18036V2.93444C15.123 2.40492 15.5595 2 16.0583 2C16.5572 2 16.9936 2.40492 16.9936 2.93444V4.18036" fill="#E1DFDD"/>
<path fill-rule="evenodd" clip-rule="evenodd" d="M16.9936 4.18036V5.42628C16.9936 5.92465 16.5883 6.36072 16.0583 6.36072C15.5283 6.36072 15.123 5.9558 15.123 5.42628V4.18036" fill="#E1DFDD"/>
<path fill-rule="evenodd" clip-rule="evenodd" d="M10.3843 4.18036V2.93444C10.3843 2.43607 10.7896 2 11.3196 2C11.8496 2 12.2549 2.40492 12.2549 2.93444V4.18036" fill="#E1DFDD"/>
<path fill-rule="evenodd" clip-rule="evenodd" d="M12.2549 4.18036V5.42628C12.2549 5.92465 11.8496 6.36072 11.3196 6.36072C10.7896 6.36072 10.3843 5.9558 10.3843 5.42628V4.18036" fill="#E1DFDD"/>
<path fill-rule="evenodd" clip-rule="evenodd" d="M19.8618 4.18036V2.93444C19.8618 2.43607 20.2671 2 20.7971 2C21.2959 2 21.7324 2.40492 21.7324 2.93444V4.18036" fill="#E1DFDD"/>
<path fill-rule="evenodd" clip-rule="evenodd" d="M21.7014 4.18036V5.42628C21.7014 5.92465 21.2961 6.36072 20.7661 6.36072C20.2673 6.36072 19.8308 5.9558 19.8308 5.42628V4.18036" fill="#E1DFDD"/>
<path d="M23.1902 10.7536H8.90088V15.2916H23.1902V10.7536Z" fill="#FFD066"/>
<path d="M9.65891 10.7536H8.90186V15.2917H9.65891V10.7536Z" fill="#605E5C"/>
<path d="M23.1912 16.8457V16.4269H8.90186V16.9295C9.43796 17.4321 9.88372 18.0299 10.2121 18.6959H12.4682C13.5267 18.0898 14.7354 17.7686 15.9756 17.7808H16.1524C17.3693 17.7808 18.5528 18.1016 19.5909 18.6959H21.7895C22.1364 17.9924 22.6142 17.3651 23.1912 16.8457Z" fill="#FFD066"/>
<path d="M9.65793 17.7833V16.4265H8.90088V16.9289C9.17875 17.1894 9.43235 17.4754 9.65793 17.7833Z" fill="#605E5C"/>
<path d="M27.2981 26.103C29.8959 26.103 32.0017 23.999 32.0017 21.4036C32.0017 18.8083 29.8959 16.7043 27.2981 16.7043C24.7004 16.7043 22.5945 18.8083 22.5945 21.4036C22.5945 23.999 24.7004 26.103 27.2981 26.103Z" fill="#95C8D4"/>
<path d="M24.9941 20.8117C25.0106 22.0733 25.9739 23.0787 27.144 23.0605C28.3141 23.0406 29.2492 22.0039 29.2326 20.7422C29.2161 19.4806 28.7179 18.4934 27.0827 18.4934C25.4476 18.4934 24.9775 19.55 24.9941 20.8117Z" fill="#605E5C"/>
<path d="M27.9749 22.3991H28.6071C28.8769 22.3991 29.0953 22.1809 29.0953 21.9113C29.0953 21.6418 28.8769 21.4235 28.6071 21.4235H27.9749V22.3991Z" fill="#E1DFDD"/>
<path d="M26.2372 22.3991H25.6049C25.3352 22.3991 25.1167 22.1809 25.1167 21.9113C25.1167 21.6418 25.3352 21.4235 25.6049 21.4235H26.2372V22.3991Z" fill="#E1DFDD"/>
<path d="M26.3944 24.1553L26.3878 22.7795H27.7003V24.1338C27.7102 24.4397 27.7383 24.5488 28.0561 24.7026C28.45 24.8927 27.6705 25.3789 27.0631 25.3789C26.4557 25.3789 25.6447 24.8349 25.9641 24.7158C26.2389 24.6133 26.4242 24.529 26.3944 24.1553Z" fill="#C3F2F4"/>
<path d="M28.6601 24.9587C28.6552 24.9571 28.6519 24.9537 28.6486 24.9521C28.1934 24.6925 27.639 24.5387 27.0415 24.5387C26.4937 24.5387 25.9674 24.6396 25.5503 24.8876C25.547 24.8893 25.5437 24.8909 25.5404 24.8926C25.2177 25.0579 24.9926 25.2216 24.832 25.4035C25.5487 25.845 26.3927 26.1013 27.298 26.1013C28.0461 26.1013 28.7528 25.926 29.3801 25.6152C29.2212 25.3688 28.9895 25.1489 28.6601 24.9587Z" fill="#605E5C"/>
<path d="M28.0559 24.6875C27.7382 24.5338 27.71 24.4246 27.7001 24.1187V22.7645H26.3877L26.3943 24.1402C26.4224 24.5156 26.2387 24.5999 25.9623 24.7024C25.6429 24.8215 26.4555 25.3655 27.0613 25.3655C27.6703 25.3638 28.4515 24.8777 28.0559 24.6875Z" fill="#E1DFDD"/>
<path d="M25.676 19.2839C25.8912 18.0421 27.3344 17.8073 28.2397 18.181C29.0325 18.5084 29.4628 19.2988 29.7127 18.7316C29.7127 18.7316 30.325 19.3732 30.1562 20.1008C29.9874 20.8283 29.3221 21.073 28.7312 20.8233C28.339 20.6563 27.9732 19.9949 27.2169 19.5733C26.5896 19.2244 25.676 19.2839 25.676 19.2839Z" fill="#605E5C"/>
<path d="M25.4741 21.4136C25.4741 22.6521 26.2139 23.6575 27.1275 23.6575C28.0411 23.6575 28.7809 22.6538 28.7809 21.4136C28.7809 20.1735 28.0411 19.2839 27.1275 19.2839C26.2139 19.2839 25.4741 20.1751 25.4741 21.4136Z" fill="#E1DFDD"/>
<path d="M25.3302 19.6575C25.3302 19.6575 26.1941 19.1449 27.1276 19.1449C28.061 19.1449 28.9299 19.6559 28.9299 19.6559L29.1434 21.4119L28.7777 21.4549L28.4814 20.1619C28.4516 20.0544 28.354 19.9783 28.2414 19.9783L26.0187 19.98C25.9062 19.98 25.8085 20.0544 25.7787 20.1635L25.4742 21.4566L25.1167 21.4136L25.3302 19.6575Z" fill="#605E5C"/>
<path d="M4.7028 26.1013C7.30009 26.1013 9.40561 23.9977 9.40561 21.4028C9.40561 18.8079 7.30009 16.7043 4.7028 16.7043C2.10552 16.7043 0 18.8079 0 21.4028C0 23.9977 2.10552 26.1013 4.7028 26.1013Z" fill="#95C8D4"/>
<path d="M6.98736 24.8558C6.48165 24.5807 5.79194 24.4719 5.05717 24.4719H4.3637C3.55132 24.4719 2.79402 24.5857 2.2783 24.9109C2.16063 24.9671 2.03421 25.0534 1.89526 25.1722C1.90778 25.1822 1.92155 25.191 1.93532 25.1997C2.45354 25.5774 3.05062 25.8513 3.69903 25.9926C4.02323 26.0627 4.35995 26.1014 4.70543 26.1014C5.05091 26.1014 5.38763 26.0627 5.71183 25.9926C6.35147 25.8538 6.94104 25.5849 7.45426 25.2148C7.47429 25.1997 7.49557 25.186 7.51434 25.1722C7.31532 25.0022 7.14258 24.9034 6.98736 24.8558Z" fill="#605E5C"/>
<path d="M5.84574 24.5068C5.70304 24.4542 5.49525 24.3504 5.49525 24.1891L5.494 21.9718H3.78787V24.2191C3.78787 24.4943 3.41735 24.5405 3.35352 24.5518C3.35477 24.5555 4.10206 25.4497 4.43502 25.7811C4.55895 25.9049 4.75797 25.9062 4.88315 25.7849C5.22863 25.4497 5.86076 24.8132 5.97717 24.548C5.93336 24.533 5.88955 24.5193 5.84574 24.5068Z" fill="#E1DFDD"/>
<path d="M6.73058 19.7807C6.73058 19.5256 6.5591 19.3117 6.32502 19.2454C6.38761 19.1554 6.42391 19.0466 6.42391 18.9278C6.42391 18.6189 6.17231 18.3675 5.86313 18.3675C5.7755 18.3675 5.69289 18.39 5.61903 18.425C5.56646 18.1712 5.3399 17.9798 5.07077 17.9798C4.87675 17.9798 4.70526 18.0786 4.60387 18.23C4.50623 18.0674 4.32974 17.9586 4.1257 17.9586C3.86409 17.9586 3.64503 18.1387 3.5837 18.3813C3.52487 18.36 3.46103 18.3463 3.39469 18.3463C3.0855 18.3463 2.8339 18.5976 2.8339 18.9065C2.8339 18.9878 2.85143 19.0641 2.88272 19.1341C2.63112 19.1892 2.44336 19.413 2.44336 19.6807C2.44336 19.882 2.55101 20.0571 2.71123 20.1559C2.60859 20.2459 2.5435 20.376 2.5435 20.5236C2.5435 20.7949 2.76381 21.0151 3.03543 21.0151C3.30706 21.0151 3.52737 20.7949 3.52737 20.5236C3.52737 20.3647 3.44976 20.2234 3.3321 20.1346C3.47229 20.0333 3.56492 19.8682 3.56492 19.6819C3.56492 19.6006 3.5474 19.5243 3.5161 19.4543C3.72264 19.4093 3.88412 19.2492 3.93669 19.0453C3.99552 19.0666 4.05936 19.0804 4.1257 19.0804C4.31972 19.0804 4.49121 18.9816 4.5926 18.8302C4.69024 18.9928 4.86674 19.1016 5.07077 19.1016C5.15839 19.1016 5.24101 19.0791 5.31486 19.0441C5.35742 19.2479 5.51139 19.408 5.70916 19.4643C5.64657 19.5543 5.61027 19.6631 5.61027 19.782C5.61027 19.952 5.68788 20.1034 5.80805 20.2059C5.73545 20.2922 5.68913 20.401 5.68913 20.5236C5.68913 20.7949 5.90944 21.0151 6.18107 21.0151C6.4527 21.0151 6.673 20.7949 6.673 20.5236C6.673 20.3973 6.62419 20.2834 6.54533 20.1959C6.65798 20.0921 6.73058 19.9458 6.73058 19.7807Z" fill="#605E5C"/>
<path d="M6.08866 21.024C6.0874 21.024 6.0824 21.024 6.07864 21.024V20.3561C6.07864 19.6633 5.51661 19.1005 4.82189 19.1005H4.39755C3.70408 19.1005 3.1408 19.6633 3.1408 20.3561V21.0252C2.83913 21.0265 2.59379 21.2703 2.59253 21.573C2.59128 21.8769 2.83662 22.1257 3.1408 22.127V22.3183C3.1408 23.0112 3.70408 23.5739 4.39755 23.5739H4.82189C5.51536 23.5739 6.07864 23.0124 6.07864 22.3183V22.127C6.08615 22.127 6.09241 22.127 6.09366 22.127C6.39784 22.1257 6.64443 21.8769 6.64193 21.573C6.64193 21.2678 6.39283 21.0227 6.08866 21.024Z" fill="#E1DFDD"/>
<path d="M5.86579 19.2093C5.83575 19.0779 5.75814 18.9654 5.65299 18.8866L5.59541 18.8003H5.4765C5.42643 18.7853 5.37511 18.7753 5.32003 18.7753C5.26495 18.7753 5.21363 18.7853 5.16356 18.8003H3.62391L3.00806 19.7333L3.13073 21.0251L3.29471 20.0809C3.35604 19.782 3.62016 19.5669 3.92559 19.5669H4.81057C4.89944 19.7595 5.09346 19.8946 5.32003 19.8946C5.47524 19.8946 5.61669 19.8308 5.71808 19.7283C5.81947 19.8183 5.89458 19.9396 5.92462 20.0797L6.0886 21.0226L6.21127 19.7308L5.86579 19.2093Z" fill="#605E5C"/>
<path d="M21.6577 24.7471C21.6579 25.8315 21.3397 26.8918 20.743 27.7953C20.2675 28.5183 19.6303 29.1194 18.8823 29.5507C18.1342 29.982 17.2961 30.2314 16.435 30.2791C16.3406 30.2791 16.2462 30.2791 16.1518 30.2791C16.0484 30.2791 15.9473 30.2791 15.8462 30.2791C14.3859 30.2629 12.9919 29.6646 11.9707 28.6157C10.9495 27.5668 10.3849 26.1533 10.401 24.6861C10.4171 23.219 11.0126 21.8183 12.0565 20.7923C13.1004 19.7663 14.5073 19.199 15.9675 19.2151H16.1518C17.6121 19.2151 19.0125 19.7979 20.0451 20.8354C21.0776 21.8728 21.6577 23.2799 21.6577 24.7471Z" fill="#95C8D4"/>
<path d="M20.6383 27.9778C20.3149 28.4699 19.9142 28.9061 19.4518 29.2694C19.1494 29.0434 18.8203 28.8561 18.4719 28.7116C17.7266 28.4039 16.9271 28.2503 16.1213 28.2601C15.2946 28.26 14.477 28.4338 13.7212 28.7704C13.3746 28.9226 13.0525 29.1354 12.756 29.3714C12.2299 28.9766 11.7751 28.474 11.4199 27.9191C11.8694 25.7853 11.9053 24.1258 12.3188 22.7258C12.9234 20.7501 14.3819 19.7386 15.8583 19.6776H15.9482C16.2808 19.6718 16.6125 19.7152 16.9325 19.8063C16.9729 19.817 17.0126 19.8298 17.0517 19.8447C18.1573 20.1947 19.1371 21.1227 19.5911 22.6174C20.0451 24.1122 20.0698 25.7718 20.6383 27.9778Z" fill="#605E5C"/>
<path d="M19.4516 29.2739C18.5599 29.9872 17.4685 30.4025 16.3301 30.4615C16.2358 30.4615 16.1414 30.4615 16.047 30.4615C15.9436 30.4615 15.8425 30.4615 15.7413 30.4615C14.6595 30.4037 13.6191 30.0241 12.7524 29.3709C13.0489 29.135 13.3732 28.9161 13.7197 28.7639C14.4755 28.4273 15.2944 28.2757 16.1211 28.2758C16.9269 28.2661 17.7376 28.3953 18.4829 28.703C18.8307 28.8439 19.1487 29.0518 19.4516 29.2739Z" fill="#95C8D4"/>
<path d="M14.2828 25.1464H13.8064C13.7135 25.1476 13.6212 25.1302 13.535 25.0954C13.4487 25.0606 13.3702 25.0089 13.304 24.9434C13.2378 24.8779 13.1851 24.7998 13.149 24.7138C13.113 24.6277 13.0943 24.5353 13.094 24.4419V24.4216C13.0928 24.2333 13.1659 24.0523 13.2974 23.9181C13.4288 23.7839 13.6078 23.7076 13.7952 23.7058H14.2716C14.3328 23.7052 14.3934 23.7168 14.4501 23.7399C14.5068 23.763 14.5584 23.7972 14.6019 23.8404C14.6453 23.8837 14.6798 23.9352 14.7034 23.9919C14.7269 24.0486 14.739 24.1095 14.739 24.1709V24.6767C14.7396 24.7995 14.6921 24.9176 14.6068 25.0055C14.5214 25.0934 14.405 25.144 14.2828 25.1464V25.1464Z" fill="#E1DFDD"/>
<path d="M17.7638 25.1193H18.2493C18.3415 25.1187 18.4328 25.0998 18.5178 25.0637C18.6028 25.0276 18.6798 24.975 18.7445 24.909C18.8093 24.8429 18.8604 24.7646 18.8949 24.6787C18.9295 24.5927 18.9468 24.5007 18.9459 24.408V24.3651C18.9453 24.2726 18.9266 24.1811 18.8908 24.0959C18.855 24.0106 18.8029 23.9333 18.7374 23.8683C18.6719 23.8033 18.5942 23.7519 18.5089 23.7171C18.4236 23.6822 18.3323 23.6646 18.2403 23.6652H17.7549C17.6947 23.6651 17.6351 23.6772 17.5797 23.7008C17.5242 23.7243 17.4741 23.7588 17.4322 23.8022C17.3903 23.8456 17.3574 23.897 17.3357 23.9533C17.3139 24.0097 17.3036 24.0699 17.3054 24.1303V24.6474C17.3026 24.7091 17.3125 24.7708 17.3344 24.8286C17.3563 24.8863 17.3898 24.939 17.4328 24.9832C17.4757 25.0275 17.5273 25.0624 17.5842 25.0858C17.6412 25.1092 17.7023 25.1206 17.7638 25.1193V25.1193Z" fill="#E1DFDD"/>
<path d="M17.692 28.4407L17.6498 28.427C17.3756 28.3321 17.1706 28.2352 17.0807 28.0162L17.0672 26.1105H17.0335V25.7424L15.1683 25.7582L15.1817 27.6323C15.1817 28.0568 15.1323 28.2081 14.6806 28.4226H14.6626C14.3382 28.5069 14.0223 28.621 13.7188 28.7636C14.4735 29.0343 15.2704 29.1666 16.0717 29.1542C16.8958 29.1565 17.713 29.0033 18.4808 28.7026C18.2248 28.5954 17.9611 28.5079 17.692 28.4407Z" fill="#E1DFDD"/>
<path d="M18.4065 23.6561C18.42 25.4895 17.3413 26.9843 15.9974 26.9933C14.6536 27.0024 13.5546 25.5257 13.5411 23.6922C13.5277 21.8588 14.6064 20.5311 15.9502 20.5311C17.2941 20.5311 18.4065 21.8226 18.4065 23.6561Z" fill="#E1DFDD"/>
<path d="M14.8806 20.2535C14.9892 20.6559 15.1919 21.0265 15.4717 21.3344C15.7516 21.6423 16.1006 21.8786 16.4897 22.0237C18.4696 22.823 18.4246 23.9972 18.4246 23.9972C18.4246 23.9972 19.5303 22.613 18.1819 20.8022C16.8043 18.9461 14.8806 20.2535 14.8806 20.2535Z" fill="#605E5C"/>
</svg>
