<svg width="32" height="32" viewBox="0 0 32 32" fill="none" xmlns="http://www.w3.org/2000/svg">
<path d="M26.6089 15.4399C26.3192 15.4076 26.0246 15.3909 25.7262 15.3909C21.375 15.3909 17.8536 18.9251 17.8536 23.2774C17.8536 24.9943 18.4016 26.5839 19.3323 27.8794C17.7549 28.6616 16.0342 29.1168 14.2727 29.2145H12.8801C9.42622 29.1762 6.12894 27.7586 3.7136 25.2735C1.29827 22.7884 -0.0372711 19.4394 0.000791838 15.9632C0.0388548 12.4871 1.4474 9.1685 3.91656 6.73757C6.38573 4.30665 9.71325 2.96249 13.1671 3.0008H13.603C17.0568 3.0008 20.3692 4.38169 22.8115 6.83971C25.0969 9.13987 26.4452 12.2069 26.6089 15.4399Z" fill="#95C8D4"/>
<path d="M18.0708 25.1245C16.6073 24.6474 15.0739 24.4124 13.5308 24.4311C11.5754 24.4308 9.64158 24.8427 7.85389 25.6401C7.03422 26.0009 6.27238 26.5051 5.57111 27.0642C4.32679 26.1288 3.25105 24.9379 2.41089 23.6233C2.89807 21.3065 3.17986 19.2256 3.43631 17.3317C3.73947 15.093 4.00723 13.1157 4.53706 11.3189C5.96691 6.63784 9.41663 4.24115 12.9089 4.09671H13.1215C13.9082 4.08295 14.6926 4.1857 15.4496 4.40164C15.545 4.42709 15.6391 4.45745 15.7314 4.49259C18.3466 5.3218 20.6641 7.52055 21.7378 11.0621C22.2043 12.6008 22.4791 14.2132 22.7511 15.9734C19.8768 17.1495 17.8536 19.9784 17.8536 23.2774C17.8536 23.9134 17.9288 24.5319 18.0708 25.1245Z" fill="#605E5C"/>
<path d="M18.065 25.1004C16.6036 24.6444 15.0634 24.4501 13.5306 24.4686C11.5752 24.4683 9.6383 24.8274 7.85061 25.6249C7.03094 25.9857 6.26402 26.5041 5.56274 27.0632C7.61271 28.6107 10.0734 29.5101 12.6323 29.6471H14.0249C15.9503 29.5471 17.8189 29.0155 19.4986 28.1027C18.8233 27.2292 18.3271 26.21 18.065 25.1004Z" fill="#95C8D4"/>
<path d="M9.1825 17.0537H8.05563C7.83581 17.0565 7.61761 17.0155 7.41365 16.933C7.20968 16.8504 7.02399 16.728 6.86732 16.5728C6.71064 16.4176 6.58607 16.2327 6.50082 16.0287C6.41557 15.8248 6.37132 15.6059 6.37064 15.3846V15.3365C6.36781 14.8904 6.54078 14.4615 6.85164 14.1436C7.16251 13.8257 7.58591 13.6448 8.02906 13.6406H9.15592C9.30061 13.6392 9.44414 13.6666 9.57822 13.7214C9.7123 13.7761 9.83427 13.8571 9.93708 13.9596C10.0399 14.062 10.1215 14.184 10.1772 14.3184C10.2329 14.4528 10.2615 14.597 10.2615 14.7426V15.941C10.263 16.2319 10.1506 16.5118 9.94869 16.72C9.74677 16.9282 9.47154 17.0481 9.1825 17.0537V17.0537Z" fill="#E1DFDD"/>
<path d="M17.416 16.9895H18.5641C18.7824 16.9881 18.9982 16.9434 19.1992 16.8579C19.4002 16.7724 19.5825 16.6478 19.7356 16.4912C19.8887 16.3347 20.0096 16.1493 20.0913 15.9456C20.173 15.7419 20.214 15.524 20.2119 15.3044V15.2027C20.2105 14.9835 20.1662 14.7668 20.0816 14.5648C19.997 14.3628 19.8737 14.1796 19.7187 14.0256C19.5637 13.8716 19.3801 13.7498 19.1783 13.6673C18.9766 13.5847 18.7607 13.5429 18.5429 13.5443H17.3947C17.2524 13.5443 17.1115 13.573 16.9804 13.6287C16.8493 13.6845 16.7307 13.7662 16.6315 13.869C16.5324 13.9717 16.4547 14.0935 16.4032 14.227C16.3517 14.3606 16.3274 14.5032 16.3317 14.6464V15.8715C16.3251 16.0178 16.3484 16.1639 16.4002 16.3008C16.452 16.4377 16.5312 16.5624 16.6329 16.6672C16.7345 16.772 16.8565 16.8547 16.9912 16.9102C17.1259 16.9656 17.2705 16.9926 17.416 16.9895V16.9895Z" fill="#E1DFDD"/>
<path d="M18.063 25.092C17.7934 25.0055 17.5211 24.9278 17.2463 24.8591L17.1465 24.8265C16.498 24.6018 16.0131 24.3722 15.8005 23.8533L15.7686 19.3381H15.6889V18.4661L11.2771 18.5036L11.309 22.9439C11.309 23.9496 11.192 24.308 10.1236 24.8163H10.0811C9.31389 25.016 8.56657 25.2864 7.84863 25.6241C9.6337 26.2654 11.5187 26.5789 13.4139 26.5496C15.0611 26.5542 16.6968 26.2957 18.2601 25.7855C18.1842 25.5588 18.1183 25.3274 18.063 25.092Z" fill="url(#paint0_radial)"/>
<path d="M18.9364 13.523C18.9683 17.867 16.4169 21.4085 13.2383 21.4299C10.0597 21.4513 7.46041 17.9526 7.42852 13.6086C7.39663 9.26458 9.94803 6.11893 13.1267 6.11893C16.3053 6.11893 18.9364 9.17898 18.9364 13.523Z" fill="#E1DFDD"/>
<path d="M10.5967 5.46068C10.8535 6.41421 11.3329 7.29224 11.9948 8.02174C12.6568 8.75125 13.4822 9.31115 14.4025 9.65487C19.0854 11.5487 18.9791 14.3306 18.9791 14.3306C18.9791 14.3306 21.5943 11.0512 18.4051 6.76066C15.1467 2.36318 10.5967 5.46068 10.5967 5.46068Z" fill="#605E5C"/>
<path d="M25.7262 29.565C29.1911 29.565 32 26.75 32 23.2774C32 19.8048 29.1911 16.9898 25.7262 16.9898C22.2613 16.9898 19.4524 19.8048 19.4524 23.2774C19.4524 26.75 22.2613 29.565 25.7262 29.565Z" fill="#FFD066"/>
<path d="M30.2021 20.7615H26.7613C26.4647 20.7615 26.2867 20.9991 26.2867 21.2367C26.2867 21.5338 26.524 21.712 26.7613 21.712H29.075L25.8714 25.2171L23.8544 22.9596C23.7357 22.8408 23.6171 22.7814 23.4984 22.7814C23.3798 22.7814 23.2018 22.8408 23.1425 22.9596L21.1848 24.9795C21.0068 25.1577 21.0068 25.5141 21.1848 25.6924C21.3627 25.8706 21.7187 25.8706 21.8966 25.6924L23.4984 24.0289L25.5155 26.2865C25.6341 26.4053 25.7528 26.4647 25.8714 26.4647C25.9901 26.4647 26.168 26.4053 26.2274 26.2865L29.7275 22.4249V24.6824C29.7275 24.9795 29.9648 25.1577 30.2021 25.1577C30.4987 25.1577 30.6767 24.9201 30.6767 24.6824V21.2367C30.6767 20.9991 30.4394 20.7615 30.2021 20.7615Z" fill="#FAF9F8"/>
<defs>
<radialGradient id="paint0_radial" cx="0" cy="0" r="1" gradientUnits="userSpaceOnUse" gradientTransform="translate(13.4803 18.4661) rotate(90) scale(4.79298 6.67693)">
<stop stop-color="#979797"/>
<stop offset="1" stop-color="#E1DFDD"/>
</radialGradient>
</defs>
</svg>
