<svg width="65" height="65" viewBox="0 0 65 65" fill="none" xmlns="http://www.w3.org/2000/svg">
<path d="M55.828 24.4543C55.3901 23.3248 54.8677 22.2299 54.265 21.179C53.3836 19.6444 52.335 18.2121 51.1384 16.9082V16.9082C48.6796 14.2266 45.6451 12.1369 42.2628 10.7962C41.7992 10.6086 41.3661 10.4493 40.9029 10.2959C40.2809 10.0876 39.6647 9.90929 39.0207 9.75665C35.6568 8.92657 32.1539 8.82757 28.7485 9.46633V9.46633C27.0017 9.79167 25.2965 10.3101 23.6643 11.0122V11.0122C22.2974 11.5987 20.9881 12.3115 19.7535 13.1413C15.397 16.0238 12.126 20.2767 10.4581 25.2272C6.28877 37.6473 13.1568 51.1512 25.7654 55.3355C31.2189 57.1556 37.1416 56.9794 42.4773 54.8383C42.2934 54.3177 42.1511 53.7832 42.0519 53.24C37.0375 55.3088 31.4457 55.5022 26.3003 53.7848C14.5535 49.8793 8.17358 37.3083 12.0539 25.7534C13.3432 21.9055 15.6781 18.4924 18.7973 15.8963C20.9631 14.1022 23.446 12.73 26.1175 11.8508V11.8508C28.1669 11.1754 30.3026 10.7974 32.4594 10.7283L32.4882 10.7321C37.8664 10.5577 43.1324 12.2952 47.3507 15.6362C47.3507 15.6362 47.3507 15.6362 47.3795 15.6399C49.0645 16.9849 50.5446 18.5683 51.7728 20.3402C53.2022 22.3841 54.2748 24.6555 54.9453 27.0579C56.1269 31.2622 56.0139 35.7251 54.621 39.8642C54.4622 40.3316 54.2889 40.7971 54.0965 41.2601C54.6128 41.3491 55.1215 41.4777 55.6181 41.6448C55.6553 41.6454 55.6924 41.6502 55.7285 41.6593C55.9069 41.2286 56.0661 40.7955 56.2122 40.3508C57.9495 35.1705 57.8135 29.5447 55.828 24.4543V24.4543Z" fill="#4497A9"/>
<path d="M20.2852 9.82779C20.0961 9.75472 19.9406 9.61442 19.8486 9.43379C19.7969 9.33839 19.7649 9.23361 19.7543 9.12564C19.7438 9.01766 19.7549 8.90867 19.7872 8.80507C19.8194 8.70147 19.872 8.60537 19.9419 8.52241C20.0118 8.43946 20.0977 8.37134 20.1943 8.32206C21.4038 7.69433 22.6572 7.15523 23.9448 6.709C24.1541 6.63663 24.3834 6.64911 24.5836 6.74375C24.7838 6.8384 24.939 7.00769 25.0159 7.21537C25.0526 7.31736 25.0685 7.42565 25.0627 7.53388C25.0569 7.6421 25.0296 7.74808 24.9822 7.84558C24.9349 7.94308 24.8686 8.03014 24.7871 8.10164C24.7056 8.17313 24.6107 8.22762 24.5079 8.2619C23.2971 8.6841 22.118 9.19208 20.9795 9.78199C20.874 9.83926 20.7572 9.873 20.6374 9.8809C20.5175 9.88881 20.3974 9.87069 20.2852 9.82779V9.82779Z" fill="#8FC1CB"/>
<path d="M27.3044 7.33452C27.1674 7.28763 27.0447 7.20661 26.9477 7.0991C26.8507 6.9916 26.7828 6.86116 26.7502 6.72009C26.7272 6.61393 26.7256 6.50425 26.7455 6.39746C26.7653 6.29067 26.8062 6.1889 26.8658 6.09809C26.9254 6.00728 27.0025 5.92925 27.0926 5.86855C27.1827 5.80786 27.284 5.76571 27.3905 5.74457C31.154 4.95149 35.0404 4.94018 38.8084 5.71134C38.9146 5.73261 39.0156 5.7746 39.1056 5.83489C39.1956 5.89519 39.2728 5.97262 39.3328 6.06276C39.3929 6.15289 39.4346 6.25398 39.4556 6.36023C39.4766 6.46649 39.4764 6.57584 39.4551 6.68204C39.4339 6.78824 39.3919 6.88921 39.3316 6.97918C39.2713 7.06915 39.1938 7.14637 39.1037 7.20642C39.0136 7.26647 38.9125 7.30818 38.8062 7.32916C38.7 7.35015 38.5906 7.35 38.4844 7.32872C34.9391 6.60207 31.2822 6.61186 27.7408 7.35747C27.5958 7.38766 27.4454 7.37975 27.3044 7.33452V7.33452Z" fill="#8FC1CB"/>
<path d="M46.9621 10.5864C46.9041 10.5676 46.8485 10.5423 46.7963 10.5109C45.1599 9.54622 43.4251 8.75939 41.6213 8.1639C41.5187 8.12964 41.4239 8.07551 41.3422 8.0046C41.2606 7.93369 41.1937 7.84739 41.1454 7.75063C41.0971 7.65387 41.0683 7.54855 41.0607 7.44067C41.0531 7.33279 41.0668 7.22447 41.1011 7.12189C41.1354 7.01932 41.1895 6.92449 41.2604 6.84284C41.3313 6.76118 41.4176 6.69429 41.5144 6.64599C41.6111 6.59769 41.7165 6.56891 41.8243 6.56132C41.9322 6.55372 42.0405 6.56744 42.1431 6.60171C44.0706 7.23564 45.9248 8.07409 47.6738 9.10272C47.7675 9.15706 47.8494 9.22946 47.9149 9.31571C47.9803 9.40196 48.028 9.50035 48.0552 9.60517C48.0823 9.70999 48.0884 9.81915 48.073 9.92634C48.0577 10.0335 48.0212 10.1366 47.9657 10.2296C47.8664 10.3969 47.7117 10.5242 47.5284 10.5894C47.3451 10.6546 47.1447 10.6535 46.9621 10.5864Z" fill="#8FC1CB"/>
<path d="M52.6031 15.0057C52.4747 14.9644 52.3584 14.8922 52.2645 14.7954C51.6575 14.1741 51.009 13.5717 50.3404 13.0106C50.255 12.9418 50.1843 12.8564 50.1328 12.7595C50.0812 12.6627 50.0498 12.5564 50.0403 12.447C50.0309 12.3377 50.0438 12.2276 50.078 12.1234C50.1123 12.0191 50.1673 11.9229 50.2398 11.8405C50.3851 11.674 50.5898 11.5709 50.8101 11.5533C51.0304 11.5356 51.2488 11.6047 51.4189 11.7459C52.1336 12.3276 52.819 12.9836 53.4648 13.6442C53.5409 13.7214 53.6009 13.8129 53.6414 13.9134C53.6819 14.0139 53.7019 14.1215 53.7005 14.2299C53.699 14.3382 53.676 14.4452 53.6328 14.5446C53.5897 14.644 53.5272 14.7338 53.449 14.8089C53.3398 14.9164 53.203 14.9916 53.0538 15.0263C52.9045 15.0611 52.7486 15.0539 52.6031 15.0057Z" fill="#8FC1CB"/>
<path d="M59.7877 38.881C59.5947 38.819 59.4311 38.6884 59.3279 38.5138C59.2248 38.3392 59.1894 38.1329 59.2283 37.9339C59.9199 34.3929 59.8636 30.7464 59.0631 27.2284C58.2626 23.7104 56.7356 20.3985 54.58 17.5054C54.5146 17.4184 54.4672 17.3192 54.4408 17.2137C54.4144 17.1081 54.4095 16.9983 54.4263 16.8908C54.4431 16.7833 54.4813 16.6803 54.5387 16.5878C54.596 16.4953 54.6714 16.4153 54.7602 16.3525C54.9398 16.2236 55.1628 16.1704 55.3812 16.2045C55.5995 16.2386 55.7958 16.3571 55.9275 16.5346C58.2233 19.6108 59.8509 23.1328 60.7061 26.8748C61.5613 30.6167 61.6252 34.4961 60.8937 38.2642C60.8491 38.4804 60.7205 38.67 60.5362 38.7915C60.3519 38.9129 60.1269 38.9561 59.9106 38.9117L59.7877 38.881Z" fill="#8FC1CB"/>
<path d="M59.9676 41.648C59.7439 42.3119 59.4963 42.9727 59.2218 43.6153C59.2102 43.6427 59.1953 43.6687 59.1775 43.6925C58.746 43.319 58.2838 42.9826 57.7959 42.6866C58.009 42.1775 58.2054 41.6467 58.3813 41.123C58.4617 40.9267 58.6136 40.7683 58.8062 40.6796C58.9989 40.591 59.2181 40.5787 59.4194 40.6454C59.6208 40.712 59.7893 40.8526 59.8911 41.0386C59.9928 41.2247 60.0201 41.4425 59.9676 41.648V41.648Z" fill="#8FC1CB"/>
<path d="M43.4681 56.8914C43.773 57.3761 44.118 57.8344 44.4995 58.2615C43.1099 58.8464 41.6766 59.3215 40.2128 59.6823C40.0521 59.7203 39.8839 59.7118 39.7278 59.6579C39.5566 59.6035 39.4078 59.4945 39.3044 59.3477C39.2009 59.2008 39.1483 59.0241 39.1546 58.8446C39.161 58.665 39.2259 58.4925 39.3395 58.3533C39.4532 58.2141 39.6092 58.1159 39.7838 58.0738C41.0392 57.7704 42.2707 57.3753 43.4681 56.8914V56.8914Z" fill="#8FC1CB"/>
<path d="M32.9417 60.444C32.7544 60.3829 32.5952 60.2566 32.4931 60.0881C32.3909 59.9196 32.3527 59.7201 32.3852 59.5258C32.4177 59.3315 32.5189 59.1553 32.6703 59.0292C32.8218 58.9032 33.0134 58.8356 33.2104 58.8389C34.2839 58.8515 35.3571 58.798 36.424 58.6787C36.6436 58.6525 36.8647 58.7142 37.0389 58.8505C37.2132 58.9867 37.3264 59.1863 37.354 59.4057C37.3695 59.5158 37.3624 59.6279 37.3334 59.7352C37.3043 59.8425 37.2538 59.9428 37.1849 60.0301C37.116 60.1173 37.0301 60.1897 36.9324 60.2428C36.8348 60.296 36.7274 60.3288 36.6167 60.3393C35.4747 60.4657 34.3261 60.5224 33.1772 60.509C33.0958 60.4998 33.0163 60.4779 32.9417 60.444V60.444Z" fill="#8FC1CB"/>
<path d="M24.534 59.0361C20.1109 57.5675 16.1172 55.0328 12.9053 51.6556C12.8305 51.5769 12.7721 51.484 12.7336 51.3824C12.6951 51.2808 12.6771 51.1726 12.6809 51.064C12.6847 50.9554 12.71 50.8487 12.7555 50.75C12.8009 50.6514 12.8656 50.5627 12.9457 50.4893C13.1121 50.3448 13.3286 50.2713 13.5487 50.2845C13.7687 50.2978 13.9748 50.3969 14.1226 50.5604C18.1792 54.8103 23.5182 57.6118 29.3203 58.535C29.536 58.5691 29.7292 58.6874 29.8576 58.864C29.986 59.0406 30.039 59.2609 30.005 59.4765C29.9709 59.6922 29.8526 59.8855 29.676 60.0139C29.4995 60.1423 29.2791 60.1953 29.0635 60.1612C27.5258 59.9089 26.0111 59.5326 24.534 59.0361V59.0361Z" fill="#8FC1CB"/>
<path d="M9.35339 46.6063C9.15534 46.5411 8.98872 46.4044 8.88611 46.2229C5.70471 40.6393 4.59043 34.1139 5.73865 27.7909C6.88686 21.468 10.2243 15.751 15.1657 11.6424C15.3359 11.5011 15.5549 11.4324 15.7753 11.4512C15.9957 11.47 16.1999 11.5748 16.3437 11.7429C16.4149 11.8246 16.469 11.9197 16.5029 12.0227C16.5368 12.1256 16.5498 12.2342 16.5412 12.3423C16.5325 12.4503 16.5023 12.5555 16.4524 12.6516C16.4025 12.7478 16.3338 12.8331 16.2505 12.9023C11.6017 16.7659 8.46166 22.143 7.38134 28.0904C6.30102 34.0379 7.34937 40.1758 10.3425 45.4275C10.3966 45.5215 10.4313 45.6255 10.4446 45.7332C10.4579 45.8409 10.4495 45.9501 10.4199 46.0546C10.3903 46.159 10.3401 46.2564 10.2723 46.3411C10.2045 46.4258 10.1204 46.4961 10.025 46.5478C9.9233 46.6038 9.81103 46.638 9.69537 46.648C9.57972 46.6581 9.46323 46.6439 9.35339 46.6063Z" fill="#8FC1CB"/>
<path d="M24.889 27.1209C27.5997 25.3638 28.074 21.7964 28.074 21.7964L29.1631 24.7781C29.3519 25.1896 30.1312 25.2912 30.5814 25.1799C31.3587 25.0854 32.1411 25.0385 32.9242 25.0395C34.2243 25.0359 35.5216 25.1624 36.7966 25.4171C41.487 26.3852 44.8608 29.1152 44.8608 33.2199C44.9258 34.4749 44.6919 35.7275 44.1783 36.8744C43.9552 37.3085 43.6476 37.6935 43.2735 38.0069C42.8995 38.3203 42.4665 38.5557 42.0001 38.6993C41.5499 38.8542 40.9787 39.2947 41.0949 39.7787L41.8065 42.8718C41.8065 42.8718 38.8731 39.3915 34.9765 40.2773C26.7478 42.1506 20.3099 38.1088 20.9876 33.2199C21.1514 31.9795 21.5857 30.7903 22.2599 29.7364C22.9341 28.6825 23.8316 27.7896 24.889 27.1209Z" fill="#FFD066"/>
<path d="M28.8342 34.3141C29.3902 34.3141 29.841 33.8655 29.841 33.3122C29.841 32.7588 29.3902 32.3102 28.8342 32.3102C28.2781 32.3102 27.8273 32.7588 27.8273 33.3122C27.8273 33.8655 28.2781 34.3141 28.8342 34.3141Z" fill="white"/>
<path d="M32.8662 33.3123C33.4222 33.3123 33.873 32.8637 33.873 32.3103C33.873 31.7569 33.4222 31.3083 32.8662 31.3083C32.3101 31.3083 31.8594 31.7569 31.8594 32.3103C31.8594 32.8637 32.3101 33.3123 32.8662 33.3123Z" fill="white"/>
<path d="M36.8982 34.0626C37.4543 34.0626 37.9051 33.614 37.9051 33.0606C37.9051 32.5072 37.4543 32.0586 36.8982 32.0586C36.3422 32.0586 35.8914 32.5072 35.8914 33.0606C35.8914 33.614 36.3422 34.0626 36.8982 34.0626Z" fill="white"/>
<path d="M24.7337 15.3168C24.7346 18.3675 23.5664 21.3026 21.4695 23.5183C19.3726 25.7341 16.5063 27.0621 13.4602 27.2292C13.2521 27.2292 13.0488 27.2292 12.8407 27.2292C10.3508 27.2269 7.92416 26.4453 5.9009 24.9942C3.87765 23.5431 2.35926 21.4952 1.55862 19.1376C0.757987 16.78 0.715256 14.2309 1.43642 11.8478C2.15758 9.46467 3.60648 7.367 5.57996 5.84889C6.06131 5.47185 6.57291 5.1351 7.10955 4.84207C7.30317 4.73558 7.50163 4.63393 7.70493 4.53712C7.83078 4.47419 7.96147 4.41127 8.09217 4.35802C8.38271 4.22766 8.68001 4.11294 8.98281 4.01435C9.20548 3.93206 9.43298 3.8643 9.66532 3.80137C9.89766 3.73844 10.1494 3.66584 10.4253 3.61743C10.7012 3.56903 11.0642 3.49642 11.3934 3.4577C11.7098 3.41929 12.0282 3.39828 12.3469 3.39477C12.4161 3.38729 12.4859 3.38729 12.5551 3.39477C12.6389 3.38994 12.723 3.38994 12.8068 3.39477C13.2923 3.39423 13.7774 3.42495 14.2589 3.48674C14.4332 3.48674 14.6026 3.5303 14.772 3.56419C15.0082 3.59677 15.2425 3.64201 15.4739 3.69972C15.6191 3.7336 15.7692 3.76749 15.9095 3.81105H15.9628C16.1951 3.87398 16.4226 3.94174 16.6453 4.02403C17.1785 4.20129 17.6965 4.42144 18.1942 4.68233C20.161 5.67689 21.8135 7.19736 22.9679 9.07475C24.1224 10.9521 24.7336 13.1129 24.7337 15.3168V15.3168Z" fill="#8FC1CB"/>
<path d="M7.38052 10.6845C8.26538 10.6845 8.98271 9.96717 8.98271 9.0823C8.98271 8.19743 8.26538 7.4801 7.38052 7.4801C6.49565 7.4801 5.77832 8.19743 5.77832 9.0823C5.77832 9.96717 6.49565 10.6845 7.38052 10.6845Z" fill="#4497A9"/>
<path d="M10.9287 4.38226C11.9366 4.38226 12.7536 3.56524 12.7536 2.5574C12.7536 1.54956 11.9366 0.732544 10.9287 0.732544C9.9209 0.732544 9.10388 1.54956 9.10388 2.5574C9.10388 3.56524 9.9209 4.38226 10.9287 4.38226Z" fill="#4497A9"/>
<path d="M8.55203 5.6455C9.55987 5.6455 10.3769 4.82849 10.3769 3.82065C10.3769 2.8128 9.55987 1.99579 8.55203 1.99579C7.54419 1.99579 6.72717 2.8128 6.72717 3.82065C6.72717 4.82849 7.54419 5.6455 8.55203 5.6455Z" fill="#4497A9"/>
<path d="M7.2839 8.16271C8.29174 8.16271 9.10876 7.3457 9.10876 6.33786C9.10876 5.33002 8.29174 4.513 7.2839 4.513C6.27606 4.513 5.45905 5.33002 5.45905 6.33786C5.45905 7.3457 6.27606 8.16271 7.2839 8.16271Z" fill="#4497A9"/>
<path d="M17.6134 10.6845C18.4983 10.6845 19.2156 9.96717 19.2156 9.0823C19.2156 8.19743 18.4983 7.4801 17.6134 7.4801C16.7286 7.4801 16.0112 8.19743 16.0112 9.0823C16.0112 9.96717 16.7286 10.6845 17.6134 10.6845Z" fill="#4497A9"/>
<path d="M14.0025 4.45495C15.0103 4.45495 15.8273 3.63793 15.8273 2.63009C15.8273 1.62225 15.0103 0.805237 14.0025 0.805237C12.9946 0.805237 12.1776 1.62225 12.1776 2.63009C12.1776 3.63793 12.9946 4.45495 14.0025 4.45495Z" fill="#4497A9"/>
<path d="M16.5823 5.71343C17.5901 5.71343 18.4072 4.89642 18.4072 3.88858C18.4072 2.88074 17.5901 2.06372 16.5823 2.06372C15.5745 2.06372 14.7574 2.88074 14.7574 3.88858C14.7574 4.89642 15.5745 5.71343 16.5823 5.71343Z" fill="#4497A9"/>
<path d="M17.5794 8.49176C18.5873 8.49176 19.4043 7.67474 19.4043 6.6669C19.4043 5.65906 18.5873 4.84204 17.5794 4.84204C16.5716 4.84204 15.7546 5.65906 15.7546 6.6669C15.7546 7.67474 16.5716 8.49176 17.5794 8.49176Z" fill="#4497A9"/>
<path d="M12.1194 2.42679H12.8891C13.5798 2.42616 14.2639 2.56166 14.9022 2.82555C15.5406 3.08944 16.1206 3.47655 16.6093 3.96475C17.0979 4.45294 17.4856 5.03266 17.75 5.67075C18.0145 6.30885 18.1507 6.99281 18.1507 7.68354V11.2026C18.1507 11.5002 18.0919 11.795 17.9777 12.0699C17.8635 12.3447 17.6961 12.5944 17.4852 12.8044C17.2742 13.0144 17.0239 13.1807 16.7485 13.2938C16.4731 13.4068 16.1781 13.4643 15.8805 13.4631H9.10382C8.5043 13.4631 7.92933 13.2249 7.50541 12.801C7.08148 12.3771 6.84332 11.8021 6.84332 11.2026V7.68354C6.84332 6.99158 6.97993 6.30643 7.24531 5.66739C7.5107 5.02835 7.89964 4.44799 8.38983 3.9596C8.88001 3.47121 9.4618 3.0844 10.1018 2.82137C10.7418 2.55833 11.4275 2.42424 12.1194 2.42679V2.42679Z" fill="#4497A9"/>
<path d="M15.3965 13.6711H9.85414V20.9899C9.85414 21.7789 8.46008 22.1032 8.46008 22.1032H16.9696C16.9696 22.1032 15.3965 21.687 15.3965 20.8931V13.6711Z" fill="#C9F3FB"/>
<path d="M15.3965 13.6711H9.85414V20.9899C9.85414 21.7789 8.46008 22.1032 8.46008 22.1032H16.9696C16.9696 22.1032 15.3965 21.687 15.3965 20.8931V13.6711Z" fill="url(#paint0_radial)"/>
<path d="M5.93811 12.4998C5.94065 12.9728 6.12965 13.4256 6.46407 13.76C6.79848 14.0944 7.25132 14.2834 7.72424 14.286H8.72622C9.62655 14.1892 9.5249 13.434 9.52974 12.5095C9.53458 11.585 9.65559 10.8347 8.76978 10.7234C8.69718 10.7234 7.80169 10.7234 7.74361 10.7234C7.50841 10.7215 7.27514 10.7659 7.05712 10.8541C6.83909 10.9424 6.64058 11.0727 6.47293 11.2377C6.30527 11.4026 6.17175 11.599 6.07998 11.8156C5.98822 12.0321 5.94001 12.2646 5.93811 12.4998V12.4998Z" fill="#C9F3FB"/>
<path d="M13.1893 4.45013H11.8146C9.55567 4.45013 7.72443 6.28138 7.72443 8.54033V14.9249C7.72443 17.1839 9.55567 19.0151 11.8146 19.0151H13.1893C15.4483 19.0151 17.2795 17.1839 17.2795 14.9249V8.54033C17.2795 6.28138 15.4483 4.45013 13.1893 4.45013Z" fill="#C9F3FB"/>
<path d="M19.1187 12.4998C19.1162 12.9727 18.9272 13.4256 18.5928 13.76C18.2584 14.0944 17.8055 14.2834 17.3326 14.2859H16.3306C15.4303 14.1891 15.5319 13.434 15.5271 12.5095C15.5223 11.585 15.4012 10.8347 16.2871 10.7234C16.3597 10.7234 17.2551 10.7234 17.3132 10.7234C17.7879 10.7208 18.2442 10.9062 18.5825 11.2391C18.9208 11.5719 19.1136 12.0252 19.1187 12.4998V12.4998Z" fill="#C9F3FB"/>
<path d="M15.711 3.47717H9.29251L7.2934 6.51215L7.69031 10.7185L8.22277 7.64482C8.32172 7.17254 8.58024 6.74872 8.95488 6.4446C9.32952 6.14048 9.79743 5.97461 10.28 5.97486H14.7284C15.2103 5.97481 15.6775 6.14087 16.0514 6.44504C16.4252 6.74922 16.6828 7.17293 16.7807 7.64482L17.3325 10.7185L17.7343 6.51215L15.711 3.47717Z" fill="#4497A9"/>
<path d="M14.8156 7.04461C15.8235 7.04461 16.6405 6.22759 16.6405 5.21975C16.6405 4.21191 15.8235 3.3949 14.8156 3.3949C13.8078 3.3949 12.9908 4.21191 12.9908 5.21975C12.9908 6.22759 13.8078 7.04461 14.8156 7.04461Z" fill="#4497A9"/>
<path d="M21.2823 23.7103C19.2015 25.8128 16.4137 27.0669 13.4601 27.2294C13.252 27.2294 13.0487 27.2294 12.8405 27.2294C11.2635 27.2311 9.70172 26.9196 8.24595 26.313C6.79017 25.7064 5.46933 24.8168 4.36005 23.6958C4.5458 23.5658 4.74166 23.4509 4.94574 23.3521C6.04359 22.7067 7.2543 22.2763 8.51317 22.0839H8.55673C9.60704 21.9034 10.6712 21.816 11.7369 21.8225H13.9442C14.9488 21.8192 15.9516 21.9067 16.9404 22.0839C18.0902 22.2769 19.2026 22.6494 20.2368 23.1876C20.6083 23.3113 20.9604 23.4873 21.2823 23.7103Z" fill="#4497A9"/>
<path d="M16.9695 22.0887C16.592 22.9552 14.7381 24.3154 13.4118 25.2689C13.2054 25.4331 12.9495 25.5224 12.6857 25.5224C12.422 25.5224 12.1661 25.4331 11.9597 25.2689C10.7447 24.3008 8.87144 22.9407 8.46484 22.1129C9.85406 21.5708 12.8213 21.4111 12.8213 21.4111C14.226 21.4713 15.6186 21.6988 16.9695 22.0887V22.0887Z" fill="#C9F3FB"/>
<path d="M64.9252 52.8733C64.9256 55.1979 64.2403 57.4709 62.9551 59.4079C61.931 60.9577 60.5584 62.2464 58.9472 63.171C57.336 64.0955 55.5308 64.6302 53.676 64.7324C53.4727 64.7324 53.2694 64.7324 53.0661 64.7324C52.8434 64.7324 52.6256 64.7324 52.4078 64.7324C49.2625 64.6978 46.2599 63.4151 44.0604 61.1666C41.8608 58.918 40.6446 55.8878 40.6793 52.7426C40.714 49.5974 41.9967 46.5947 44.2452 44.3952C46.4937 42.1957 49.5239 40.9795 52.6691 41.0141H53.0661C56.2113 41.0141 59.2277 42.2636 61.4517 44.4876C63.6758 46.7116 64.9252 49.7281 64.9252 52.8733V52.8733Z" fill="#8FC1CB"/>
<path d="M62.955 59.4082C62.2584 60.4632 61.3953 61.3982 60.3993 62.1769C59.748 61.6925 59.0391 61.2909 58.2888 60.9813C56.6833 60.3217 54.9613 59.9924 53.2257 60.0133C51.445 60.013 49.684 60.3857 48.0561 61.1072C47.3096 61.4336 46.3756 62.081 45.737 62.5869C44.6039 61.7405 43.6131 60.9173 42.848 59.7278C43.8161 55.1535 44.145 51.1504 45.0356 48.1493C46.3377 43.9139 49.4792 41.7453 52.6594 41.6146H52.853C53.5694 41.6022 54.2837 41.6951 54.9731 41.8905C55.06 41.9136 55.1456 41.941 55.2297 41.9728C57.6112 42.7231 59.7216 44.7125 60.6994 47.9169C61.6772 51.1213 61.7304 54.6791 62.955 59.4082Z" fill="#4497A9"/>
<path d="M60.3993 62.1864C58.4786 63.7157 56.1277 64.606 53.6759 64.7325C53.4726 64.7325 53.2693 64.7325 53.066 64.7325C52.8433 64.7325 52.6255 64.7325 52.4077 64.7325C50.0774 64.6085 47.5541 63.9372 45.6873 62.5371C46.3259 62.0312 47.2937 61.4042 48.0402 61.0777C49.6681 60.3562 51.445 60.0467 53.2257 60.047C54.9613 60.0261 56.6833 60.3554 58.2888 61.015C59.0379 61.317 59.7468 61.7105 60.3993 62.1864Z" fill="#8FC1CB"/>
<path d="M49.2663 53.338H48.2401C48.0399 53.3406 47.8412 53.3034 47.6555 53.2287C47.4697 53.1541 47.3006 53.0433 47.158 52.9029C47.0153 52.7624 46.9018 52.5951 46.8242 52.4106C46.7466 52.2261 46.7063 52.028 46.7057 51.8278V51.7842C46.7031 51.3807 46.8606 50.9925 47.1437 50.7049C47.4268 50.4173 47.8123 50.2536 48.2159 50.2498H49.2421C49.3738 50.2485 49.5045 50.2734 49.6266 50.3229C49.7487 50.3724 49.8598 50.4457 49.9534 50.5384C50.047 50.6311 50.1214 50.7415 50.1721 50.8631C50.2228 50.9847 50.2489 51.1152 50.2489 51.2469V52.3312C50.2502 52.5944 50.1479 52.8476 49.964 53.0361C49.7801 53.2245 49.5295 53.3329 49.2663 53.338V53.338Z" fill="#C9F3FB"/>
<path d="M56.7642 53.2799H57.8098C58.0085 53.2786 58.205 53.2382 58.3881 53.1608C58.5711 53.0834 58.7371 52.9707 58.8765 52.829C59.0159 52.6874 59.126 52.5196 59.2005 52.3353C59.2749 52.151 59.3122 51.9539 59.3103 51.7551V51.6632C59.309 51.4649 59.2687 51.2687 59.1916 51.086C59.1146 50.9032 59.0023 50.7375 58.8611 50.5981C58.72 50.4588 58.5528 50.3486 58.3691 50.2739C58.1854 50.1992 57.9887 50.1614 57.7904 50.1626H56.7448C56.6152 50.1626 56.4869 50.1885 56.3675 50.239C56.2481 50.2895 56.1401 50.3634 56.0498 50.4564C55.9595 50.5494 55.8888 50.6595 55.8419 50.7804C55.795 50.9012 55.7729 51.0302 55.7767 51.1598V52.2682C55.7708 52.4006 55.792 52.5328 55.8392 52.6567C55.8864 52.7805 55.9585 52.8934 56.0511 52.9882C56.1436 53.0831 56.2547 53.1579 56.3774 53.2081C56.5 53.2582 56.6317 53.2827 56.7642 53.2799V53.2799Z" fill="#C9F3FB"/>
<path d="M56.6092 60.4005L56.5269 60.3569C55.9363 60.1536 55.4862 59.96 55.2925 59.4904L55.2635 55.4051H55.1909V54.6161L51.1733 54.65L51.2024 58.6676C51.2024 59.5776 51.0959 59.9019 50.1229 60.3617H50.0842C49.3855 60.5424 48.705 60.7871 48.0512 61.0926C49.6768 61.6729 51.3933 61.9566 53.1192 61.93C54.8942 61.935 56.6544 61.6066 58.3082 60.9619C57.7568 60.7322 57.1888 60.5445 56.6092 60.4005Z" fill="url(#paint1_radial)"/>
<path d="M58.1485 50.1433C58.1775 54.0738 55.8541 57.2782 52.9595 57.2975C50.0649 57.3169 47.6979 54.1512 47.6688 50.2207C47.6398 46.2903 49.9632 43.4441 52.8578 43.4441C55.7524 43.4441 58.1485 46.2128 58.1485 50.1433Z" fill="#C9F3FB"/>
<path d="M50.5538 42.8486C50.7877 43.7114 51.2242 44.5058 51.8271 45.1659C52.4299 45.826 53.1816 46.3326 54.0196 46.6436C58.2841 48.3571 58.1873 50.8741 58.1873 50.8741C58.1873 50.8741 60.5688 47.9069 57.6645 44.0249C54.6973 40.046 50.5538 42.8486 50.5538 42.8486Z" fill="#4497A9"/>
<defs>
<radialGradient id="paint0_radial" cx="0" cy="0" r="1" gradientUnits="userSpaceOnUse" gradientTransform="translate(12.0275 13.4969) scale(7.92869)">
<stop offset="0.03" stop-color="#73D3E9"/>
<stop offset="0.92" stop-color="#C9F3FB"/>
</radialGradient>
<radialGradient id="paint1_radial" cx="0" cy="0" r="1" gradientUnits="userSpaceOnUse" gradientTransform="translate(1278.99 828.539) scale(161.957 115.514)">
<stop offset="0.03" stop-color="#73D3E9"/>
<stop offset="0.92" stop-color="#C9F3FB"/>
</radialGradient>
</defs>
</svg>
