<svg width="65" height="65" viewBox="0 0 65 65" fill="none" xmlns="http://www.w3.org/2000/svg">
<path d="M27.1221 59.762C12.3077 56.6729 2.74014 42.3578 5.90362 27.892C9.0671 13.4262 23.7272 4.08376 38.5415 7.17281C53.3559 10.2619 62.9235 24.577 59.76 39.0428C56.5965 53.5086 41.9365 62.851 27.1221 59.762ZM38.1557 9.05637C24.3444 6.19335 10.7646 14.8578 7.83257 28.2688C4.90056 41.6797 13.6966 55.0154 27.5079 57.8031C41.3192 60.5908 54.899 52.077 57.7539 38.5907C60.6087 25.1044 51.8899 11.9194 38.1557 9.05637Z" fill="#4497A9"/>
<path d="M63.5416 36.9326C63.0786 36.8573 62.6929 36.4052 62.77 35.8778C63.4644 27.7408 60.6096 19.6038 54.8999 13.5764C54.5141 13.1997 54.5912 12.5969 54.977 12.2202C55.3628 11.8435 55.9801 11.9188 56.3659 12.2955C62.4614 18.6997 65.4705 27.3641 64.699 36.1038C64.6218 36.6312 64.1589 37.0079 63.6188 37.0079C63.6188 36.9326 63.6188 36.9326 63.5416 36.9326Z" fill="#8FC1CB"/>
<path d="M62.3835 42.9577C61.7662 42.807 61.4576 42.2796 61.6119 41.7522C61.8434 41.0741 61.9977 40.3207 62.152 39.5673C62.2292 39.0399 62.7693 38.7385 63.3094 38.8138C63.8495 38.8892 64.1581 39.4166 64.081 39.944C63.9267 40.6974 63.6952 41.5262 63.4637 42.2796C63.3866 42.7316 62.9236 43.033 62.3835 42.9577Z" fill="#8FC1CB"/>
<path d="M53.7437 56.5953C53.5122 56.5199 53.3579 56.4446 53.2036 56.2939C52.8178 55.9172 52.8178 55.3144 53.2807 54.9377C56.3671 52.15 58.8361 48.7596 60.4564 44.9925C60.6879 44.4651 61.228 44.2391 61.7681 44.4651C62.3082 44.6911 62.5397 45.2185 62.3082 45.7459C60.5336 49.8144 57.9874 53.3555 54.6696 56.3692C54.3609 56.5953 54.0523 56.6706 53.7437 56.5953Z" fill="#8FC1CB"/>
<path d="M43.48 62.7756C43.1713 62.7003 42.8627 62.4743 42.7855 62.1729C42.6312 61.6455 42.8627 61.1181 43.4028 60.8921C45.7947 60.0633 48.0323 58.8578 50.1156 57.4263C50.5785 57.1249 51.1958 57.2003 51.5044 57.6523C51.8131 58.1044 51.7359 58.7071 51.273 59.0085C49.0354 60.5154 46.6435 61.7208 44.0972 62.7003C43.8658 62.851 43.6343 62.851 43.48 62.7756Z" fill="#8FC1CB"/>
<path d="M35.8432 64.5841C35.4574 64.5088 35.1488 64.1321 35.0716 63.7554C34.9945 63.228 35.3803 62.7759 35.9204 62.7006C37.1549 62.5499 38.3123 62.3992 39.5468 62.0978C40.0869 61.9471 40.627 62.3238 40.7042 62.8512C40.8585 63.3786 40.4727 63.906 39.9326 63.9814C38.6981 64.2828 37.3864 64.5088 36.0747 64.5841C36.0747 64.5841 35.9975 64.5841 35.8432 64.5841Z" fill="#8FC1CB"/>
<path d="M26.1975 64.0545C20.9508 62.9997 16.0898 60.5887 12.0776 57.2737C11.6918 56.8969 11.6146 56.2942 12.0004 55.9175C12.3862 55.5408 13.0035 55.4654 13.3892 55.8422C17.17 59.0065 21.7223 61.1915 26.6605 62.2463C28.2808 62.623 29.9783 62.7737 31.5986 62.849C32.1387 62.849 32.6016 63.3011 32.5245 63.8285C32.4473 64.3559 31.9844 64.7326 31.4443 64.7326C29.6696 64.6572 27.895 64.4312 26.1975 64.0545Z" fill="#8FC1CB"/>
<path d="M7.37026 52.0763C7.13879 52.0009 6.90731 51.9256 6.75299 51.6996C1.5834 44.542 -0.345555 35.5009 1.50624 26.9872C2.74077 21.3365 5.51846 16.2132 9.53069 11.994C9.91648 11.6173 10.5337 11.6173 10.9195 11.9186C11.3053 12.2953 11.3053 12.8981 10.9967 13.2748C7.21594 17.268 4.59257 22.0899 3.43519 27.3639C1.66056 35.4255 3.51235 43.8639 8.37332 50.5694C8.68195 51.0215 8.60479 51.6242 8.14184 51.9256C7.91037 52.0763 7.67889 52.0763 7.37026 52.0763Z" fill="#8FC1CB"/>
<path d="M50.1955 47.6709C50.1955 49.1778 49.0381 50.3833 47.6493 50.3833H18.1749C16.786 50.3833 15.6286 49.1778 15.6286 47.6709V47.2189H50.2726L50.1955 47.6709Z" fill="#8FC1CB"/>
<path d="M53.2036 43.9781C53.2036 45.7864 51.8147 47.2179 50.1944 47.2179H15.4732C13.7758 47.2179 12.4641 45.7864 12.4641 43.9781V17.8342H53.2036V43.9781Z" fill="#D5E9EE"/>
<path d="M53.2036 13.9161H12.4641V17.8339H53.2036V13.9161Z" fill="#4497A9"/>
<path d="M12.4641 13.9186H53.2036V8.87066C53.2036 7.28846 51.8147 5.93229 50.1944 6.00764H15.4732C13.7758 5.93229 12.4641 7.28846 12.4641 8.87066V13.9186Z" fill="#8FC1CB"/>
<path fill-rule="evenodd" clip-rule="evenodd" d="M30.5195 6.00653V2.99282C30.5195 1.78734 31.5226 0.732544 32.8343 0.732544C34.146 0.732544 35.149 1.712 35.149 2.99282V6.00653" fill="#FFD066"/>
<path fill-rule="evenodd" clip-rule="evenodd" d="M35.1496 6.00775V9.02146C35.1496 10.2269 34.1465 11.2817 32.8349 11.2817C31.5232 11.2817 30.5201 10.3023 30.5201 9.02146V6.00775" fill="#4497A9"/>
<path fill-rule="evenodd" clip-rule="evenodd" d="M18.7142 6.00653V2.99282C18.7142 1.78734 19.7173 0.732544 21.0289 0.732544C22.3406 0.732544 23.3437 1.712 23.3437 2.99282V6.00653" fill="#FFD066"/>
<path fill-rule="evenodd" clip-rule="evenodd" d="M23.3437 6.00775V9.02146C23.3437 10.2269 22.3406 11.2817 21.0289 11.2817C19.7173 11.2817 18.7142 10.3023 18.7142 9.02146V6.00775" fill="#4497A9"/>
<path fill-rule="evenodd" clip-rule="evenodd" d="M42.3228 6.00653V2.99282C42.3228 1.78734 43.3259 0.732544 44.6376 0.732544C45.9493 0.732544 46.9523 1.712 46.9523 2.99282V6.00653" fill="#FFD066"/>
<path fill-rule="evenodd" clip-rule="evenodd" d="M46.9523 6.00775V9.02146C46.9523 10.2269 45.9492 11.2817 44.6376 11.2817C43.3259 11.2817 42.3228 10.3023 42.3228 9.02146V6.00775" fill="#4497A9"/>
<path d="M32.9095 42.3963C38.5771 42.3963 43.1715 37.9437 43.1715 32.4511C43.1715 26.9585 38.5771 22.5059 32.9095 22.5059C27.2419 22.5059 22.6475 26.9585 22.6475 32.4511C22.6475 37.9437 27.2419 42.3963 32.9095 42.3963Z" fill="#4497A9"/>
<path d="M31.8285 26.9532C31.8285 26.6519 31.5199 26.4258 31.2884 26.5012L29.7452 26.6519C29.4366 26.6519 29.2051 26.9532 29.2823 27.1793L29.9767 35.0149C30.0539 35.4669 30.2853 35.8437 30.6711 36.0697L35.1463 38.33C35.3778 38.4807 35.7636 38.33 35.8407 38.1039L36.5352 36.7478C36.6895 36.5217 36.5352 36.145 36.3037 36.0697L32.4458 34.1108L31.8285 26.9532Z" fill="#D5E9EE"/>
</svg>
