<svg width="32" height="32" viewBox="0 0 32 32" fill="none" xmlns="http://www.w3.org/2000/svg">
<path d="M17.2784 29.6222C24.6299 29.6222 30.5895 23.6627 30.5895 16.3111C30.5895 8.95959 24.6299 3 17.2784 3C9.92688 3 3.96729 8.95959 3.96729 16.3111C3.96729 23.6627 9.92688 29.6222 17.2784 29.6222Z" fill="#95C8D4"/>
<path d="M19.9602 17.6291H14.0753C12.9876 17.6291 12.1089 16.7469 12.1089 15.6627V12.6016C12.1089 10.0754 14.1568 8.02754 16.6829 8.02754H17.3561C19.8823 8.02754 21.9301 6.295 21.9301 12.6016V15.6627C21.9266 16.7469 21.0479 17.6291 19.9602 17.6291Z" fill="#605E5C"/>
<path d="M25.2287 26.9863C24.6725 26.508 24.1835 26.2245 23.7442 26.0899C22.3128 25.3104 20.3606 25.0022 18.2808 25.0022H16.318C14.0186 25.0022 11.8751 25.3246 10.4153 26.2458C10.0823 26.4052 9.72445 26.6461 9.32764 26.9863C11.5456 28.6409 14.2985 29.6223 17.2782 29.6223C20.2578 29.6223 23.0108 28.6409 25.2287 26.9863Z" fill="#605E5C"/>
<path d="M20.9027 25.1083C20.9027 25.4449 19.1029 27.1102 17.2782 27.1598C15.4004 27.2129 13.4978 25.6363 13.4978 25.1473C14.706 24.6761 17.3065 24.5344 17.3065 24.5344C17.3065 24.5344 19.489 24.6052 20.9027 25.1083Z" fill="#E1DFDD"/>
<path d="M19.5422 17.81H14.7095V24.1768C14.7095 24.8677 13.4978 25.1476 13.4978 25.1476L20.9027 25.1086C20.9027 25.1086 19.5457 24.7862 19.5457 24.0953L19.5422 17.81Z" fill="#C9F3FB"/>
<path d="M19.5422 17.81H14.7095V24.1768C14.7095 24.8677 13.4978 25.1476 13.4978 25.1476L20.9027 25.1086C20.9027 25.1086 19.5457 24.7862 19.5457 24.0953L19.5422 17.81Z" fill="#E1DFDD"/>
<path d="M11.3049 16.7894C11.3014 17.6504 11.9958 18.3554 12.8568 18.359C12.917 18.359 13.6717 18.3554 13.7284 18.3519C14.5114 18.2704 14.4228 17.6114 14.4263 16.8071C14.4299 16.01 14.5362 15.351 13.7673 15.2517C13.7036 15.2447 12.9383 15.2376 12.8745 15.2376C12.0135 15.234 11.3085 15.9285 11.3049 16.7894Z" fill="#E1DFDD"/>
<path d="M17.615 22.4617H16.4139C14.451 22.4617 12.8567 20.8709 12.8567 18.9045V13.3455C12.8567 11.3827 14.4475 9.78832 16.4139 9.78832H17.615C19.5778 9.78832 21.1722 11.3791 21.1722 13.3455V18.9045C21.1722 20.8673 19.5813 22.4617 17.615 22.4617Z" fill="#E1DFDD"/>
<path d="M22.7699 16.7894C22.7734 17.6504 22.079 18.3554 21.218 18.359C21.1578 18.359 20.4031 18.3554 20.3464 18.3519C19.5634 18.2704 19.652 17.6114 19.6485 16.8071C19.6449 16.01 19.5386 15.351 20.3075 15.2517C20.3712 15.2447 21.1365 15.2376 21.2003 15.2376C22.0613 15.234 22.7663 15.9285 22.7699 16.7894Z" fill="#E1DFDD"/>
<path d="M19.8082 8.93801H14.2244L12.4812 11.5811L12.8284 15.241L13.2926 12.5661C13.4662 11.7193 14.2137 11.1099 15.0782 11.1099H18.9472C19.8117 11.1099 20.5593 11.7193 20.7329 12.5661L21.197 15.2375L21.5442 11.5776L19.8082 8.93801Z" fill="#605E5C"/>
<path d="M15.486 12.0418C16.3626 12.0418 17.0732 11.3312 17.0732 10.4546C17.0732 9.57794 16.3626 8.86729 15.486 8.86729C14.6093 8.86729 13.8987 9.57794 13.8987 10.4546C13.8987 11.3312 14.6093 12.0418 15.486 12.0418Z" fill="#605E5C"/>
<path d="M8.14471 3.18733C7.5324 3.05422 6.86684 3.00098 6.14804 3.00098C2.76702 3.00098 0.39764 4.57169 0.0249284 7.20729C-0.321161 9.7364 2.98 11.8129 7.21293 10.8545C9.2096 10.402 10.7271 12.1857 10.7271 12.1857L10.3544 10.5883C10.4076 10.3221 10.594 10.1091 10.8336 10.0292C11.366 9.84289 11.7121 9.52343 11.9517 9.09747C12.2179 8.61827 12.2978 7.97934 12.2978 7.20729C12.2712 5.10413 10.5407 3.69316 8.14471 3.18733Z" fill="#FFD066"/>
<path d="M4.04513 7.7656C4.32449 7.7656 4.55095 7.53914 4.55095 7.25978C4.55095 6.98042 4.32449 6.75396 4.04513 6.75396C3.76577 6.75396 3.53931 6.98042 3.53931 7.25978C3.53931 7.53914 3.76577 7.7656 4.04513 7.7656Z" fill="#605E5C"/>
<path d="M6.1213 7.25988C6.40066 7.25988 6.62712 7.03341 6.62712 6.75405C6.62712 6.4747 6.40066 6.24823 6.1213 6.24823C5.84194 6.24823 5.61548 6.4747 5.61548 6.75405C5.61548 7.03341 5.84194 7.25988 6.1213 7.25988Z" fill="#605E5C"/>
<path d="M8.1982 7.63244C8.47756 7.63244 8.70403 7.40598 8.70403 7.12662C8.70403 6.84726 8.47756 6.6208 8.1982 6.6208C7.91885 6.6208 7.69238 6.84726 7.69238 7.12662C7.69238 7.40598 7.91885 7.63244 8.1982 7.63244Z" fill="#605E5C"/>
<path d="M31.9995 21.5136C31.9995 22.1525 31.7066 22.7382 31.2008 23.2174C31.0677 23.3505 30.9612 23.5103 30.9079 23.6966L30.5619 24.9479L30.4021 24.2291C30.3489 24.0161 30.1359 23.9096 29.9495 23.9895C29.4171 24.2024 28.8314 24.3089 28.1925 24.3089C26.0893 24.3089 24.3855 23.0577 24.3855 21.5136C24.3855 19.9695 26.0893 18.7183 28.1925 18.7183C30.2956 18.7183 31.9995 19.9695 31.9995 21.5136Z" fill="#605E5C"/>
<path d="M26.9415 19.8098H26.8617C26.8617 19.8098 26.8351 19.8098 26.8084 19.8364C26.7286 19.863 26.6753 19.9163 26.6487 19.9695C26.5955 20.0227 26.5955 20.1026 26.5955 20.1825C26.5955 20.2623 26.5955 20.3156 26.5955 20.3955C26.6221 21.0344 26.8617 21.6201 27.2876 22.1525C27.5272 22.4454 27.7935 22.685 28.1129 22.8713C28.4324 23.0577 28.7519 23.1908 29.1512 23.2707C29.1778 23.2707 29.2311 23.2707 29.2843 23.2707C29.3375 23.2707 29.3908 23.244 29.444 23.244C29.4973 23.2174 29.5505 23.1908 29.5771 23.1375C29.5771 23.1375 29.5771 23.1375 29.6038 23.1109V23.0843L29.6304 23.0044L29.657 22.9246C29.6836 22.8713 29.6836 22.8181 29.6836 22.7648C29.6836 22.7382 29.6836 22.685 29.6836 22.6583C29.6836 22.5519 29.6304 22.472 29.5505 22.4187L29.3908 22.2856C29.2577 22.1791 29.1246 22.0727 28.9648 22.046C28.8583 22.0194 28.7785 21.9928 28.6986 21.9928C28.6187 21.9928 28.5389 22.0194 28.459 22.046L28.1662 22.1791L27.4474 21.3006L27.6603 21.0876C27.7668 20.9811 27.8201 20.8214 27.8201 20.6617C27.8201 20.5818 27.7935 20.5019 27.7668 20.4221C27.7402 20.3422 27.7136 20.2623 27.6603 20.1825L27.5539 20.0227C27.5006 19.9163 27.3941 19.863 27.261 19.8364C27.2078 19.8364 27.1279 19.8098 27.048 19.8364L26.9415 19.8098Z" fill="#FFD066"/>
<path d="M26.7434 6.69042C26.9805 6.89082 27.3967 6.98548 27.6894 6.84428L31.7595 4.53933C31.6757 4.39085 31.5003 4.30838 31.3164 4.27846L24.2742 3.13307C24.2216 3.12452 24.1428 3.1117 24.086 3.12943C23.9503 3.13434 23.8324 3.19608 23.7364 3.28836C23.7542 3.34519 23.7676 3.42829 23.8336 3.51995L26.7434 6.69042Z" fill="#605E5C"/>
<path d="M31.7599 4.53952L27.6898 6.84447C27.3708 6.9814 26.981 6.89101 26.7438 6.69061L23.8646 3.49814C23.7986 3.40648 23.7546 3.34538 23.7674 3.26655C23.6452 3.35456 23.567 3.50368 23.5414 3.66134L22.9558 7.26128L22.8319 8.02331C22.7721 8.39119 23.0141 8.72725 23.382 8.78708L24.5119 8.97086L30.4242 9.93247C30.7921 9.99231 31.1281 9.75027 31.188 9.38239L31.3974 8.09482L31.7906 5.67734L31.8974 5.02042C31.9011 4.83221 31.8479 4.66173 31.7599 4.53952Z" fill="#E1DFDD"/>
</svg>
