<svg width="65" height="65" viewBox="0 0 65 65" fill="none" xmlns="http://www.w3.org/2000/svg">
<path d="M52.5876 6.33609V4.80249H55.4336C56.5543 4.80249 57.4686 3.88823 57.4686 2.76752C57.4686 1.64681 56.5543 0.732544 55.4336 0.732544H45.6569C44.5362 0.732544 43.6219 1.64681 43.6219 2.76752C43.6219 3.88823 44.5362 4.80249 45.6569 4.80249H48.5029V6.39508C44.1528 7.0734 40.481 9.74246 38.4018 13.429C37.2516 15.4787 36.588 17.8381 36.588 20.345C36.588 28.1457 42.9141 34.4718 50.7148 34.4718C51.9093 34.4718 53.0595 34.3243 54.1654 34.0442C60.2998 32.5106 64.8564 26.9512 64.8564 20.3302C64.8564 13.1783 59.5035 7.25035 52.5876 6.33609ZM52.8678 30.623C52.1747 30.7705 51.4521 30.8442 50.7148 30.8442C44.9786 30.8442 40.304 26.1402 40.304 20.345C40.304 18.6491 40.7169 17.0566 41.4247 15.6409C43.1353 12.2051 46.6596 9.84568 50.7148 9.84568C56.4511 9.84568 61.1256 14.5497 61.1256 20.345C61.1404 25.4029 57.5865 29.6203 52.8678 30.623Z" fill="#8FC1CB"/>
<path d="M50.7266 11.5869C47.2023 11.5869 44.1646 13.7251 42.8079 16.7923C42.3361 17.8835 42.0559 19.078 42.0559 20.3461C42.0559 25.1829 45.9489 29.1054 50.7266 29.1054C51.1985 29.1054 51.6556 29.0611 52.1128 28.9874C56.2269 28.3091 59.3974 24.6963 59.3974 20.3461C59.3974 15.5241 55.5044 11.5869 50.7266 11.5869ZM53.7348 22.676L53.263 23.6345C53.1745 23.8115 52.9533 23.8852 52.7763 23.7967L49.7239 22.2042C49.4437 22.0567 49.2668 21.7913 49.2373 21.4816L48.7654 15.9518C48.7506 15.7453 48.8981 15.5684 49.0898 15.5536L50.1368 15.4652C50.3432 15.4504 50.5202 15.5979 50.5349 15.8043L50.9626 20.8328L53.5874 22.2042C53.7496 22.2779 53.8233 22.4991 53.7348 22.676Z" fill="#FFD066"/>
<path d="M50.1516 25.1477C45.5547 9.68524 26.524 9.54058 21.5413 25.3566C18.7446 34.2451 21.3967 41.2209 11.6241 63.2733H60.6474C50.9231 42.9246 52.8841 34.3255 50.1516 25.1477Z" fill="#4497A9"/>
<path d="M50.7137 30.1721C50.7755 20.3719 44.198 12.3855 36.0223 12.3338C27.8466 12.2822 21.1687 20.185 21.1068 29.9852C21.0449 39.7854 27.6225 47.7718 35.7982 47.8235C43.9739 47.8751 50.6518 39.9723 50.7137 30.1721Z" fill="#4497A9"/>
<path d="M30.7833 34.8247H25.1094C24.7558 34.8247 24.4826 34.5354 24.4826 34.1979V29.826C24.4826 29.4723 24.7719 29.1991 25.1094 29.1991H30.7833C30.9601 29.1991 31.1047 29.3438 31.1047 29.5206V34.5033C31.1047 34.6801 30.9601 34.8247 30.7833 34.8247Z" fill="#D5E9EE"/>
<path d="M41.7462 34.8247H47.42C47.7737 34.8247 48.0469 34.5354 48.0469 34.1979V29.826C48.0469 29.4723 47.7576 29.1991 47.42 29.1991H41.7462C41.5694 29.1991 41.4247 29.3438 41.4247 29.5206V34.5033C41.4087 34.6801 41.5533 34.8247 41.7462 34.8247Z" fill="#D5E9EE"/>
<path d="M40.2825 44.6936C40.2825 42.2826 40.3307 37.2356 40.3307 37.2356H32.9853C32.9853 37.2356 32.9853 42.2665 32.9853 44.5811C32.9853 46.8956 30.9922 47.9082 30.9922 47.9082C30.9922 47.9082 33.2424 50.3996 36.6339 50.3996C40.0253 50.3996 42.6935 47.9886 42.6935 47.9886C42.6935 47.9886 40.2825 47.1045 40.2825 44.6936Z" fill="url(#paint0_radial)"/>
<path d="M45.8273 29.1018C45.8273 36.2866 41.5518 42.1051 36.2638 42.1051C30.9757 42.1051 26.7002 36.2866 26.7002 29.1018C26.7002 21.9171 30.9757 16.7737 36.2638 16.7737C41.5518 16.7737 45.8273 21.9332 45.8273 29.1018Z" fill="#D5E9EE"/>
<path d="M31.7155 14.9737C31.7155 14.9737 31.0404 19.7153 37.2768 21.7566C45.9081 24.5694 45.8438 29.1824 45.8438 29.1824C45.8438 29.1824 50.28 21.9816 43.4811 16.3078C37.7751 11.518 31.7155 14.9737 31.7155 14.9737Z" fill="#4497A9"/>
<path d="M47.6644 36.3836C47.6801 35.3362 46.8724 34.4749 45.8606 34.4598C44.8487 34.4447 44.0157 35.2815 44.0001 36.3289C43.9845 37.3763 44.7921 38.2376 45.804 38.2527C46.8158 38.2678 47.6488 37.431 47.6644 36.3836Z" fill="#8FC1CB"/>
<path d="M28.5209 36.4087C28.5365 35.3613 27.7289 34.5 26.717 34.4849C25.7052 34.4698 24.8722 35.3067 24.8566 36.354C24.8409 37.4014 25.6486 38.2627 26.6604 38.2778C27.6723 38.2929 28.5053 37.4561 28.5209 36.4087Z" fill="#8FC1CB"/>
<path d="M46.6331 49.8375C45.4437 49.082 44.1096 48.4552 42.6791 48.0051C42.5023 48.1659 39.9145 50.4 36.6356 50.4C33.2441 50.4 30.9939 47.9087 30.9939 47.9087C30.9939 47.9087 30.9939 47.9087 31.01 47.9087C29.7563 48.2784 28.5668 48.7766 27.4899 49.3874H27.4739C22.1054 52.0074 17.4603 57.1668 14.0527 63.9176H59.2024C55.9556 57.5365 51.6319 52.5699 46.6331 49.8375Z" fill="#8FC1CB"/>
<path d="M64.1909 64.6355H1.51899C1.15452 64.6355 0.856323 64.3122 0.856323 63.9171C0.856323 63.5219 1.15452 63.1986 1.51899 63.1986H64.1909C64.5554 63.1986 64.8536 63.5219 64.8536 63.9171C64.8536 64.3122 64.5719 64.6355 64.1909 64.6355Z" fill="#4497A9"/>
<path d="M2.92085 63.1986C1.78539 63.1986 0.856384 62.2696 0.856384 61.1342V48.364V48.3345H13.833V61.1342C13.833 62.2696 12.904 63.1986 11.7686 63.1986H2.92085Z" fill="#8FC1CB"/>
<path d="M4.43925 50.9285C4.35077 50.9728 4.27704 51.0318 4.20331 51.1055L3.28905 52.0197C3.09735 52.2114 2.99412 52.4916 3.03836 52.7718L3.39227 55.6473C3.45125 56.1487 3.90839 56.5026 4.40976 56.4436L6.42998 56.1929C6.93135 56.1339 7.28526 55.6768 7.22627 55.1754L6.87237 52.2999C6.84287 52.0197 6.68067 51.7838 6.44473 51.6363L5.33876 50.958C5.25029 50.899 5.16181 50.8695 5.05859 50.8548L4.74892 48.3627L4.73417 48.2595C4.71942 48.0973 4.57196 47.9793 4.39501 47.994C4.2328 48.0088 4.11483 48.171 4.12958 48.3332L4.43925 50.9285ZM5.01435 53.111C4.55722 53.1699 4.15907 52.8455 4.10009 52.4031C4.05585 52.064 4.2328 51.7396 4.52772 51.5774L4.6162 52.3294C4.63095 52.4769 4.76366 52.5948 4.91113 52.5948C4.92587 52.5948 4.94062 52.5948 4.95536 52.5948C5.11757 52.5801 5.23554 52.4179 5.22079 52.2557L5.13232 51.5036C5.44199 51.5921 5.69267 51.8575 5.73691 52.1967C5.78115 52.6391 5.45673 53.052 5.01435 53.111Z" fill="#D5E9EE"/>
<path d="M8.18367 45.8405C8.28689 46.0912 8.2574 46.3714 8.09519 46.5926C7.94773 46.799 8.00672 47.0792 8.21316 47.2267C8.28689 47.2856 8.37537 47.3004 8.47859 47.3004C8.62606 47.3004 8.75877 47.2267 8.84725 47.1087C9.17166 46.6368 9.24539 46.0322 9.0242 45.5014L8.84725 45.0737C8.75877 44.8673 8.77352 44.6166 8.87674 44.4101L9.00946 44.1595C9.12742 43.9383 9.03895 43.6581 8.81776 43.5549C8.59656 43.4369 8.31639 43.5254 8.21316 43.7466L8.08045 43.9973C7.85926 44.4396 7.82976 44.9558 8.02146 45.4129L8.18367 45.8405Z" fill="#8FC1CB"/>
<path d="M6.73893 45.1335L6.45875 44.4552C6.29654 44.057 6.31129 43.5999 6.51774 43.2018L6.72418 42.8036C6.84215 42.5824 6.75368 42.3023 6.53248 42.199C6.31129 42.0811 6.03111 42.1695 5.92789 42.3907L5.72144 42.7889C5.41177 43.4082 5.36753 44.1455 5.63297 44.7944L5.91314 45.4727C6.00162 45.7086 6.04586 45.9593 6.01637 46.1952C5.98688 46.4459 5.8984 46.6819 5.75094 46.8883C5.73619 46.9178 5.72144 46.9326 5.7067 46.962C5.60347 47.198 5.7067 47.4634 5.94264 47.5666C6.00162 47.5961 6.06061 47.6109 6.11959 47.6109C6.26705 47.6109 6.41451 47.5371 6.50299 47.4044C6.54723 47.3307 6.59147 47.257 6.63571 47.1832C6.96012 46.5492 7.00436 45.8118 6.73893 45.1335Z" fill="#8FC1CB"/>
<defs>
<radialGradient id="paint0_radial" cx="0" cy="0" r="1" gradientUnits="userSpaceOnUse" gradientTransform="translate(36.7436 38.2149) scale(7.99661)">
<stop stop-color="#4497A9"/>
<stop offset="1" stop-color="#D5E9EE"/>
</radialGradient>
</defs>
</svg>
