<svg width="32" height="32" viewBox="0 0 32 32" fill="none" xmlns="http://www.w3.org/2000/svg">
<path d="M13.225 29.76C11.9225 29.2502 11 27.9826 11 26.4995C11 25.3963 11.5104 24.4123 12.3079 23.7708L12.3052 23.7613L21.0691 15.184C22.2508 14.1752 23 12.6747 23 10.9993C23 10.4026 22.905 9.8282 22.7293 9.29026C23.2849 9.10144 23.8805 8.99902 24.4999 8.99902C27.5375 8.99902 29.9999 11.4615 29.9999 14.499C29.9999 16.077 29.3354 17.4998 28.2709 18.5027L18.8113 28.1328C17.8482 29.2742 16.4072 29.9993 14.7968 29.9993C14.2492 29.9993 13.7212 29.9155 13.225 29.76Z" fill="url(#paint0_linear_5762_352596)"/>
<path d="M13.7268 2.00734C15.5541 2.1242 17 3.6433 17 5.50011C17 6.52751 16.5573 7.45152 15.8523 8.0918L14.8727 9.0793L14.7888 9.1692L6.31519 17.6109L6.31916 17.6153C5.50011 18.5058 5 19.6942 5 20.9994C5 22.4031 5.57847 23.6718 6.51004 24.5799L11.2558 28.6672C11.7644 29.1211 12.3621 29.4775 13.0192 29.7069L13.2388 29.7656C11.929 29.2594 11 27.988 11 26.4997C11 25.3965 11.5104 24.4125 12.308 23.771L12.3052 23.7616L21.0691 15.1843C22.2508 14.1755 23 12.675 23 10.9995C23 9.49761 22.398 8.13632 21.4222 7.14377L17.7559 3.69938C16.8395 2.6575 15.4965 2 14 2C13.9083 2 13.8172 2.00247 13.7268 2.00734Z" fill="url(#paint1_linear_5762_352596)"/>
<path d="M13.6404 2.00684C12.3614 2.00684 11.5542 2.47918 10.67 3.26916L10.6471 3.28977C10.5782 3.35208 10.511 3.41628 10.4457 3.48229L5.14474 8.55098L5.14683 8.55353L2.40114 11.2992C1.86629 11.8341 1.86629 12.7012 2.40114 13.2361L2.67014 13.5051C4.13848 14.9734 5.99883 15.8108 7.91429 16.0172L14.7888 9.16864L14.8727 9.07874L15.8523 8.09124C16.5573 7.45096 17 6.52695 17 5.49955C17 3.67325 15.6012 2.17365 13.8165 2.01367C13.8165 2.01367 13.7461 2.007 13.6404 2.00684Z" fill="url(#paint2_linear_5762_352596)"/>
<defs>
<linearGradient id="paint0_linear_5762_352596" x1="10.4712" y1="19.9192" x2="28.0041" y2="21.0185" gradientUnits="userSpaceOnUse">
<stop stop-color="#053F4B"/>
<stop offset="0.492513" stop-color="#0A6B78"/>
<stop offset="1" stop-color="#149FB3"/>
</linearGradient>
<linearGradient id="paint1_linear_5762_352596" x1="20.515" y1="19.6842" x2="10.8587" y2="9.97533" gradientUnits="userSpaceOnUse">
<stop stop-color="#0F848B"/>
<stop offset="0.631953" stop-color="#18CBCB"/>
<stop offset="0.872018" stop-color="#18DAE7"/>
</linearGradient>
<linearGradient id="paint2_linear_5762_352596" x1="17.5319" y1="12.4943" x2="4.20976" y2="6.21695" gradientUnits="userSpaceOnUse">
<stop offset="0.0206196" stop-color="#084C54"/>
<stop offset="0.517509" stop-color="#12888F"/>
<stop offset="1" stop-color="#1CC2D8"/>
</linearGradient>
</defs>
</svg>
