<?xml version="1.0" encoding="utf-8"?>
<!-- Generator: Adobe Illustrator 26.0.3, SVG Export Plug-In . SVG Version: 6.00 Build 0)  -->
<svg version="1.1" id="Layer_1" xmlns="http://www.w3.org/2000/svg" xmlns:xlink="http://www.w3.org/1999/xlink" x="0px" y="0px"
	 viewBox="0 0 16 16" style="enable-background:new 0 0 16 16;" xml:space="preserve">
<style type="text/css">
	.st0{fill:#0A828A;}
	.st1{fill:#0A5768;}
	.st2{fill:#18D3DA;}
</style>
<path class="st0" d="M3.7,8l4.6-4.5C8.7,3.3,9,2.6,9,2c0-1.1-0.9-2-2-2l0,0C6.1,0,5.4,0.4,4.8,0.9C3.3,2.4,1.7,3.8,0.2,5.3
	c-0.3,0.3-0.3,0.8,0,1.1C1.2,7.4,2.4,8,3.7,8z"/>
<path class="st1" d="M7,16c0.9,0,1.7-0.4,2.2-1l5.9-5.9c0,0,0,0,0.1-0.1l0,0C15.7,8.5,16,7.8,16,7c0-1.7-1.3-3-3-3
	c-0.4,0-0.8,0.1-1.1,0.2C12,4.6,12,4.7,12,5c0,0.9-0.4,1.7-1,2.3l-5.3,5.2l0,0C5.3,12.9,5,13.4,5,14C5,15.1,5.7,16,7,16L7,16z"/>
<path class="st2" d="M7,0c0.8,0,1.5,0.3,2,0.8l0,0l2.2,2.3C11.7,3.6,12,4.3,12,5c0,0.9-0.4,1.7-1,2.3l-5.3,5.2l0,0
	C5.3,12.9,5,13.4,5,14c0,1.1,0.9,2,1.9,2c-0.9,0-1.6-0.4-2.1-1l-2.1-2C2.3,12.5,2,11.7,2,11c0-0.8,0.3-1.5,0.8-2.1l0,0l5.5-5.4
	C8.7,3.1,9,2.6,9,2C9,0.9,8,0.1,7,0z"/>
<path class="st1" d="M6.6,15"/>
</svg>
