<svg width="256" height="256" viewBox="0 0 256 256" fill="none" xmlns="http://www.w3.org/2000/svg">
<path d="M54.8864 128.248L102.539 81.0707L131.646 51.7678C137.407 46.3011 141 38.5711 141 30.002C141 18.8466 134.911 9.11332 125.876 3.94407C120.099 1.40771 113.714 0 107 0C93.4842 0 81.3009 5.70506 72.7269 14.8384L22.7298 65.9664L3.66753 85.0286C-1.22251 89.9187 -1.22251 97.847 3.66753 102.737L6.12704 105.197C19.7594 118.829 37.0876 126.513 54.8864 128.248Z" fill="url(#paint0_linear_4731_98673)"/>
<path d="M190.681 71.2194C196.054 69.1402 201.894 68 208 68C234.51 68 256 89.4903 256 116C256 129.701 250.26 142.061 241.053 150.807L153.558 239.107C144.753 249.444 131.642 256 117 256C114.846 256 112.725 255.858 110.645 255.583L110.632 255.537C96.0697 252.995 85 240.29 85 225C85 215.92 88.9033 207.753 95.1235 202.083L178.357 120.515C187.386 111.787 193 99.5493 193 86C193 80.8428 192.187 75.8755 190.681 71.2194Z" fill="url(#paint1_linear_4731_98673)"/>
<path d="M125.876 3.94336C134.911 9.11256 141 18.846 141 30.0015C141 38.5706 137.407 46.3006 131.646 51.7673L45.8133 137.23L45.8527 137.283C36.7011 146.023 31 158.345 31 172C31 185.197 36.3262 197.151 44.9464 205.828L44.948 205.826L73.108 232.63L84.7664 243.653V243.567C91.8066 249.951 100.751 254.274 110.645 255.583L110.632 255.536C96.0697 252.994 85 240.29 85 224.999C85 215.92 88.9033 207.752 95.1235 202.083L178.357 120.515C187.386 111.787 193 99.5488 193 85.9995C193 73.7078 188.38 62.4952 180.781 54.0036L147.499 20.4711L147.5 20.4995L139.855 13.3911C135.831 9.4559 131.102 6.2378 125.876 3.94336Z" fill="url(#paint2_linear_4731_98673)"/>
<defs>
<linearGradient id="paint0_linear_4731_98673" x1="146" y1="96.0001" x2="22" y2="36.0001" gradientUnits="userSpaceOnUse">
<stop offset="0.0206196" stop-color="#084C54"/>
<stop offset="0.517509" stop-color="#12888F"/>
<stop offset="1" stop-color="#1CC2D8"/>
</linearGradient>
<linearGradient id="paint1_linear_4731_98673" x1="80.2409" y1="165.76" x2="238.031" y2="175.707" gradientUnits="userSpaceOnUse">
<stop stop-color="#053F4B"/>
<stop offset="0.492513" stop-color="#0A6B78"/>
<stop offset="1" stop-color="#149FB3"/>
</linearGradient>
<linearGradient id="paint2_linear_4731_98673" x1="170.635" y1="164.215" x2="83.119" y2="76.8342" gradientUnits="userSpaceOnUse">
<stop stop-color="#0F848B"/>
<stop offset="0.631953" stop-color="#18CBCB"/>
<stop offset="0.872018" stop-color="#18DAE7"/>
</linearGradient>
</defs>
</svg>
