<svg width="512" height="512" viewBox="0 0 512 512" fill="none" xmlns="http://www.w3.org/2000/svg">
<path d="M109.773 256.496L263.296 103.531C274.816 92.5978 282 77.1396 282 60.0037C282 36.3326 268.292 15.863 248.382 6.09993C238.008 2.15817 226.756 0 215 0C185.853 0 159.804 13.266 142.562 34.0894L47.0871 130.305L7.33507 170.057C-2.44502 179.837 -2.44502 195.694 7.33506 205.474L12.2541 210.393C39.5188 237.658 74.1753 253.026 109.773 256.496Z" fill="url(#paint0_linear_4731_98672)"/>
<path d="M169.533 487.135C183.614 499.903 201.502 508.549 221.291 511.166L221.265 511.074C192.14 505.989 170 480.58 170 450C170 431.841 177.807 415.505 190.247 404.166L190.142 403.802L356.72 241.025C374.775 223.57 386 199.096 386 172C386 162.014 384.476 152.384 381.646 143.33C392.313 139.241 403.895 137 416 137C469.02 137 512 179.981 512 233C512 259.709 501.092 283.871 483.488 301.274L306.95 478.408C289.343 498.97 263.193 512 234 512C209.187 512 186.572 502.586 169.533 487.135Z" fill="url(#paint1_linear_4731_98672)"/>
<path d="M248.381 6.09961C268.292 15.8624 282 36.3323 282 60.0039C282 77.1399 274.816 92.598 263.296 103.531L91.6266 274.462L91.7054 274.566C73.4022 292.047 62 316.692 62 344C62 370.395 72.6525 394.302 89.8929 411.657L89.896 411.654L146.212 465.256L169.533 487.308V487.135C183.613 499.903 201.501 508.549 221.291 511.166L221.264 511.074C192.139 505.99 170 480.58 170 450C170 431.841 177.807 415.506 190.247 404.166L356.72 241.025C374.774 223.57 386 199.096 386 172C386 147.416 376.759 124.99 361.561 108.007L357.263 103.676L281.588 27.4328L281.389 27.4536C272.098 18.184 260.877 10.8477 248.381 6.09961Z" fill="url(#paint2_linear_4731_98672)"/>
<defs>
<linearGradient id="paint0_linear_4731_98672" x1="292" y1="192" x2="44" y2="72" gradientUnits="userSpaceOnUse">
<stop offset="0.0206196" stop-color="#084C54"/>
<stop offset="0.517509" stop-color="#12888F"/>
<stop offset="1" stop-color="#1CC2D8"/>
</linearGradient>
<linearGradient id="paint1_linear_4731_98672" x1="160.002" y1="332" x2="476.002" y2="352" gradientUnits="userSpaceOnUse">
<stop stop-color="#053F4B"/>
<stop offset="0.492513" stop-color="#0A6B78"/>
<stop offset="1" stop-color="#149FB3"/>
</linearGradient>
<linearGradient id="paint2_linear_4731_98672" x1="341.27" y1="327.782" x2="165.618" y2="153.022" gradientUnits="userSpaceOnUse">
<stop stop-color="#0F848B"/>
<stop offset="0.631953" stop-color="#18CBCB"/>
<stop offset="0.872018" stop-color="#18DAE7"/>
</linearGradient>
</defs>
</svg>
