<svg width="32" height="32" viewBox="0 0 32 32" fill="none" xmlns="http://www.w3.org/2000/svg">
<path fill-rule="evenodd" clip-rule="evenodd" d="M16.4976 22.5969C15.6642 22.514 14.8033 22.4749 13.9289 22.4749H11.027C7.6277 22.4749 4.47713 22.9567 2.32148 24.3171C0.856735 22.2198 0 19.669 0 16.9198C0 9.89091 5.55496 4.19411 12.4365 4.19411C18.3894 4.19411 23.3497 8.45724 24.5799 14.158C20.1085 14.3927 16.5484 18.0728 16.4976 22.5969Z" fill="#95C8D4"/>
<path fill-rule="evenodd" clip-rule="evenodd" d="M16.4975 22.5911C15.6669 22.5116 14.8064 22.4751 13.9282 22.4751H10.9987C7.62708 22.4751 4.4765 22.9569 2.29321 24.3173C4.58705 27.5484 8.26272 29.6457 12.4358 29.6457C14.6027 29.6457 16.6354 29.0802 18.4063 28.0842C17.2125 26.6137 16.4969 24.7381 16.4969 22.6951C16.4969 22.6604 16.4971 22.6257 16.4975 22.5911Z" fill="#605E5C"/>
<path d="M16.497 22.539C16.497 22.6056 16.497 22.7176 16.497 22.9062C15.9586 23.5974 14.2071 24.9788 12.4365 25.026C10.2532 25.0827 8.01465 23.2121 8.01465 22.6169C9.42412 22.0501 12.4641 21.88 12.4641 21.88C12.4641 21.88 14.8388 21.9438 16.497 22.539Z" fill="url(#paint0_radial)"/>
<path d="M15.0896 15.5309H9.42411V21.4828C9.42411 22.3047 8.01465 22.6448 8.01465 22.6448L16.3639 22.7176C16.3639 22.7176 16.497 22.5844 16.497 22.539C16.091 22.4098 15.0896 22.0247 15.0896 21.3694V15.5309Z" fill="url(#paint1_radial)"/>
<path fill-rule="evenodd" clip-rule="evenodd" d="M7.26837 8.02048V11.3391C6.24543 11.3942 5.47192 12.2051 5.47192 13.2074C5.47192 14.2186 6.25902 15.0627 7.26837 15.0778V15.7296C7.26837 18.082 9.12002 19.9809 11.4139 19.9809H12.8233C15.1172 19.9809 16.9688 18.082 16.9688 15.7296V15.078H17.0248C18.0474 15.078 18.8489 14.2278 18.8489 13.2074C18.8489 12.1871 18.0198 11.3652 16.9972 11.3368C16.9914 11.3368 16.9818 11.337 16.9688 11.3372V8.02048H7.26837Z" fill="#E1DFDD"/>
<path d="M17.0246 11.3646V10.656C17.0246 10.656 10.1983 9.94746 10.1983 7.85013C10.1983 10.4293 7.29648 10.656 7.29648 10.656V11.3646C6.77139 11.3646 6.41211 11.5913 6.41211 11.5913V8.502C6.43975 5.52606 8.56776 4.39237 11.3591 3.93889C11.5525 3.91055 11.6907 3.74049 11.6907 3.5421V3.3437C11.6907 3.11696 11.8842 2.97525 12.0776 3.00359C15.5046 3.68381 17.8537 5.44103 17.8537 9.15387L17.9089 11.563C17.9089 11.563 17.5773 11.3646 17.0246 11.3646Z" fill="#605E5C"/>
<path d="M25.0594 29.6905C28.8926 29.6905 32 26.5787 32 22.7401C32 18.9016 28.8926 15.7898 25.0594 15.7898C21.2263 15.7898 18.1189 18.9016 18.1189 22.7401C18.1189 26.5787 21.2263 29.6905 25.0594 29.6905Z" fill="#FFD066"/>
<path fill-rule="evenodd" clip-rule="evenodd" d="M29.7981 19.3003C30.2138 19.717 30.2131 20.3918 29.7964 20.8076L23.9692 26.6213L20.2972 22.9577C19.8805 22.5419 19.8797 21.8671 20.2954 21.4504C20.7112 21.0337 21.386 21.0329 21.8027 21.4486L23.9692 23.6102L28.2908 19.2986C28.7075 18.8828 29.3823 18.8836 29.7981 19.3003Z" fill="white"/>
<defs>
<radialGradient id="paint0_radial" cx="0" cy="0" r="1" gradientUnits="userSpaceOnUse" gradientTransform="translate(11.6462 15.3881) scale(6.9396 7.09738)">
<stop offset="0.0295757" stop-color="#979797"/>
<stop offset="0.9168" stop-color="#E1DFDD"/>
</radialGradient>
<radialGradient id="paint1_radial" cx="0" cy="0" r="1" gradientUnits="userSpaceOnUse" gradientTransform="translate(11.6462 15.3881) scale(6.9396 7.09738)">
<stop offset="0.0295757" stop-color="#979797"/>
<stop offset="0.9168" stop-color="#E1DFDD"/>
</radialGradient>
</defs>
</svg>
