<svg width="65" height="65" viewBox="0 0 65 65" fill="none" xmlns="http://www.w3.org/2000/svg">
<path d="M32.8149 60.1671C17.6439 60.1671 5.37445 47.7987 5.37445 32.6911C5.37445 17.5004 17.6439 5.21509 32.8149 5.21509C47.9859 5.21509 60.2553 17.5834 60.2553 32.6911C60.3382 47.8817 47.9859 60.1671 32.8149 60.1671ZM32.8149 7.20731C18.7216 7.20731 7.28119 18.6626 7.28119 32.7741C7.28119 46.8856 18.7216 58.3409 32.8149 58.3409C46.9082 58.3409 58.3486 46.8856 58.3486 32.7741C58.3486 18.6626 46.9082 7.20731 32.8149 7.20731Z" fill="#4497A9"/>
<path d="M10.4315 12.2709C10.1828 12.2709 9.93405 12.1879 9.76825 12.0218C9.35374 11.6898 9.35374 11.0257 9.76825 10.6107C10.846 9.44856 12.0066 8.45245 13.2501 7.45635C13.6646 7.12431 14.3278 7.20732 14.6594 7.62236C14.991 8.03741 14.9081 8.70148 14.4936 9.03352C13.333 9.94662 12.2553 10.9427 11.2605 12.0218C10.9289 12.1879 10.6802 12.2709 10.4315 12.2709Z" fill="#8FC1CB"/>
<path d="M17.0636 6.95823C16.732 6.95823 16.4004 6.79221 16.2346 6.46018C15.9859 5.96212 16.1517 5.38106 16.5662 5.13203C20.3797 2.89079 24.5247 1.47963 28.9185 0.898569C29.4988 0.81556 29.9963 1.23061 29.9963 1.72866C30.0792 2.30972 29.6647 2.80778 29.1672 2.80778C25.0222 3.30583 21.2087 4.63398 17.561 6.7092C17.3952 6.95823 17.2294 6.95823 17.0636 6.95823Z" fill="#8FC1CB"/>
<path d="M47.157 6.21106C46.9912 6.21106 46.8253 6.21106 46.6595 6.12805C45.7476 5.63 44.8357 5.21495 43.9238 4.88291C43.4264 4.7169 43.1777 4.13583 43.3435 3.55477C43.5922 3.05671 44.0896 2.80769 44.6699 2.97371C45.6647 3.38875 46.6595 3.8038 47.5715 4.30185C48.0689 4.55088 48.2347 5.13194 47.986 5.63C47.9031 5.96203 47.4886 6.21106 47.157 6.21106Z" fill="#8FC1CB"/>
<path d="M63.5714 29.7856C63.0739 29.7856 62.6594 29.4536 62.5765 28.9555C61.4988 20.6546 57.0221 13.1008 50.1413 8.28628C49.7268 7.95424 49.561 7.37318 49.8926 6.87512C50.2242 6.46008 50.8045 6.29406 51.3019 6.6261C58.5973 11.7727 63.4055 19.8245 64.5662 28.7065C64.6491 29.2876 64.2346 29.7856 63.7372 29.7856C63.6543 29.7856 63.6543 29.7856 63.5714 29.7856Z" fill="#8FC1CB"/>
<path d="M63.7372 36.0114C63.7372 36.0114 63.6543 36.0114 63.7372 36.0114C63.1569 36.0114 62.7424 35.5134 62.7424 34.9323C62.8253 34.1852 62.8253 33.4381 62.8253 32.6911C62.8253 32.11 63.2398 31.6949 63.8201 31.6949C64.4004 31.6949 64.8149 32.11 64.8149 32.6911C64.8149 33.5211 64.8149 34.3512 64.732 35.0983C64.6491 35.5964 64.2346 36.0114 63.7372 36.0114Z" fill="#8FC1CB"/>
<path d="M58.1828 51.5341C58.017 51.5341 57.7683 51.4511 57.6024 51.3681C57.1879 51.036 57.0221 50.455 57.3537 49.9569C59.8408 46.5535 61.4988 42.6521 62.3278 38.5017C62.4107 38.0036 62.9911 37.5886 63.4885 37.7546C63.9859 37.8376 64.4004 38.3357 64.2346 38.9167C63.4056 43.3162 61.5817 47.4666 59.0118 51.119C58.7631 51.3681 58.5144 51.5341 58.1828 51.5341Z" fill="#8FC1CB"/>
<path d="M49.4781 59.835C49.1465 59.835 48.8149 59.6689 48.6491 59.3369C48.3175 58.8388 48.4833 58.2578 48.9807 58.0088C51.1362 56.6806 53.0429 55.0204 54.7838 53.1942C55.1154 52.7792 55.7787 52.7792 56.1932 53.1112C56.6077 53.4433 56.6077 54.1073 56.2761 54.5224C54.4522 56.5146 52.3797 58.2578 50.0584 59.6689C49.8097 59.835 49.6439 59.835 49.4781 59.835Z" fill="#8FC1CB"/>
<path d="M42.4315 63.1554C42.017 63.1554 41.6025 62.9063 41.5196 62.4913C41.3538 61.9932 41.6025 61.4122 42.1828 61.2461C43.3434 60.9141 44.5041 60.4161 45.5818 59.918C46.0792 59.669 46.6595 59.918 46.9082 60.4161C47.1569 60.9141 46.9082 61.4952 46.4108 61.7442C45.2502 62.3253 44.0067 62.7403 42.7631 63.1554C42.5973 63.1554 42.5144 63.1554 42.4315 63.1554Z" fill="#8FC1CB"/>
<path d="M32.8149 64.7327C27.5092 64.7327 22.2035 63.4045 17.561 60.8312C17.0636 60.5822 16.8978 60.0011 17.1465 59.5031C17.3952 59.005 17.9755 58.839 18.4729 59.088C22.8667 61.4953 27.7579 62.7404 32.8149 62.7404C34.473 62.7404 36.131 62.5744 37.789 62.3254C38.2864 62.2424 38.8667 62.5744 38.9496 63.1555C39.0325 63.6535 38.7009 64.2346 38.1206 64.3176C36.3797 64.5666 34.6388 64.7327 32.8149 64.7327Z" fill="#8FC1CB"/>
<path d="M11.9237 56.5977C11.675 56.5977 11.4263 56.5146 11.2605 56.3486C4.62839 50.289 0.814911 41.656 0.814911 32.691C0.814911 26.7974 2.39004 21.0698 5.4574 16.0892C5.70611 15.5912 6.36932 15.5082 6.78383 15.7572C7.28124 16.0062 7.36414 16.6703 7.11544 17.0853C4.29678 21.7338 2.72165 27.1294 2.72165 32.691C2.72165 41.075 6.28642 49.2098 12.504 54.8545C12.9186 55.1865 12.9185 55.8506 12.5869 56.2656C12.504 56.5146 12.1724 56.5977 11.9237 56.5977Z" fill="#8FC1CB"/>
<path d="M39.447 3.38883C39.3641 3.38883 39.2812 3.38883 39.1983 3.38883C37.1258 2.89078 34.9703 2.72476 32.732 2.72476C32.1517 2.72476 31.7372 2.30972 31.7372 1.72865C31.7372 1.14759 32.1517 0.732544 32.732 0.732544C35.0532 0.732544 37.3745 0.981571 39.6128 1.47963C40.1102 1.56263 40.4418 2.1437 40.3589 2.64175C40.3589 3.0568 39.9444 3.38883 39.447 3.38883Z" fill="#8FC1CB"/>
<path d="M44.0903 30.8106L37.6256 42.1093C37.1596 42.9247 37.7421 43.973 38.7322 43.973H51.5452C52.5353 43.973 53.1177 42.9247 52.6518 42.1093L46.3035 30.8106C45.8376 29.9952 44.6145 29.9369 44.0903 30.8106Z" fill="#FFD066"/>
<path fill-rule="evenodd" clip-rule="evenodd" d="M46.0706 34.8291L44.4398 34.7709C44.3816 34.7709 44.3233 34.8291 44.3233 34.8874L44.4981 39.6049C44.4981 39.6631 44.5563 39.7214 44.6728 39.7796L45.6046 39.8378C45.6629 39.8378 45.7794 39.7796 45.7794 39.7214L46.2453 35.0621C46.187 34.8874 46.1288 34.8291 46.0706 34.8291Z" fill="white"/>
<path fill-rule="evenodd" clip-rule="evenodd" d="M45.0222 40.7114C44.5563 40.7114 44.2068 41.0609 44.2068 41.5268C44.2068 41.9927 44.5563 42.3422 45.0222 42.3422C45.4881 42.3422 45.8376 41.9927 45.8376 41.5268C45.8376 41.0609 45.4881 40.7114 45.0222 40.7114Z" fill="white"/>
<path d="M35.6454 40.9444L42.1101 29.6456C42.4013 29.1215 42.8673 28.6555 43.3914 28.3643V26.3259V23.938C43.3914 23.2974 43.1585 22.715 42.6926 22.249L13.3973 22.4237C13.0479 22.8314 12.8149 23.3556 12.8149 23.938V37.2752V40.0708C12.8149 41.4103 13.8632 42.4587 15.2028 42.4587H19.3961H21.7258H35.1795C35.2377 41.8762 35.3542 41.3521 35.6454 40.9444Z" fill="#8FC1CB"/>
<path d="M41.0036 21.4919H15.261C14.9698 21.4919 14.6786 21.5502 14.3874 21.6667C14.038 21.8414 13.6885 22.0744 13.4556 22.3656C13.5138 22.5985 13.6885 22.8315 13.9797 23.1227L26.1521 34.5962C27.084 35.528 28.6565 35.528 29.5883 34.5962L42.6926 22.1908C42.2849 21.7249 41.7025 21.4919 41.0036 21.4919Z" fill="#4497A9"/>
</svg>
