<svg width="32" height="32" viewBox="0 0 32 32" fill="none" xmlns="http://www.w3.org/2000/svg">
<path d="M16 12.8013C16.0006 14.8514 15.2156 16.8239 13.8064 18.3129C12.3972 19.802 10.471 20.6944 8.42392 20.8068C8.28405 20.8068 8.14742 20.8068 8.00755 20.8068C6.33431 20.8052 4.70352 20.2799 3.34383 19.3047C1.98415 18.3296 0.963746 16.9533 0.425697 15.3689C-0.112352 13.7845 -0.141068 12.0715 0.343574 10.47C0.828217 8.86847 1.80192 7.45877 3.12815 6.43856C3.45163 6.18518 3.79544 5.95888 4.15608 5.76195C4.2862 5.69038 4.41957 5.62207 4.55619 5.55701C4.64076 5.51473 4.72859 5.47244 4.81642 5.43666C5.01167 5.34905 5.21147 5.27195 5.41496 5.2057C5.5646 5.1504 5.71748 5.10486 5.87363 5.06257C6.02977 5.02028 6.19892 4.97149 6.38434 4.93896C6.56975 4.90643 6.81372 4.85763 7.03492 4.83161C7.2476 4.8058 7.46153 4.79169 7.67575 4.78932C7.72224 4.7843 7.76914 4.7843 7.81562 4.78932C7.87196 4.78608 7.92844 4.78608 7.98478 4.78932C8.31106 4.78896 8.63703 4.80961 8.96066 4.85113C9.07776 4.85113 9.19161 4.88041 9.30547 4.90318C9.46421 4.92507 9.62166 4.95548 9.77714 4.99426C9.87473 5.01703 9.97557 5.0398 10.0699 5.06908H10.1057C10.2618 5.11136 10.4147 5.1569 10.5644 5.2122C10.9227 5.33133 11.2708 5.47928 11.6053 5.6546C12.927 6.32297 14.0375 7.34477 14.8134 8.60643C15.5892 9.86809 16 11.3202 16 12.8013V12.8013Z" fill="#95C8D4"/>
<path d="M4.33868 9.68834C4.93334 9.68834 5.4154 9.20627 5.4154 8.61162C5.4154 8.01696 4.93334 7.5349 4.33868 7.5349C3.74403 7.5349 3.26196 8.01696 3.26196 8.61162C3.26196 9.20627 3.74403 9.68834 4.33868 9.68834Z" fill="#605E5C"/>
<path d="M6.72269 5.45271C7.39999 5.45271 7.94905 4.90365 7.94905 4.22635C7.94905 3.54906 7.39999 3 6.72269 3C6.0454 3 5.49634 3.54906 5.49634 4.22635C5.49634 4.90365 6.0454 5.45271 6.72269 5.45271Z" fill="#605E5C"/>
<path d="M5.12528 6.3022C5.80258 6.3022 6.35164 5.75314 6.35164 5.07584C6.35164 4.39855 5.80258 3.84949 5.12528 3.84949C4.44798 3.84949 3.89893 4.39855 3.89893 5.07584C3.89893 5.75314 4.44798 6.3022 5.12528 6.3022Z" fill="#605E5C"/>
<path d="M4.27372 7.99295C4.95101 7.99295 5.50007 7.44389 5.50007 6.76659C5.50007 6.0893 4.95101 5.54024 4.27372 5.54024C3.59642 5.54024 3.04736 6.0893 3.04736 6.76659C3.04736 7.44389 3.59642 7.99295 4.27372 7.99295Z" fill="#605E5C"/>
<path d="M11.2149 9.68834C11.8096 9.68834 12.2916 9.20627 12.2916 8.61162C12.2916 8.01696 11.8096 7.5349 11.2149 7.5349C10.6202 7.5349 10.1382 8.01696 10.1382 8.61162C10.1382 9.20627 10.6202 9.68834 11.2149 9.68834Z" fill="#605E5C"/>
<path d="M8.78763 5.50154C9.46493 5.50154 10.014 4.95248 10.014 4.27518C10.014 3.59789 9.46493 3.04883 8.78763 3.04883C8.11034 3.04883 7.56128 3.59789 7.56128 4.27518C7.56128 4.95248 8.11034 5.50154 8.78763 5.50154Z" fill="#605E5C"/>
<path d="M10.5223 6.34738C11.1996 6.34738 11.7486 5.79832 11.7486 5.12102C11.7486 4.44373 11.1996 3.89467 10.5223 3.89467C9.84496 3.89467 9.2959 4.44373 9.2959 5.12102C9.2959 5.79832 9.84496 6.34738 10.5223 6.34738Z" fill="#605E5C"/>
<path d="M11.1919 8.21483C11.8692 8.21483 12.4183 7.66577 12.4183 6.98847C12.4183 6.31117 11.8692 5.76212 11.1919 5.76212C10.5146 5.76212 9.96558 6.31117 9.96558 6.98847C9.96558 7.66577 10.5146 8.21483 11.1919 8.21483Z" fill="#605E5C"/>
<path d="M7.52348 4.13844H8.04069C8.50489 4.13801 8.96461 4.22907 9.39359 4.40641C9.82257 4.58375 10.2124 4.8439 10.5408 5.17198C10.8692 5.50007 11.1297 5.88965 11.3074 6.31847C11.4851 6.74729 11.5766 7.20693 11.5766 7.67112V10.036C11.5766 10.236 11.5371 10.4341 11.4604 10.6188C11.3836 10.8036 11.2711 10.9713 11.1294 11.1125C10.9876 11.2536 10.8194 11.3654 10.6343 11.4414C10.4493 11.5173 10.251 11.556 10.051 11.5551H5.4969C5.09401 11.5551 4.70761 11.3951 4.42272 11.1102C4.13783 10.8253 3.97778 10.4389 3.97778 10.036V7.67112C3.97778 7.2061 4.06959 6.74566 4.24793 6.31621C4.42628 5.88675 4.68766 5.49673 5.01708 5.16852C5.3465 4.84031 5.73747 4.58037 6.16758 4.4036C6.59769 4.22684 7.05846 4.13672 7.52348 4.13844V4.13844Z" fill="#605E5C"/>
<path d="M9.72493 11.6953H6.00032V16.6137C6.00032 17.144 5.06348 17.3619 5.06348 17.3619H10.7821C10.7821 17.3619 9.72493 17.0822 9.72493 16.5487V11.6953Z" fill="#C9F3FB"/>
<path d="M9.72493 11.6953H6.00032V16.6137C6.00032 17.144 5.06348 17.3619 5.06348 17.3619H10.7821C10.7821 17.3619 9.72493 17.0822 9.72493 16.5487V11.6953Z" fill="url(#paint0_radial)"/>
<path d="M3.3689 10.9074C3.37061 11.2252 3.49762 11.5295 3.72235 11.7543C3.94709 11.979 4.25141 12.106 4.56923 12.1077H5.24258C5.84763 12.0427 5.77932 11.5352 5.78257 10.9139C5.78582 10.2926 5.86715 9.78839 5.27186 9.71357C5.22307 9.71357 4.62127 9.71357 4.58224 9.71357C4.42418 9.71228 4.26742 9.74214 4.1209 9.80144C3.97438 9.86074 3.84098 9.94832 3.72831 10.0592C3.61564 10.17 3.52591 10.302 3.46424 10.4475C3.40257 10.5931 3.37017 10.7493 3.3689 10.9074V10.9074Z" fill="#E1DFDD"/>
<path d="M8.24165 5.49779H7.31782C5.79974 5.49779 4.56909 6.72843 4.56909 8.24651V12.5371C4.56909 14.0552 5.79974 15.2859 7.31782 15.2859H8.24165C9.75973 15.2859 10.9904 14.0552 10.9904 12.5371V8.24651C10.9904 6.72843 9.75973 5.49779 8.24165 5.49779Z" fill="#E1DFDD"/>
<path d="M12.2263 10.9074C12.2246 11.2252 12.0975 11.5295 11.8728 11.7542C11.6481 11.979 11.3437 12.106 11.0259 12.1077H10.3526C9.74753 12.0426 9.81584 11.5352 9.81259 10.9139C9.80933 10.2926 9.72801 9.78837 10.3233 9.71355C10.3721 9.71355 10.9739 9.71355 11.0129 9.71355C11.3319 9.71181 11.6385 9.83641 11.8659 10.0601C12.0933 10.2838 12.2228 10.5884 12.2263 10.9074V10.9074Z" fill="#E1DFDD"/>
<path d="M9.93639 4.84427H5.623L4.27954 6.88386L4.54628 9.71065L4.9041 7.64504C4.9706 7.32766 5.14434 7.04284 5.3961 6.83846C5.64787 6.63409 5.96232 6.52261 6.2866 6.52278H9.27604C9.59992 6.52275 9.91392 6.63435 10.1651 6.83876C10.4164 7.04317 10.5895 7.32792 10.6553 7.64504L11.0261 9.71065L11.2961 6.88386L9.93639 4.84427Z" fill="#605E5C"/>
<path d="M9.335 7.24189C10.0123 7.24189 10.5614 6.69284 10.5614 6.01554C10.5614 5.33824 10.0123 4.78918 9.335 4.78918C8.6577 4.78918 8.10864 5.33824 8.10864 6.01554C8.10864 6.69284 8.6577 7.24189 9.335 7.24189Z" fill="#605E5C"/>
<path d="M13.6811 18.4424C12.2827 19.8553 10.4092 20.6982 8.42435 20.8073C8.28447 20.8073 8.14785 20.8073 8.00797 20.8073C6.94812 20.8085 5.89859 20.5992 4.92027 20.1915C3.94195 19.7839 3.05431 19.186 2.30884 18.4327C2.43367 18.3453 2.56529 18.2681 2.70244 18.2017C3.44022 17.768 4.25385 17.4788 5.09985 17.3495H5.12913C5.83497 17.2282 6.55013 17.1694 7.2663 17.1738H8.74964C9.42475 17.1716 10.0987 17.2304 10.7632 17.3495C11.5359 17.4792 12.2834 17.7294 12.9784 18.0911C13.2282 18.1743 13.4647 18.2926 13.6811 18.4424Z" fill="#605E5C"/>
<path d="M10.782 17.3522C10.5283 17.9344 9.28245 18.8485 8.39115 19.4893C8.25243 19.5996 8.08043 19.6597 7.90321 19.6597C7.72598 19.6597 7.55398 19.5996 7.41527 19.4893C6.59878 18.8387 5.3399 17.9247 5.06665 17.3684C6.00024 17.0041 7.99429 16.8967 7.99429 16.8967C8.93834 16.9372 9.87419 17.0901 10.782 17.3522V17.3522Z" fill="#E1DFDD"/>
<path d="M32 21.6669C32.0003 23.235 31.5481 24.7683 30.7 26.0749C30.0241 27.1204 29.1184 27.9897 28.0552 28.6133C26.992 29.237 25.8008 29.5977 24.5768 29.6667C24.4426 29.6667 24.3085 29.6667 24.1743 29.6667C24.0274 29.6667 23.8836 29.6667 23.7399 29.6667C21.6644 29.6433 19.683 28.778 18.2316 27.2612C16.7802 25.7445 15.9776 23.7004 16.0005 21.5787C16.0233 19.4571 16.8698 17.4316 18.3535 15.9479C19.8373 14.4642 21.8369 13.6438 23.9124 13.6671H24.1743C26.2498 13.6671 28.2403 14.51 29.7079 16.0102C31.1755 17.5105 32 19.5452 32 21.6669Z" fill="#95C8D4"/>
<path d="M30.7002 26.0749C30.2405 26.7866 29.6709 27.4173 29.0137 27.9426C28.584 27.6158 28.1162 27.3449 27.6211 27.1361C26.5616 26.6911 25.4253 26.469 24.28 26.483C23.1049 26.4829 21.9429 26.7343 20.8686 27.221C20.3415 27.5804 19.8624 27.9069 19.3833 28.2335C18.5848 27.7437 17.9717 27.0767 17.4668 26.2743C18.1056 23.1887 18.2877 20.5045 18.8755 18.48C19.7347 15.623 21.8077 14.1602 23.9063 14.072H24.034C24.5068 14.0636 24.9782 14.1263 25.4331 14.2581C25.4904 14.2737 25.5469 14.2922 25.6024 14.3136C27.1739 14.8197 28.5665 16.1617 29.2118 18.3233C29.857 20.4849 29.8921 22.8848 30.7002 26.0749Z" fill="#605E5C"/>
<path d="M29.0139 27.9492C27.7465 28.9808 26.1951 29.5814 24.5772 29.6667C24.443 29.6667 24.3089 29.6667 24.1747 29.6667C24.0278 29.6667 23.8841 29.6667 23.7403 29.6667C22.2026 29.5831 20.6154 29.1781 19.3835 28.2336C19.805 27.8924 20.3762 27.4642 20.8688 27.2439C21.943 26.7572 23.1051 26.5059 24.2801 26.506C25.4254 26.492 26.5618 26.7141 27.6212 27.159C28.1155 27.3628 28.5833 27.6282 29.0139 27.9492Z" fill="#95C8D4"/>
<path d="M21.6668 21.9801H20.9896C20.8575 21.9819 20.7264 21.9568 20.6038 21.9064C20.4813 21.8561 20.3697 21.7813 20.2755 21.6866C20.1814 21.5919 20.1065 21.479 20.0553 21.3545C20.0041 21.2301 19.9775 21.0964 19.9771 20.9614V20.932C19.9754 20.6598 20.0793 20.398 20.2661 20.204C20.4529 20.0099 20.7074 19.8995 20.9736 19.8969H21.6508C21.7378 19.8961 21.824 19.9128 21.9046 19.9463C21.9851 19.9797 22.0584 20.0291 22.1202 20.0916C22.182 20.1542 22.231 20.2286 22.2645 20.3107C22.298 20.3927 22.3152 20.4807 22.3152 20.5696V21.301C22.3161 21.4786 22.2485 21.6494 22.1272 21.7765C22.0059 21.9035 21.8405 21.9767 21.6668 21.9801V21.9801Z" fill="#E1DFDD"/>
<path d="M26.6147 21.9413H27.3046C27.4357 21.9404 27.5654 21.9131 27.6862 21.8609C27.807 21.8087 27.9166 21.7327 28.0086 21.6371C28.1005 21.5416 28.1732 21.4284 28.2223 21.3041C28.2714 21.1798 28.2961 21.0468 28.2948 20.9127V20.8507C28.294 20.7169 28.2673 20.5846 28.2165 20.4613C28.1656 20.3381 28.0915 20.2262 27.9984 20.1322C27.9053 20.0382 27.7949 19.9639 27.6737 19.9135C27.5525 19.8631 27.4227 19.8376 27.2918 19.8385H26.6019C26.5164 19.8384 26.4317 19.856 26.3529 19.89C26.2741 19.924 26.2028 19.9739 26.1433 20.0366C26.0837 20.0994 26.037 20.1737 26.0061 20.2552C25.9751 20.3367 25.9605 20.4237 25.9631 20.5111V21.2588C25.9591 21.3481 25.9731 21.4373 26.0043 21.5209C26.0354 21.6044 26.083 21.6805 26.1441 21.7445C26.2052 21.8085 26.2785 21.859 26.3594 21.8928C26.4403 21.9267 26.5272 21.9431 26.6147 21.9413V21.9413Z" fill="#E1DFDD"/>
<path d="M26.5125 26.7447L26.4582 26.7153C26.0685 26.5782 25.7715 26.4475 25.6437 26.1308L25.6245 23.375H25.5766V22.8428L22.9255 22.8656L22.9446 25.5757C22.9446 26.1896 22.8744 26.4084 22.2323 26.7186H22.2068C21.7457 26.8405 21.2967 27.0055 20.8652 27.2116C21.9379 27.6031 23.0707 27.7944 24.2095 27.7765C25.3808 27.7798 26.5423 27.5583 27.6337 27.1234C27.2698 26.9685 26.895 26.8418 26.5125 26.7447Z" fill="url(#paint1_radial)"/>
<path d="M27.5288 19.8257C27.548 22.4771 26.0148 24.6386 24.1047 24.6517C22.1946 24.6648 20.6326 22.5293 20.6135 19.878C20.5943 17.2266 22.1275 15.3067 24.0376 15.3067C25.9477 15.3067 27.5288 17.1744 27.5288 19.8257Z" fill="#E1DFDD"/>
<path d="M22.5166 14.9045C22.6709 15.4865 22.959 16.0224 23.3568 16.4677C23.7546 16.9129 24.2506 17.2546 24.8036 17.4644C27.6177 18.6203 27.5538 20.3182 27.5538 20.3182C27.5538 20.3182 29.1253 18.3167 27.2088 15.698C25.2508 13.014 22.5166 14.9045 22.5166 14.9045Z" fill="#605E5C"/>
<path fill-rule="evenodd" clip-rule="evenodd" d="M20.2561 9.9968C20.2617 10.2913 20.0275 10.5346 19.733 10.5402L18.9829 10.5545L20.8469 12.4185C21.0552 12.6268 21.0552 12.9644 20.8469 13.1727C20.6386 13.381 20.301 13.381 20.0927 13.1727L18.2289 11.3089L18.2148 12.0583C18.2092 12.3528 17.966 12.587 17.6715 12.5814C17.377 12.5759 17.1427 12.3327 17.1483 12.0382L17.1957 9.52162L19.7127 9.47372C20.0072 9.46811 20.2505 9.70231 20.2561 9.9968Z" fill="#FFD066"/>
<path fill-rule="evenodd" clip-rule="evenodd" d="M11.2343 21.7881C11.4426 21.5798 11.7803 21.5798 11.9886 21.7881L13.8524 23.6518L13.8665 22.9025C13.872 22.608 14.1153 22.3738 14.4098 22.3793C14.7043 22.3849 14.9385 22.6281 14.933 22.9226L14.8855 25.4392L12.3683 25.4871C12.0738 25.4927 11.8306 25.2585 11.825 24.964C11.8193 24.6695 12.0535 24.4262 12.348 24.4206L13.0984 24.4063L11.2343 22.5423C11.0261 22.334 11.0261 21.9963 11.2343 21.7881Z" fill="#FFD066"/>
<defs>
<radialGradient id="paint0_radial" cx="0" cy="0" r="1" gradientUnits="userSpaceOnUse" gradientTransform="translate(7.61055 13.1201) rotate(87.7974) scale(4.23194)">
<stop offset="0.03" stop-color="#C4C4C4"/>
<stop offset="0.92" stop-color="#E1DFDD"/>
</radialGradient>
<radialGradient id="paint1_radial" cx="0" cy="0" r="1" gradientUnits="userSpaceOnUse" gradientTransform="translate(24.334 23.0095) rotate(90) scale(2.28564 3.13487)">
<stop stop-color="#C4C4C4"/>
<stop offset="1" stop-color="#E1DFDD"/>
</radialGradient>
</defs>
</svg>
