<svg width="32" height="32" viewBox="0 0 32 32" fill="none" xmlns="http://www.w3.org/2000/svg">
<path d="M12 23.9343C12 27.248 9.31378 29.9343 6 29.9343C2.68622 29.9343 0 27.248 0 23.9343C0 20.6205 2.68622 17.9343 6 17.9343C9.31378 17.9343 12 20.6205 12 23.9343Z" fill="#95C8D4"/>
<path d="M8.3915 28.5243C7.66853 28.0176 6.78868 27.7187 5.83885 27.7187C4.90175 27.7187 4.03249 28.0091 3.31376 28.5053C3.10175 28.6304 2.89186 28.7745 2.68408 28.9357C2.70316 28.9484 2.72436 28.9611 2.74345 28.9738C3.43249 29.419 4.21694 29.7286 5.06288 29.8622C5.36818 29.9109 5.68196 29.9364 5.99998 29.9364C6.20352 29.9364 6.40705 29.9258 6.60422 29.9067C7.49256 29.8176 8.32366 29.5335 9.05511 29.0989C9.08055 29.0841 9.10599 29.0692 9.13143 29.0544C8.88974 28.853 8.64168 28.677 8.3915 28.5243Z" fill="#605E5C"/>
<path d="M9.86931 20.5145C11.4234 22.7406 7.87849 26.0205 9.70182 27.2056C9.70182 27.2056 7.49687 28.0304 6.79934 26.6841C6.00641 25.1554 7.10676 23.5908 7.11948 22.0198C7.12796 20.841 5.81348 20.0798 5.81348 20.0798C5.81348 20.0798 8.36825 18.3646 9.86931 20.5145Z" fill="#605E5C"/>
<path d="M6.87144 27.1569C6.87144 26.5442 6.87144 25.4247 6.87144 25.4247H4.79582C4.79582 25.4247 4.79582 26.5442 4.79582 27.1569C4.79582 27.7696 3.65942 28.2785 3.65942 28.2785H5.20077C5.37462 28.2785 5.52515 28.3972 5.56755 28.5647L5.83257 29.4382L6.10819 28.5604C6.15059 28.3929 6.30112 28.2763 6.47285 28.2763H8.00571C8.00571 28.2806 6.87144 27.7696 6.87144 27.1569Z" fill="#E1DFDD"/>
<path d="M5.81343 26.1922C7.65998 26.1922 9.1569 24.6469 9.1569 22.7407C9.1569 20.8344 7.65998 19.2891 5.81343 19.2891C3.96689 19.2891 2.46997 20.8344 2.46997 22.7407C2.46997 24.6469 3.96689 26.1922 5.81343 26.1922Z" fill="#605E5C"/>
<path d="M8.33017 23.4764C8.35773 23.258 8.37257 23.0375 8.37257 22.8212C8.37257 21.4092 7.22769 20.2643 5.81568 20.2643C4.40367 20.2643 3.25879 21.4092 3.25879 22.8212C3.25879 24.6149 4.31674 26.6375 5.86232 26.6375C6.82063 26.6375 7.55632 25.8594 7.9761 24.8417H8.1436C8.52734 24.8417 8.839 24.5301 8.839 24.1463C8.83688 23.8241 8.62063 23.559 8.33017 23.4764Z" fill="#E1DFDD"/>
<path d="M6.96476 20.1435C6.86723 20.4234 6.40716 21.3605 5.58243 22.0877C4.77042 22.8022 3.64462 23.1605 3.54073 23.9619C3.38808 25.1364 4.33791 25.181 3.63826 26.4721C3.63826 26.4721 3.76123 26.1859 3.26724 25.5032C2.77324 24.8205 1.22342 23.1817 2.21141 21.2926C3.50469 18.8163 6.96476 20.1435 6.96476 20.1435Z" fill="#605E5C"/>
<path d="M6.43678 20.3385C6.19721 20.7477 6.43678 21.7251 7.56894 22.4268C8.43608 22.9632 8.24526 23.9597 8.24526 23.9597C8.24526 23.9597 9.14632 22.7979 8.62477 21.3307C8.36187 20.5866 7.10251 19.2064 6.43678 20.3385Z" fill="#605E5C"/>
<path d="M32 23.9343C32 27.248 29.3138 29.9343 26 29.9343C22.6862 29.9343 20 27.248 20 23.9343C20 20.6205 22.6862 17.9343 26 17.9343C29.3138 17.9343 32 20.6205 32 23.9343Z" fill="#95C8D4"/>
<path d="M28.4256 27.7144C28.3896 27.7165 28.3535 27.7334 28.3175 27.761C28.0652 27.7207 27.8044 27.6995 27.5394 27.6995H24.7705C24.5288 27.6995 24.2935 27.7186 24.0624 27.7525C24.0306 27.7292 23.9988 27.7165 23.9669 27.7144C23.1677 27.7843 22.4574 27.9709 21.8235 28.2402C21.9125 28.3271 22.0058 28.4119 22.1012 28.4925C22.7691 29.0628 23.562 29.491 24.4334 29.7264C24.9337 29.8621 25.4574 29.9342 26.0002 29.9342C26.685 29.9342 27.3422 29.8175 27.9549 29.6077C28.7309 29.3405 29.4348 28.9207 30.0306 28.3801C30.1196 28.2995 30.2065 28.2147 30.2913 28.1278C29.7274 27.92 29.1083 27.7758 28.4256 27.7144Z" fill="#605E5C"/>
<path d="M23.6702 23.4719L28.7373 23.4995L28.7479 21.7631C28.75 21.2691 28.3514 20.8662 27.8574 20.8641L24.5797 20.845C24.0857 20.8429 23.6829 21.2415 23.6808 21.7355L23.6702 23.4719Z" fill="#605E5C"/>
<path d="M27.9528 27.197C27.9528 26.8048 27.9337 23.4677 27.9337 23.4677H24.4058C24.4058 23.4677 24.4143 26.7667 24.4143 27.1886C24.4143 27.6105 24.0411 27.6995 23.897 27.7207C24.2023 28.2423 25.15 28.6451 26.2334 28.6451C27.3443 28.6451 28.3641 28.2762 28.644 27.7334C28.4426 27.7038 27.9528 27.5893 27.9528 27.197Z" fill="#E1DFDD"/>
<path d="M29.0679 23.7031C29.07 23.2939 28.7456 22.9611 28.3386 22.9462L28.3428 22.3017C28.3449 21.7462 27.8976 21.2925 27.3421 21.2883L24.923 21.2755C24.3527 21.2713 23.8884 21.7314 23.8842 22.3017L23.8799 22.9483C23.4898 22.9738 23.1782 23.296 23.176 23.6925C23.1739 24.0911 23.4813 24.4155 23.8714 24.4452L23.8693 24.689C23.863 25.7194 24.6941 26.5611 25.7266 26.5674L26.4262 26.5717C27.4714 26.578 28.3237 25.7342 28.3301 24.689L28.3322 24.4494C28.7372 24.443 29.0658 24.1144 29.0679 23.7031Z" fill="#E1DFDD"/>
<path d="M23.6787 21.4091C23.6787 21.4091 24.4038 21.1314 24.4038 22.0346C24.4038 22.9356 23.683 22.978 23.683 22.978L23.6787 21.4091Z" fill="#605E5C"/>
<path d="M24.9973 21.6169C25.3195 21.5914 26.157 21.2395 26.8036 21.2162C27.5902 21.1886 28.0842 21.5236 28.0842 21.5236C28.0842 21.5236 28.345 19.749 27.0135 19.942C25.7478 20.1243 26.1103 19.6282 25.5655 19.5964C25.0482 19.5646 24.9358 20.0777 24.7195 20.0819C24.1937 20.0946 24.2913 19.4098 23.5047 19.5964C22.8368 19.7596 22.275 21.8268 24.9973 21.6169Z" fill="#605E5C"/>
<path d="M28.5273 21.6953C28.5273 21.4811 28.3174 21.3158 28.116 21.39C27.9528 21.4493 27.8022 21.6168 27.8022 22.026C27.8022 22.9271 28.5231 22.9695 28.5231 22.9695L28.5273 21.6953Z" fill="#605E5C"/>
<path d="M15.8667 15C19.1804 15 21.8667 12.3137 21.8667 9C21.8667 5.68629 19.1804 3 15.8667 3C12.553 3 9.8667 5.68629 9.8667 9C9.8667 12.3137 12.553 15 15.8667 15Z" fill="#95C8D4"/>
<path d="M17.0756 9.59403H14.423C13.9327 9.59403 13.5366 9.19637 13.5366 8.70768V7.32786C13.5366 6.18918 14.4597 5.26611 15.5984 5.26611H15.9018C17.0405 5.26611 17.9636 4.48516 17.9636 7.32786V8.70768C17.962 9.19637 17.5659 9.59403 17.0756 9.59403Z" fill="#605E5C"/>
<path d="M19.4504 13.8118C19.1996 13.5962 18.9793 13.4684 18.7812 13.4077C18.136 13.0564 17.2561 12.9174 16.3186 12.9174H15.4339C14.3974 12.9174 13.4312 13.0627 12.7732 13.478C12.6231 13.5498 12.4618 13.6584 12.283 13.8118C13.2827 14.5576 14.5236 14.9999 15.8667 14.9999C17.2098 14.9999 18.4506 14.5576 19.4504 13.8118Z" fill="#605E5C"/>
<path d="M17.5004 12.9653C17.5004 13.117 16.6891 13.8676 15.8666 13.89C15.0202 13.914 14.1626 13.2033 14.1626 12.9829C14.7072 12.7705 15.8794 12.7066 15.8794 12.7066C15.8794 12.7066 16.8632 12.7385 17.5004 12.9653Z" fill="#E1DFDD"/>
<path d="M16.8871 9.6756H14.7088V12.5454C14.7088 12.8569 14.1626 12.983 14.1626 12.983L17.5004 12.9655C17.5004 12.9655 16.8887 12.8201 16.8887 12.5087L16.8871 9.6756Z" fill="#C9F3FB"/>
<path d="M16.8871 9.6756H14.7088V12.5454C14.7088 12.8569 14.1626 12.983 14.1626 12.983L17.5004 12.9655C17.5004 12.9655 16.8887 12.8201 16.8887 12.5087L16.8871 9.6756Z" fill="#E1DFDD"/>
<path d="M13.1743 9.21561C13.1727 9.60369 13.4857 9.9215 13.8738 9.92309C13.901 9.92309 14.2411 9.9215 14.2667 9.9199C14.6196 9.88317 14.5797 9.58612 14.5813 9.2236C14.5829 8.86427 14.6308 8.56722 14.2843 8.52251C14.2555 8.51931 13.9105 8.51612 13.8818 8.51612C13.4937 8.51452 13.1759 8.82754 13.1743 9.21561Z" fill="#E1DFDD"/>
<path d="M16.0183 11.7724H15.4769C14.5922 11.7724 13.8735 11.0554 13.8735 10.169V7.66328C13.8735 6.77853 14.5906 6.05988 15.4769 6.05988H16.0183C16.9031 6.05988 17.6217 6.77694 17.6217 7.66328V10.169C17.6217 11.0538 16.9047 11.7724 16.0183 11.7724Z" fill="#E1DFDD"/>
<path d="M18.342 9.21561C18.3435 9.60369 18.0305 9.9215 17.6425 9.92309C17.6153 9.92309 17.2751 9.9215 17.2496 9.9199C16.8966 9.88317 16.9366 9.58612 16.935 9.2236C16.9334 8.86427 16.8855 8.56722 17.232 8.52251C17.2608 8.51931 17.6057 8.51612 17.6345 8.51612C18.0225 8.51452 18.3404 8.82754 18.342 9.21561Z" fill="#E1DFDD"/>
<path d="M17.0067 5.67657H14.4898L13.7041 6.86795L13.8606 8.51767L14.0698 7.31192C14.1481 6.93023 14.485 6.65555 14.8747 6.65555H16.6187C17.0083 6.65555 17.3453 6.93023 17.4236 7.31192L17.6328 8.51607L17.7893 6.86635L17.0067 5.67657Z" fill="#605E5C"/>
<path d="M15.059 7.07564C15.4541 7.07564 15.7744 6.75532 15.7744 6.36018C15.7744 5.96504 15.4541 5.64471 15.059 5.64471C14.6638 5.64471 14.3435 5.96504 14.3435 6.36018C14.3435 6.75532 14.6638 7.07564 15.059 7.07564Z" fill="#605E5C"/>
<path fill-rule="evenodd" clip-rule="evenodd" d="M8.83512 11.006C9.07797 11.1727 9.1397 11.5047 8.973 11.7476C8.2419 12.8126 7.77037 14.014 7.56813 15.2563L9.06898 14.0202C9.29634 13.8329 9.63246 13.8654 9.81972 14.0928C10.007 14.3201 9.97448 14.6563 9.74712 14.8435L7.28934 16.8678C7.19131 16.9604 7.05831 17.0161 6.91283 17.0133C6.73819 17.01 6.58478 16.923 6.49002 16.7914L4.46493 14.3327C4.27767 14.1053 4.31018 13.7692 4.53754 13.5819C4.7649 13.3947 5.10102 13.4272 5.28829 13.6545L6.50736 15.1347C6.72977 13.7227 7.2619 12.3555 8.09359 11.1439C8.26028 10.9011 8.59228 10.8393 8.83512 11.006Z" fill="#FFD066"/>
<path fill-rule="evenodd" clip-rule="evenodd" d="M24.758 12.1352L26.5836 12.5994C26.869 12.672 27.1593 12.4995 27.2319 12.214C27.3045 11.9285 27.1319 11.6383 26.8464 11.5657L23.8063 10.7926C23.6437 10.729 23.4532 10.7463 23.3007 10.8556C23.1978 10.9294 23.1289 11.0331 23.0975 11.1463L23.0782 11.1578L22.2849 14.2776C22.2123 14.5631 22.3849 14.8534 22.6703 14.926C22.9558 14.9985 23.2461 14.826 23.3187 14.5405L23.8073 12.619C24.3877 13.7216 24.733 14.9506 24.7958 16.2262C24.8102 16.5204 25.0604 16.7472 25.3546 16.7327C25.6488 16.7183 25.8756 16.4681 25.8611 16.1739C25.7909 14.7449 25.4053 13.3693 24.758 12.1352Z" fill="#FFD066"/>
<path fill-rule="evenodd" clip-rule="evenodd" d="M15.2979 23.4086C15.469 23.1689 15.8021 23.1133 16.0418 23.2844L18.6352 25.1359C18.749 25.2068 18.8364 25.3203 18.8711 25.4606C18.9129 25.6296 18.8691 25.7998 18.7671 25.9253L16.9155 28.5188C16.7444 28.7586 16.4113 28.8142 16.1715 28.643C15.9318 28.4719 15.8762 28.1388 16.0474 27.8991L17.1615 26.3385C15.9292 26.4691 14.6692 26.3661 13.4529 26.0173C13.1697 25.9361 13.006 25.6407 13.0872 25.3576C13.1684 25.0745 13.4638 24.9108 13.7469 24.992C14.8145 25.2981 15.9208 25.3916 17.0046 25.2824L15.422 24.1526C15.1823 23.9814 15.1267 23.6483 15.2979 23.4086Z" fill="#FFD066"/>
</svg>
