<svg width="65" height="65" viewBox="0 0 65 65" fill="none" xmlns="http://www.w3.org/2000/svg">
<path d="M8.22284 9.94958L45.9973 6.01843L60.2976 40.3144L37.498 48.5834L13.6192 56.5813L14.5636 38.8233L8.22284 9.94958Z" stroke="#FFD066" stroke-width="2"/>
<path d="M10.6512 11.7119L33.4507 26.2166M33.4507 26.2166L59.4881 40.0434M33.4507 26.2166L15.373 38.8233M33.4507 26.2166L45.4576 6.96741" stroke="#FFD066" stroke-width="2"/>
<path d="M59.0979 45.5325C62.1083 45.5325 64.5487 43.108 64.5487 40.1172C64.5487 37.1263 62.1083 34.7018 59.0979 34.7018C56.0876 34.7018 53.6472 37.1263 53.6472 40.1172C53.6472 43.108 56.0876 45.5325 59.0979 45.5325Z" fill="#4497A9"/>
<path d="M7.40801 17.5325C11.1963 17.5325 14.2673 14.4743 14.2673 10.7017C14.2673 6.92921 11.1963 3.87097 7.40801 3.87097C3.6197 3.87097 0.548676 6.92921 0.548676 10.7017C0.548676 14.4743 3.6197 17.5325 7.40801 17.5325Z" fill="#4497A9"/>
<path d="M14.5736 43.9325C17.2119 43.9325 19.3506 41.811 19.3506 39.194C19.3506 36.577 17.2119 34.4556 14.5736 34.4556C11.9353 34.4556 9.79654 36.577 9.79654 39.194C9.79654 41.811 11.9353 43.9325 14.5736 43.9325Z" fill="#4497A9"/>
<path d="M13.4099 64C17.8409 64 21.4329 60.4183 21.4329 56C21.4329 51.5817 17.8409 48 13.4099 48C8.97897 48 5.38696 51.5817 5.38696 56C5.38696 60.4183 8.97897 64 13.4099 64Z" fill="#8FC1CB"/>
<path d="M33.7864 41.4886C41.5365 41.4886 47.8191 35.1757 47.8191 27.3884C47.8191 19.6011 41.5365 13.2882 33.7864 13.2882C26.0363 13.2882 19.7537 19.6011 19.7537 27.3884C19.7537 35.1757 26.0363 41.4886 33.7864 41.4886Z" fill="#8FC1CB"/>
<path d="M41.8457 15.8608C37.579 9.8587 29.2352 9.95397 25.0633 16.3372C27.4337 14.4317 30.4678 13.2885 33.6916 13.2885C36.8205 13.2885 39.5702 14.2412 41.8457 15.8608Z" fill="#4497A9"/>
<path d="M24.8153 38.2005C27.0909 36.4856 30.3146 35.3423 34.0124 35.3423C37.5206 35.3423 40.7443 36.295 43.0199 38.0099C44.4422 36.7714 45.58 35.3423 46.3385 33.6274C45.0111 27.9111 44.9162 23.6239 43.6836 19.6225C43.2096 18.1934 42.6407 16.9549 41.8821 15.8116C39.6066 14.192 36.7621 13.2393 33.8228 13.2393C30.4316 13.1228 27.4062 14.314 25.0358 16.2194C24.3721 17.2674 23.9619 18.5745 23.4879 19.9083C22.3501 23.5286 22.2553 27.9111 21.1175 33.3416C21.876 35.247 23.2034 36.8667 24.8153 38.2005Z" fill="#4497A9"/>
<path d="M33.9757 35.3914C30.3727 35.3914 27.0385 36.4021 24.7247 38.141C27.1899 40.1417 30.2779 41.4888 33.6913 41.4888C37.1995 41.4888 40.4232 40.155 42.8884 37.9637C40.7077 36.3441 37.4839 35.2961 33.9757 35.3914Z" fill="#8FC1CB"/>
<path d="M28.8563 26.6267H27.5289C26.4859 26.6267 25.5378 25.7693 25.5378 24.626V24.5307C25.5378 23.4827 26.3911 22.53 27.5289 22.53H28.8563C29.6148 22.53 30.1837 23.1017 30.1837 23.8638V25.2929C30.1837 26.0551 29.6148 26.6267 28.8563 26.6267Z" fill="#D5E9EE"/>
<path d="M38.5271 26.626H39.8545C40.8975 26.626 41.8457 25.7686 41.7508 24.6253V24.5301C41.7508 23.4821 40.8975 22.5294 39.7597 22.6246H38.4323C37.7686 22.6246 37.1997 23.1963 37.1997 23.9584V25.3875C37.2945 26.0544 37.8634 26.626 38.5271 26.626Z" fill="#D5E9EE"/>
<path d="M38.4322 35.8679C37.2944 35.4869 36.4411 35.1058 36.5359 33.5814V28.2462H31.321V33.4862C31.321 34.6294 31.1314 35.201 29.804 35.7727C28.8558 36.0585 28.0025 36.3443 27.244 36.7254C29.1403 37.3923 31.4158 37.8687 33.7862 37.7734C36.2515 37.7734 38.6075 37.3205 40.5038 36.5583C39.8427 36.3239 39.1907 36.0585 38.4322 35.8679Z" fill="#D5E9EE"/>
<path d="M31.3243 29.3622L31.3384 37.3656L36.5223 37.3227L36.5072 29.4146L31.3243 29.3622Z" fill="url(#paint0_radial)"/>
<path d="M40.4234 22.5292C40.4234 27.6738 37.4841 31.7705 33.6915 31.8658C29.8989 31.8658 26.8648 27.7691 26.8648 22.6244C26.8648 17.4798 29.8041 13.8594 33.5967 13.7642C37.2945 13.7642 40.3286 17.3845 40.4234 22.5292Z" fill="#D5E9EE"/>
<path d="M30.5628 13.0025C30.5628 13.0025 31.2265 16.4323 35.0191 17.9566C40.5185 20.1478 40.4236 23.4824 40.4236 23.4824C40.4236 23.4824 43.5526 19.5762 39.7599 14.5268C35.8725 9.38215 30.5628 13.0025 30.5628 13.0025Z" fill="#4497A9"/>
<path d="M45.4405 11.6864C48.4847 11.6864 50.9525 9.23429 50.9525 6.20947C50.9525 3.18465 48.4847 0.732544 45.4405 0.732544C42.3964 0.732544 39.9286 3.18465 39.9286 6.20947C39.9286 9.23429 42.3964 11.6864 45.4405 11.6864Z" fill="#8FC1CB"/>
<path d="M37.2338 51.6863C39.0942 51.6863 40.6023 50.1985 40.6023 48.3632C40.6023 46.528 39.0942 45.0402 37.2338 45.0402C35.3735 45.0402 33.8654 46.528 33.8654 48.3632C33.8654 50.1985 35.3735 51.6863 37.2338 51.6863Z" fill="#4497A9"/>
<defs>
<radialGradient id="paint0_radial" cx="0" cy="0" r="1" gradientUnits="userSpaceOnUse" gradientTransform="translate(32.7643 26.4727) rotate(0.579286) scale(6.82029 6.895)">
<stop offset="0.4164" stop-color="#8FC1CB"/>
<stop offset="0.9849" stop-color="#D5E9EE"/>
</radialGradient>
</defs>
</svg>
