<svg width="65" height="65" viewBox="0 0 65 65" fill="none" xmlns="http://www.w3.org/2000/svg">
<path d="M56.4971 31.5053C60.8565 31.5053 64.3905 27.9714 64.3905 23.612C64.3905 19.2526 60.8565 15.7186 56.4971 15.7186C52.1378 15.7186 48.6038 19.2526 48.6038 23.612C48.6038 27.9714 52.1378 31.5053 56.4971 31.5053Z" fill="#8FC1CB"/>
<path d="M61.0304 17.1587C58.6304 13.7987 53.9371 13.8521 51.5904 17.4254C52.9237 16.3587 54.6304 15.7187 56.4437 15.7187C58.2037 15.7187 59.7504 16.2521 61.0304 17.1587Z" fill="#4497A9"/>
<path d="M51.4509 29.6645C52.7309 28.7045 54.5442 28.0645 56.6242 28.0645C58.5976 28.0645 60.4109 28.5978 61.6909 29.5579C62.4909 28.8645 63.1309 28.0645 63.5576 27.1045C62.8109 23.9045 62.7576 21.5045 62.0642 19.2645C61.7976 18.4645 61.4776 17.7712 61.0509 17.1312C59.7709 16.2245 58.1709 15.6912 56.5176 15.6912C54.61 15.6259 52.9083 16.2928 51.5749 17.3594C51.2016 17.9461 50.9709 18.6778 50.7042 19.4245C50.0642 21.4512 50.0109 23.9045 49.3709 26.9445C49.7975 28.0112 50.5442 28.9179 51.4509 29.6645Z" fill="#4497A9"/>
<path d="M56.6036 28.092C54.5769 28.092 52.7015 28.6578 51.3999 29.6312C52.7866 30.7512 54.5236 31.5053 56.4436 31.5053C58.4169 31.5053 60.2303 30.7587 61.617 29.532C60.3903 28.6253 58.577 28.0386 56.6036 28.092Z" fill="#8FC1CB"/>
<path d="M53.724 23.1855H52.9773C52.3907 23.1855 51.8573 22.7055 51.8573 22.0655V22.0122C51.8573 21.4255 52.3373 20.8922 52.9773 20.8922H53.724C54.1507 20.8922 54.4707 21.2122 54.4707 21.6389V22.4389C54.4707 22.8655 54.1507 23.1855 53.724 23.1855Z" fill="#D5E9EE"/>
<path d="M59.1637 23.1852H59.9104C60.4971 23.1852 61.0304 22.7052 60.9771 22.0652V22.0119C60.9771 21.4252 60.4971 20.8919 59.8571 20.9452H59.1104C58.7371 20.9452 58.4171 21.2652 58.4171 21.6919V22.4919C58.4704 22.8652 58.7904 23.1852 59.1637 23.1852Z" fill="#D5E9EE"/>
<path d="M59.1105 28.3588C58.4705 28.1455 57.9904 27.9322 58.0438 27.0788V24.0922H55.1104V27.0255C55.1104 27.6655 55.0038 27.9855 54.2571 28.3055C53.7238 28.4655 53.2438 28.6255 52.8171 28.8388C53.8838 29.2122 55.1638 29.4788 56.4971 29.4255C57.8838 29.4255 59.209 29.172 60.2757 28.7453C59.9038 28.6141 59.5371 28.4655 59.1105 28.3588Z" fill="#D5E9EE"/>
<path d="M55.1123 24.7167L55.1202 29.197L58.0361 29.173L58.0276 24.746L55.1123 24.7167Z" fill="url(#paint0_radial)"/>
<path d="M60.2305 20.8918C60.2305 23.7718 58.5771 26.0651 56.4438 26.1185C54.3105 26.1185 52.6038 23.8251 52.6038 20.9451C52.6038 18.0651 54.2571 16.0384 56.3905 15.9851C58.4705 15.9851 60.1771 18.0118 60.2305 20.8918Z" fill="#D5E9EE"/>
<path d="M54.6838 15.5586C54.6838 15.5586 55.0572 17.4786 57.1905 18.332C60.2838 19.5586 60.2305 21.4253 60.2305 21.4253C60.2305 21.4253 61.9905 19.2386 59.8572 16.412C57.6705 13.532 54.6838 15.5586 54.6838 15.5586Z" fill="#4497A9"/>
<path d="M8.28385 31.5053C12.6432 31.5053 16.1772 27.9714 16.1772 23.612C16.1772 19.2526 12.6432 15.7186 8.28385 15.7186C3.92448 15.7186 0.390503 19.2526 0.390503 23.612C0.390503 27.9714 3.92448 31.5053 8.28385 31.5053Z" fill="#8FC1CB"/>
<path d="M9.99062 22.7053H6.36394V27.5053C6.36394 28.0387 5.45728 28.252 5.45728 28.252L11.004 28.1987C11.004 28.1987 9.99062 27.932 9.99062 27.452V22.7053Z" fill="url(#paint1_radial)"/>
<path d="M13.8305 29.212C13.5639 29.052 13.3505 28.9454 13.1372 28.8387C12.0705 28.252 10.5772 28.0387 9.03052 28.0387H7.53718C5.83051 28.0387 4.17717 28.3054 3.11051 28.9454C3.00384 28.9987 2.84384 29.1054 2.68384 29.212C3.91051 30.4387 5.56384 31.292 7.43052 31.452C7.69718 31.452 7.96385 31.5054 8.28385 31.5054C8.55052 31.5054 8.87052 31.5054 9.13719 31.452C10.9505 31.2387 12.6039 30.4387 13.8305 29.212Z" fill="#4497A9"/>
<path d="M10.7373 28.092C10.4173 27.9853 9.99062 27.772 9.99062 27.3987V22.7053H6.36394V27.5053C6.36394 28.092 5.56394 28.1987 5.45728 28.1987C5.45728 28.1987 7.05728 30.1187 7.75061 30.812C8.01728 31.0787 8.44395 31.0787 8.71062 30.812C9.45728 30.1187 10.7906 28.732 11.0573 28.1987C10.8973 28.1453 10.844 28.1453 10.7373 28.092Z" fill="#D5E9EE"/>
<path d="M9.99062 23.9852H6.36394V27.3986C6.36394 27.9319 5.45728 28.1452 5.45728 28.1452L11.004 28.0919C11.004 28.0919 9.99062 27.8252 9.99062 27.3452V23.9852Z" fill="url(#paint2_radial)"/>
<path d="M4.76393 20.6786C5.35304 20.6786 5.8306 20.2011 5.8306 19.612C5.8306 19.0229 5.35304 18.5453 4.76393 18.5453C4.17483 18.5453 3.69727 19.0229 3.69727 19.612C3.69727 20.2011 4.17483 20.6786 4.76393 20.6786Z" fill="#4497A9"/>
<path d="M7.05737 16.5185C7.70538 16.5185 8.23071 15.9932 8.23071 15.3452C8.23071 14.6972 7.70538 14.1719 7.05737 14.1719C6.40935 14.1719 5.88403 14.6972 5.88403 15.3452C5.88403 15.9932 6.40935 16.5185 7.05737 16.5185Z" fill="#4497A9"/>
<path d="M5.5108 17.3722C6.15882 17.3722 6.68414 16.8469 6.68414 16.1988C6.68414 15.5508 6.15882 15.0255 5.5108 15.0255C4.86278 15.0255 4.33746 15.5508 4.33746 16.1988C4.33746 16.8469 4.86278 17.3722 5.5108 17.3722Z" fill="#4497A9"/>
<path d="M4.65734 19.0251C5.30536 19.0251 5.83068 18.4998 5.83068 17.8518C5.83068 17.2038 5.30536 16.6785 4.65734 16.6785C4.00933 16.6785 3.48401 17.2038 3.48401 17.8518C3.48401 18.4998 4.00933 19.0251 4.65734 19.0251Z" fill="#4497A9"/>
<path d="M11.4307 20.6786C12.0198 20.6786 12.4974 20.2011 12.4974 19.612C12.4974 19.0229 12.0198 18.5453 11.4307 18.5453C10.8416 18.5453 10.3641 19.0229 10.3641 19.612C10.3641 20.2011 10.8416 20.6786 11.4307 20.6786Z" fill="#4497A9"/>
<path d="M9.08428 16.5721C9.7323 16.5721 10.2576 16.0468 10.2576 15.3988C10.2576 14.7508 9.7323 14.2255 9.08428 14.2255C8.43627 14.2255 7.91095 14.7508 7.91095 15.3988C7.91095 16.0468 8.43627 16.5721 9.08428 16.5721Z" fill="#4497A9"/>
<path d="M10.7374 17.4252C11.3854 17.4252 11.9108 16.8998 11.9108 16.2518C11.9108 15.6038 11.3854 15.0785 10.7374 15.0785C10.0894 15.0785 9.56409 15.6038 9.56409 16.2518C9.56409 16.8998 10.0894 17.4252 10.7374 17.4252Z" fill="#4497A9"/>
<path d="M11.4307 19.2388C12.0787 19.2388 12.6041 18.7134 12.6041 18.0654C12.6041 17.4174 12.0787 16.8921 11.4307 16.8921C10.7827 16.8921 10.2574 17.4174 10.2574 18.0654C10.2574 18.7134 10.7827 19.2388 11.4307 19.2388Z" fill="#4497A9"/>
<path d="M10.3106 22.4921H5.88396C5.08396 22.4921 4.39062 21.8521 4.39062 20.9988V18.7055C4.39062 16.7855 5.9373 15.2921 7.80397 15.2921H8.28397C10.204 15.2921 11.6973 16.8388 11.6973 18.7055V20.9988C11.804 21.8521 11.1106 22.4921 10.3106 22.4921Z" fill="#4497A9"/>
<path d="M3.80377 21.8519C3.80377 22.4919 4.33711 23.0253 4.97711 23.0253C5.03044 23.0253 5.56378 23.0253 5.61711 23.0253C6.20378 22.9719 6.15044 22.4919 6.15044 21.8519C6.15044 21.2653 6.25711 20.7319 5.67044 20.6786C5.61711 20.6786 5.03044 20.6786 4.97711 20.6786C4.33711 20.6786 3.80377 21.2119 3.80377 21.8519Z" fill="#D5E9EE"/>
<path d="M8.55058 26.119H7.64391C6.15057 26.119 4.97723 24.9456 4.97723 23.4523V19.2923C4.97723 17.7989 6.15057 16.6256 7.64391 16.6256H8.55058C10.0439 16.6256 11.2172 17.7989 11.2172 19.2923V23.4523C11.2172 24.9456 9.99058 26.119 8.55058 26.119Z" fill="#D5E9EE"/>
<path d="M12.3905 21.8519C12.3905 22.4919 11.8571 23.0253 11.2171 23.0253C11.1638 23.0253 10.6304 23.0253 10.5771 23.0253C9.99045 22.9719 10.0438 22.4919 10.0438 21.8519C10.0438 21.2653 9.93711 20.7319 10.5238 20.6786C10.5771 20.6786 11.1638 20.6786 11.2171 20.6786C11.8571 20.6786 12.3905 21.2119 12.3905 21.8519Z" fill="#D5E9EE"/>
<path d="M10.7375 16.8388C10.6842 16.5721 10.5242 16.3055 10.3108 16.1455L10.2042 15.9855H9.93749C9.83083 15.9321 9.72416 15.9321 9.61749 15.9321C9.51083 15.9321 9.40416 15.9321 9.29749 15.9855H6.04415L4.71082 17.9588L4.97748 20.7321L5.35082 18.7055C5.45748 18.0655 6.04415 17.6388 6.68415 17.6388H8.55082C8.76416 18.0655 9.13749 18.3321 9.61749 18.3321C9.93749 18.3321 10.2575 18.1721 10.4708 17.9588C10.6842 18.1721 10.8442 18.3855 10.8975 18.7055L11.2708 20.7321L11.5375 17.9588L10.7375 16.8388Z" fill="#4497A9"/>
<path d="M32.3905 17.1052C36.7498 17.1052 40.2838 13.5712 40.2838 9.21183C40.2838 4.85245 36.7498 1.31848 32.3905 1.31848C28.0311 1.31848 24.4971 4.85245 24.4971 9.21183C24.4971 13.5712 28.0311 17.1052 32.3905 17.1052Z" fill="#8FC1CB"/>
<path d="M34.4171 8.09201H29.9904C29.1904 8.09201 28.4971 7.45201 28.4971 6.59867V4.30533C28.4971 2.38533 30.0437 0.891991 31.9104 0.891991H32.3904C34.3104 0.891991 35.8038 -0.388012 35.8038 4.30533V6.59867C35.8571 7.45201 35.2171 8.09201 34.4171 8.09201Z" fill="#4497A9"/>
<path d="M37.9372 14.8121C37.6705 14.6521 37.4572 14.5455 37.2438 14.4388C36.1772 13.8521 34.6838 13.6388 33.1371 13.6388H31.6438C29.9371 13.6388 28.2838 13.9055 27.2171 14.5455C27.1105 14.5988 26.9505 14.7055 26.7905 14.8121C28.2305 16.2521 30.2038 17.1055 32.3371 17.1055C34.5772 17.1055 36.5505 16.2521 37.9372 14.8121Z" fill="#4497A9"/>
<path d="M34.8439 13.6385C34.5239 13.5318 34.0973 13.3185 34.0973 12.9452V8.25183H30.4706V13.0518C30.4706 13.3718 30.0972 13.5852 29.8306 13.6918C29.7239 13.7452 29.6172 13.7452 29.5639 13.7985C29.5639 14.1718 31.0039 15.3452 32.3906 15.2918C33.7772 15.2385 35.1106 14.0118 35.1106 13.7452C35.0039 13.6918 34.9506 13.6918 34.8439 13.6385Z" fill="#D5E9EE"/>
<path d="M34.0973 8.25183H30.4706V13.0518C30.4706 13.5852 29.5639 13.7985 29.5639 13.7985L35.1106 13.7452C35.1106 13.7452 34.0973 13.4785 34.0973 12.9985V8.25183Z" fill="url(#paint3_radial)"/>
<path d="M27.9108 7.50549C27.9108 8.14549 28.4441 8.67882 29.0841 8.67882C29.1374 8.67882 29.6708 8.67882 29.7241 8.67882C30.3108 8.62549 30.2574 8.14549 30.2574 7.50549C30.2574 6.91882 30.3641 6.38549 29.7774 6.33215C29.7241 6.33215 29.1374 6.33215 29.0841 6.33215C28.4441 6.33215 27.9108 6.81215 27.9108 7.50549Z" fill="#D5E9EE"/>
<path d="M32.6571 11.7188H31.7505C30.2571 11.7188 29.0838 10.5455 29.0838 9.05215V4.89214C29.0838 3.3988 30.2571 2.22546 31.7505 2.22546H32.6571C34.1505 2.22546 35.3238 3.3988 35.3238 4.89214V9.05215C35.3238 10.5455 34.0971 11.7188 32.6571 11.7188Z" fill="#D5E9EE"/>
<path d="M36.497 7.50549C36.497 8.14549 35.9637 8.67882 35.3237 8.67882C35.2703 8.67882 34.737 8.67882 34.6837 8.67882C34.097 8.62549 34.1503 8.14549 34.1503 7.50549C34.1503 6.91882 34.0437 6.38549 34.6303 6.33215C34.6837 6.33215 35.2703 6.33215 35.3237 6.33215C35.9637 6.33215 36.497 6.81215 36.497 7.50549Z" fill="#D5E9EE"/>
<path d="M34.3106 1.58521H30.0972L28.7639 3.55854L29.0306 6.33188L29.4039 4.30521C29.5106 3.66521 30.0972 3.23854 30.7372 3.23854H33.6172C34.2572 3.23854 34.8439 3.71854 34.9506 4.30521L35.3239 6.33188L35.5906 3.55854L34.3106 1.58521Z" fill="#4497A9"/>
<path d="M31.0571 3.8789C31.7051 3.8789 32.2305 3.35358 32.2305 2.70556C32.2305 2.05755 31.7051 1.53223 31.0571 1.53223C30.4091 1.53223 29.8838 2.05755 29.8838 2.70556C29.8838 3.35358 30.4091 3.8789 31.0571 3.8789Z" fill="#4497A9"/>
<path d="M48.3905 48.7323C48.3905 57.5794 41.2376 64.7323 32.3905 64.7323C23.5434 64.7323 16.3905 57.5794 16.3905 48.7323C16.3905 39.8852 23.5434 32.7323 32.3905 32.7323C41.2376 32.7323 48.3905 39.8852 48.3905 48.7323Z" fill="#D5E9EE"/>
<path d="M32.3905 60.466C28.3121 60.466 25.5513 58.2072 25.5513 58.2072C25.5513 58.2072 28.2493 57.517 28.2493 55.1954C28.2493 53.9405 28.2493 47.1013 28.2493 47.1013H32.3905H36.5317C36.5317 47.1013 36.5317 53.9405 36.5317 55.1954C36.5317 57.5798 39.2297 58.2072 39.2297 58.2072C39.2297 58.2072 36.4689 60.466 32.3905 60.466Z" fill="url(#paint4_radial)"/>
<path d="M32.3273 50.3013C26.9312 50.3013 22.6018 45.9092 22.6018 40.5758V40.3249C22.6018 34.9288 26.994 30.5994 32.3273 30.5994C37.7234 30.5994 42.0528 34.9915 42.0528 40.3249V40.5758C42.0528 45.9719 37.6606 50.3013 32.3273 50.3013Z" fill="#4497A9"/>
<path d="M32.328 53.8776C28.3751 53.8776 24.4221 50.1757 24.4221 45.5953V42.2698C24.4221 37.6894 27.9986 33.9874 32.328 33.9874C36.7202 33.9874 40.2339 37.6894 40.2339 42.2698V45.5953C40.2339 50.1757 36.2182 53.8776 32.328 53.8776Z" fill="#8FC1CB"/>
<path d="M40.7353 47.1639H39.3549C39.0412 47.1639 38.7902 46.9129 38.7902 46.5992V42.5835C38.7902 42.2698 39.0412 42.0188 39.3549 42.0188H40.7353C42.1785 42.0188 43.3079 43.211 43.3079 44.5913C43.3079 46.0345 42.1785 47.1639 40.7353 47.1639Z" fill="#8FC1CB"/>
<path d="M23.92 47.1639H25.3003C25.6141 47.1639 25.865 46.9129 25.865 46.5992V42.5835C25.865 42.2698 25.6141 42.0188 25.3003 42.0188H23.92C22.4768 42.0188 21.3474 43.211 21.3474 44.5913C21.2847 46.0345 22.4768 47.1639 23.92 47.1639Z" fill="#8FC1CB"/>
<path d="M36.7198 35.0543L36.0923 35.5563C36.0923 35.5563 35.9041 37.1249 36.8453 38.9445C37.7864 40.7641 38.8531 41.3916 39.5433 42.2073C40.61 43.5877 40.5472 44.8426 40.5472 44.8426C40.5472 44.8426 41.6139 43.7132 41.8649 42.27C42.0531 41.0151 41.3629 38.7563 40.5472 37.6896C39.1668 35.8073 36.7198 35.0543 36.7198 35.0543Z" fill="#4497A9"/>
<path d="M27.8729 35.0543L28.5003 35.5563C28.5003 35.5563 28.6886 37.1249 27.7474 38.9445C26.8062 40.7641 25.7395 41.3916 25.0494 42.2073C23.9827 43.5877 24.0454 44.8426 24.0454 44.8426C24.0454 44.8426 22.9788 43.7132 22.7278 42.27C22.5395 41.0151 23.2297 38.7563 24.0454 37.6896C25.4258 35.8073 27.8729 35.0543 27.8729 35.0543Z" fill="#4497A9"/>
<path d="M36.7829 34.6149L36.2809 36.1208C36.2809 36.1208 32.7672 37.4384 29.4417 40.7011C26.43 43.5874 21.4731 42.458 20.2182 39.9482C20.2182 39.9482 21.2221 40.4502 21.9123 39.0698C22.6653 37.6894 22.5398 32.9207 27.5594 31.5404C31.7006 30.4737 36.7829 34.6149 36.7829 34.6149Z" fill="#4497A9"/>
<path d="M32.3278 57.203C28.1238 57.203 24.2336 58.2697 21.0964 60.0893C23.7317 62.6618 27.1827 64.3559 31.0728 64.6697C31.5121 64.6697 31.9513 64.7324 32.3278 64.7324C32.767 64.7324 33.2062 64.7324 33.5827 64.6697C37.4101 64.3559 40.9238 62.7246 43.4964 60.152C40.4846 58.3324 36.5944 57.203 32.3278 57.203Z" fill="#4497A9"/>
<path d="M37.0963 54.6932L32.3904 55.9481L33.8336 59.8383L38.9787 58.1442C38.9159 58.0815 37.1591 57.3913 37.0963 54.6932Z" fill="#8FC1CB"/>
<path d="M27.6846 54.6932L32.3905 55.9481L30.9473 59.8383L25.8022 58.1442C25.8022 58.0815 27.5591 57.3913 27.6846 54.6932Z" fill="#8FC1CB"/>
<path d="M16.6572 41.1055H13.7238C13.4038 41.1055 13.1905 40.8922 13.1905 40.5722C13.1905 40.2522 13.4038 40.0388 13.7238 40.0388H16.6572C16.9772 40.0388 17.1905 40.2522 17.1905 40.5722C17.1905 40.8922 16.9238 41.1055 16.6572 41.1055Z" fill="#FFD066"/>
<path d="M11.5373 40.7319C11.4839 40.7319 11.4306 40.7319 11.3773 40.6786C10.1506 40.2519 9.13727 39.3986 8.3906 38.3319C8.2306 38.0652 8.28393 37.7452 8.5506 37.5852C8.81727 37.4252 9.13727 37.4786 9.29727 37.7452C9.88394 38.6519 10.7373 39.3452 11.7506 39.6652C12.0173 39.7719 12.1773 40.0919 12.0706 40.3586C11.9639 40.6252 11.7506 40.7319 11.5373 40.7319Z" fill="#FFD066"/>
<path d="M8.01703 36.5186C7.75036 36.5186 7.53703 36.3052 7.48369 36.0919C7.43036 35.7719 7.43036 35.4519 7.43036 35.1319V33.0519C7.43036 32.7319 7.64369 32.5186 7.96369 32.5186C8.28369 32.5186 8.49703 32.7319 8.49703 33.0519V35.1319C8.49703 35.3986 8.49703 35.6652 8.55036 35.9319C8.6037 36.1986 8.39036 36.5186 8.12369 36.5186C8.07036 36.5186 8.07036 36.5186 8.01703 36.5186Z" fill="#FFD066"/>
<path d="M47.8041 41.1055H50.7374C51.0574 41.1055 51.2707 40.8922 51.2707 40.5722C51.2707 40.2522 51.0574 40.0388 50.7374 40.0388H47.8041C47.4841 40.0388 47.2707 40.2522 47.2707 40.5722C47.2707 40.8922 47.4841 41.1055 47.8041 41.1055Z" fill="#FFD066"/>
<path d="M52.9242 40.7319C52.9775 40.7319 53.0309 40.7319 53.0842 40.6786C54.3109 40.2519 55.3242 39.3986 56.0709 38.3319C56.2309 38.0652 56.1775 37.7452 55.9109 37.5852C55.6442 37.4252 55.3242 37.4786 55.1642 37.7452C54.5775 38.6519 53.7242 39.3452 52.7109 39.6652C52.4442 39.7719 52.2842 40.0919 52.3909 40.3586C52.4975 40.6252 52.7109 40.7319 52.9242 40.7319Z" fill="#FFD066"/>
<path d="M56.4439 36.5186C56.7106 36.5186 56.9239 36.3052 56.9772 36.0919C57.0306 35.7719 57.0306 35.4519 57.0306 35.1319V33.0519C57.0306 32.7319 56.8172 32.5186 56.4972 32.5186C56.1772 32.5186 55.9639 32.7319 55.9639 33.0519V35.1319C55.9639 35.3986 55.9639 35.6652 55.9106 35.9319C55.8572 36.1986 56.0706 36.5186 56.3372 36.5186C56.3906 36.5186 56.3906 36.5186 56.4439 36.5186Z" fill="#FFD066"/>
<defs>
<radialGradient id="paint0_radial" cx="0" cy="0" r="1" gradientUnits="userSpaceOnUse" gradientTransform="translate(55.9222 23.0991) rotate(0.576514) scale(3.83637 3.85985)">
<stop offset="0.4164" stop-color="#8FC1CB"/>
<stop offset="0.9849" stop-color="#D5E9EE"/>
</radialGradient>
<radialGradient id="paint1_radial" cx="0" cy="0" r="1" gradientUnits="userSpaceOnUse" gradientTransform="translate(7.77936 22.5852) scale(5.18012)">
<stop offset="0.0295757" stop-color="#CCE17F"/>
<stop offset="0.9168" stop-color="#CCE17F" stop-opacity="0"/>
</radialGradient>
<radialGradient id="paint2_radial" cx="0" cy="0" r="1" gradientUnits="userSpaceOnUse" gradientTransform="translate(7.77936 23.8767) scale(4.27366)">
<stop stop-color="#8FC1CB"/>
<stop offset="0.9168" stop-color="#D5E9EE"/>
</radialGradient>
<radialGradient id="paint3_radial" cx="0" cy="0" r="1" gradientUnits="userSpaceOnUse" gradientTransform="translate(31.8823 8.12975) scale(5.18012)">
<stop offset="0.458333" stop-color="#8FC1CB"/>
<stop offset="0.9168" stop-color="#D5E9EE"/>
</radialGradient>
<radialGradient id="paint4_radial" cx="0" cy="0" r="1" gradientUnits="userSpaceOnUse" gradientTransform="translate(33.4047 45.7948) scale(12.4324)">
<stop offset="0.4164" stop-color="#4497A9"/>
<stop offset="0.9849" stop-color="#8FC1CB"/>
</radialGradient>
</defs>
</svg>
