<svg width="64" height="64" viewBox="0 0 64 64" fill="none" xmlns="http://www.w3.org/2000/svg">
<path d="M29.3333 49.3337C29.3333 57.4338 22.7668 64.0003 14.6667 64.0003C6.56649 64.0003 0 57.4338 0 49.3337C0 41.2335 6.56649 34.667 14.6667 34.667C22.7668 34.667 29.3333 41.2335 29.3333 49.3337Z" fill="url(#paint0_linear_7601_167454)"/>
<path d="M13.5069 18.587L1.60156 42.6565C3.21632 39.8706 6.2146 38.0003 9.6664 38.0003C13.5337 38.0003 16.8517 40.3525 18.2677 43.7042L25.6117 58.5067C27.1692 61.7562 30.4892 64.0001 34.3332 64.0003H55.3332L50.9763 62.1821L29.8237 21.2295C27.5311 18.4435 24.0565 16.667 20.1668 16.667C17.7187 16.667 15.435 17.3708 13.5069 18.587Z" fill="url(#paint1_linear_7601_167454)"/>
<path d="M42.8286 7.17352L60.0632 41.486C61.8347 44.944 62.947 47.6621 62.947 47.6621C63.5677 49.2733 63.945 51.084 64.0003 53C64.0003 53.4444 64.0004 53.8889 64.0004 54.3333C64.0004 59.6721 60.0455 64 55.167 64C51.7707 64 48.8221 61.9024 47.3439 58.8265L29.9802 24.4373C28.1559 20.5942 24.4248 18 19.9808 18C16.9438 18 14.1948 19.2329 12.207 21.2255L19.1721 7.17339C21.3969 2.91027 25.8587 0 31.0003 0C36.142 0 40.6039 2.91033 42.8286 7.17352Z" fill="url(#paint2_linear_7601_167454)"/>
<defs>
<linearGradient id="paint0_linear_7601_167454" x1="-5.9762" y1="58.083" x2="23.4901" y2="49.5626" gradientUnits="userSpaceOnUse">
<stop offset="0.141549" stop-color="#9B52AA"/>
<stop offset="0.9988" stop-color="#4F2757"/>
</linearGradient>
<linearGradient id="paint1_linear_7601_167454" x1="36.683" y1="54.27" x2="15.6566" y2="22.256" gradientUnits="userSpaceOnUse">
<stop stop-color="#B75CC9"/>
<stop offset="1" stop-color="#E8AAF4"/>
</linearGradient>
<linearGradient id="paint2_linear_7601_167454" x1="26.1961" y1="10.1667" x2="54.7597" y2="65.345" gradientUnits="userSpaceOnUse">
<stop stop-color="#CB6ADE"/>
<stop offset="0.435975" stop-color="#8D479B"/>
<stop offset="1" stop-color="#4F2757"/>
</linearGradient>
</defs>
</svg>
