<?xml version="1.0" encoding="utf-8"?>
<!-- Generator: Adobe Illustrator 27.4.1, SVG Export Plug-In . SVG Version: 6.00 Build 0)  -->
<svg version="1.1" id="Layer_1" xmlns="http://www.w3.org/2000/svg" xmlns:xlink="http://www.w3.org/1999/xlink" x="0px" y="0px"
	 viewBox="0 0 64 64" style="enable-background:new 0 0 64 64;" xml:space="preserve">
<style type="text/css">
	.st0{fill:url(#SVGID_1_);}
	.st1{fill:url(#SVGID_00000171719828655595846960000015103235202402078849_);}
	.st2{fill:url(#SVGID_00000039845230670932905850000000450904206277336766_);}
	.st3{fill:url(#SVGID_00000092447362952334018480000004872272351490392212_);}
</style>
<linearGradient id="SVGID_1_" gradientUnits="userSpaceOnUse" x1="39.6306" y1="26.5177" x2="60.8453" y2="-10.0907" gradientTransform="matrix(1 0 0 -1 0 66)">
	<stop  offset="0" style="stop-color:#3C2F6B"/>
	<stop  offset="1" style="stop-color:#8673FF"/>
</linearGradient>
<path class="st0" d="M22.7,40.5C19.8,43,18,46.6,18,50.7C18,58,24,64,31.3,64c3.6,0,6.8-1.4,9.2-3.7L59,43.5l0,0
	c3.1-2.7,5-6.7,5-11.2c0-1.1-0.1-2.2-0.3-3.2c-0.9-2.7-3.4-4.6-6.4-4.6c-1.8,0-3.4,0.7-4.6,1.8L41.1,37.2c-3,3-7.1,4.8-11.6,4.8
	C27.1,42,24.8,41.5,22.7,40.5z"/>
<linearGradient id="SVGID_00000019671318959469673140000000069666624617000070_" gradientUnits="userSpaceOnUse" x1="35.3756" y1="50.6908" x2="49.5465" y2="8.2737" gradientTransform="matrix(1 0 0 -1 0 66)">
	<stop  offset="0" style="stop-color:#CE7EFF"/>
	<stop  offset="0.9539" style="stop-color:#503C98"/>
</linearGradient>
<path style="fill:url(#SVGID_00000019671318959469673140000000069666624617000070_);" d="M20.1,41.1c0.2-0.2,0.3-0.3,0.5-0.5l0,0
	l8.3-7.7c4.1-3.8,6.4-8.8,7-13.9l0,0c1.2-4.3,5.2-7.5,9.9-7.5c2.9,0,5.4,1.2,7.3,3.1l6.8,6.9l0,0c0.5,0.6,1,1.2,1.4,1.8
	c0.4,0.6,0.8,1.2,1.1,1.8c0.9,1.7,1.2,3.3,1.5,5c0.2,1.5,0.2,2.9,0.2,2.9c-0.2-3.5-3.1-6.4-6.7-6.4c-1.8,0-3.4,0.7-4.6,1.8
	L41.1,39.2c-3,3-7.1,4.8-11.6,4.8C26,44,22.8,42.9,20.1,41.1z"/>
<linearGradient id="SVGID_00000085219860717487198080000004425812132702345091_" gradientUnits="userSpaceOnUse" x1="24.6312" y1="16.7106" x2="50.7266" y2="41.8232" gradientTransform="matrix(1 0 0 -1 0 66)">
	<stop  offset="0" style="stop-color:#6133C2"/>
	<stop  offset="0.8562" style="stop-color:#8B65DC;stop-opacity:0"/>
</linearGradient>
<path style="fill:url(#SVGID_00000085219860717487198080000004425812132702345091_);" d="M20.1,41.1c0.2-0.2,0.3-0.3,0.5-0.5l0,0
	l8.3-7.7c4.1-3.8,6.4-8.8,7-13.9l0,0c1.2-4.3,5.2-7.5,9.9-7.5c2.9,0,5.4,1.2,7.3,3.1l6.8,6.9l0,0c0.5,0.6,1,1.2,1.4,1.8
	c0.4,0.6,0.8,1.2,1.1,1.8c0.9,1.7,1.2,3.3,1.5,5c0.2,1.5,0.2,2.9,0.2,2.9c-0.2-3.5-3.1-6.4-6.7-6.4c-1.8,0-3.4,0.7-4.6,1.8
	L41.1,39.2c-3,3-7.1,4.8-11.6,4.8C26,44,22.8,42.9,20.1,41.1z"/>
<linearGradient id="SVGID_00000020377793363513810350000003933616453433977752_" gradientUnits="userSpaceOnUse" x1="15.8057" y1="51.7899" x2="27.397" y2="15.6707" gradientTransform="matrix(1 0 0 -1 0 66)">
	<stop  offset="0" style="stop-color:#FBC8FF"/>
	<stop  offset="0.3802" style="stop-color:#E2A4FF"/>
	<stop  offset="1" style="stop-color:#9277FF"/>
</linearGradient>
<path style="fill:url(#SVGID_00000020377793363513810350000003933616453433977752_);" d="M31.6,0.9c-1.1-1.1-2.9-1.2-4.1-0.1L5,21.8
	c-0.1,0.1-0.3,0.3-0.4,0.4l0,0l0,0C1.7,24.9,0,28.7,0,33c0,4.5,2,8.5,5.1,11.3L21.8,60c-2.3-2.4-3.8-5.7-3.8-9.3
	c0-4,1.8-7.6,4.6-10.1l0,0l8.3-7.7C40.1,24.3,40.4,9.8,31.6,0.9z"/>
</svg>
