<?xml version="1.0" encoding="utf-8"?>
<!-- Generator: Adobe Illustrator 26.0.3, SVG Export Plug-In . SVG Version: 6.00 Build 0)  -->
<svg version="1.1" id="Layer_1" xmlns="http://www.w3.org/2000/svg" xmlns:xlink="http://www.w3.org/1999/xlink" x="0px" y="0px"
	 viewBox="0 0 64 64" style="enable-background:new 0 0 64 64;" xml:space="preserve">
<style type="text/css">
	.st0{fill:url(#SVGID_1_);}
	.st1{fill:url(#SVGID_00000066493523448251680470000007103672875551033789_);}
	.st2{fill:url(#SVGID_00000139275065395504106770000015823844154371391381_);}
</style>
<linearGradient id="SVGID_1_" gradientUnits="userSpaceOnUse" x1="30.9737" y1="66.5509" x2="26.2749" y2="33.9949" gradientTransform="matrix(1 0 0 -1 0 63.8898)">
	<stop  offset="0" style="stop-color:#53C99E"/>
	<stop  offset="1" style="stop-color:#108057"/>
</linearGradient>
<path class="st0" d="M54.8,3.2C52.6,1.1,49.8,0,47,0L11,0C8.2,0,5.4,1.1,3.2,3.2C1.1,5.4,0,8.2,0,11l0,36c0,2.8,1.1,5.6,3.2,7.8
	c2.1,2.1,5,3.2,7.8,3.2c2.8,0,5.6-1.1,7.8-3.2l36-36c2.1-2.1,3.2-5,3.2-7.8C58,8.2,56.9,5.4,54.8,3.2z"/>
<linearGradient id="SVGID_00000114066419708801621820000002989539354912133787_" gradientUnits="userSpaceOnUse" x1="60.6402" y1="34.4434" x2="29.4683" y2="10.4902" gradientTransform="matrix(1 0 0 -1 0 63.8898)">
	<stop  offset="0" style="stop-color:#118F61"/>
	<stop  offset="1" style="stop-color:#074B32"/>
</linearGradient>
<path style="fill:url(#SVGID_00000114066419708801621820000002989539354912133787_);" d="M43,64c11.6,0,21-9.4,21-21s-9.4-21-21-21
	c-11.6,0-21,9.4-21,21S31.4,64,43,64z"/>
<linearGradient id="SVGID_00000003091785722998797470000018159034116283050151_" gradientUnits="userSpaceOnUse" x1="3.6019" y1="38.1635" x2="26.6322" y2="15.3354" gradientTransform="matrix(1 0 0 -1 0 63.8898)">
	<stop  offset="0" style="stop-color:#6AE4B7"/>
	<stop  offset="0.5889" style="stop-color:#4ECA9D"/>
	<stop  offset="1" style="stop-color:#27B17F"/>
</linearGradient>
<path style="fill:url(#SVGID_00000003091785722998797470000018159034116283050151_);" d="M32.8,25.2c-2.1-2.1-5-3.2-7.8-3.2H11
	c-2.8,0-5.6-1.1-7.8-3.2S0,13.8,0,11l0,36c0,2.8,1.1,5.6,3.2,7.8c2.1,2.1,5,3.2,7.8,3.2c2.8,0,5.6-1.1,7.8-3.2l14-14
	c2.1-2.1,3.2-5,3.2-7.8S34.9,27.4,32.8,25.2z"/>
</svg>
