<?xml version="1.0" encoding="utf-8"?>
<!-- Generator: Adobe Illustrator 26.0.3, SVG Export Plug-In . SVG Version: 6.00 Build 0)  -->
<svg version="1.1" id="Layer_1" xmlns="http://www.w3.org/2000/svg" xmlns:xlink="http://www.w3.org/1999/xlink" x="0px" y="0px"
	 viewBox="0 0 16 16" style="enable-background:new 0 0 16 16;" xml:space="preserve">
<style type="text/css">
	.st0{fill:#02865E;}
	.st1{fill:#044A31;}
	.st2{fill:#61D8AC;}
</style>
<path class="st0" d="M0.7,0.7C0.2,1.2,0,1.9,0,2.5v9c0,0.6,0.2,1.3,0.7,1.8C1.2,13.8,1.9,14,2.5,14c0.6,0,1.3-0.2,1.8-0.7l9-9
	C13.8,3.8,14,3.1,14,2.5s-0.2-1.3-0.7-1.8C12.8,0.2,12.1,0,11.5,0l-9,0C1.9,0,1.2,0.2,0.7,0.7z"/>
<path class="st1" d="M10.5,16c3,0,5.5-2.5,5.5-5.5c0-3-2.5-5.5-5.5-5.5C7.5,5,5,7.5,5,10.5C5,13.5,7.5,16,10.5,16z"/>
<path class="st2" d="M0,2.5c0,0.6,0.2,1.3,0.7,1.8C1.2,4.8,1.9,5,2.5,5h4c0.6,0,1.3,0.2,1.8,0.7C8.8,6.2,9,6.9,9,7.5
	S8.8,8.8,8.3,9.3l-4,4C3.8,13.8,3.1,14,2.5,14c-0.6,0-1.3-0.2-1.8-0.7C0.2,12.8,0,12.1,0,11.5V2.5z"/>
</svg>
