<svg width="192" height="192" viewBox="0 0 192 192" fill="none" xmlns="http://www.w3.org/2000/svg">
<path d="M4.72083e-06 140C5.07881e-06 148.19 3.1242 156.379 9.37259 162.627C15.621 168.876 23.8105 172 32 172C40.1895 172 48.379 168.876 54.6274 162.627L162.627 54.6274C168.876 48.379 172 40.1895 172 32C172 23.8105 168.876 15.621 162.627 9.37258C156.379 3.12419 148.189 -3.57975e-07 140 0L32 4.72083e-06C23.8105 5.07881e-06 15.621 3.1242 9.37258 9.37259C3.12419 15.621 -3.57975e-07 23.8105 0 32L4.72083e-06 140Z" fill="url(#paint0_linear_5910_326518)"/>
<path d="M128 192C163.346 192 192 163.346 192 128C192 92.6538 163.346 64 128 64C92.6538 64 64 92.6538 64 128C64 163.346 92.6538 192 128 192Z" fill="url(#paint1_linear_5910_326518)"/>
<path d="M4.72083e-06 140C5.07881e-06 148.19 3.1242 156.379 9.37259 162.627C15.621 168.876 23.8105 172 32 172C40.1895 172 48.379 168.876 54.6274 162.627L98.6274 118.627C104.876 112.379 108 104.19 108 96C108 87.8105 104.876 79.621 98.6274 73.3726C92.379 67.1242 84.1895 64 76 64L32 64C23.8105 64 15.621 60.8758 9.37258 54.6274C3.1242 48.379 3.57975e-07 40.1895 0 32L4.72083e-06 140Z" fill="url(#paint2_linear_5910_326518)"/>
<defs>
<linearGradient id="paint0_linear_5910_326518" x1="70.6672" y1="-10.9485" x2="56.7328" y2="85.5971" gradientUnits="userSpaceOnUse">
<stop stop-color="#53C99E"/>
<stop offset="1" stop-color="#108057"/>
</linearGradient>
<linearGradient id="paint1_linear_5910_326518" x1="172" y1="74" x2="77" y2="147" gradientUnits="userSpaceOnUse">
<stop stop-color="#118F61"/>
<stop offset="1" stop-color="#074B32"/>
</linearGradient>
<linearGradient id="paint2_linear_5910_326518" x1="13.8959" y1="72.7644" x2="82.4994" y2="141.251" gradientUnits="userSpaceOnUse">
<stop stop-color="#6AE4B7"/>
<stop offset="0.588888" stop-color="#4ECA9D"/>
<stop offset="1" stop-color="#27B17F"/>
</linearGradient>
</defs>
</svg>
