<?xml version="1.0" encoding="utf-8"?>
<!-- Generator: Adobe Illustrator 26.0.3, SVG Export Plug-In . SVG Version: 6.00 Build 0)  -->
<svg version="1.1" id="Layer_1" xmlns="http://www.w3.org/2000/svg" xmlns:xlink="http://www.w3.org/1999/xlink" x="0px" y="0px"
	 viewBox="0 0 256 256" style="enable-background:new 0 0 256 256;" xml:space="preserve">
<style type="text/css">
	.st0{fill:url(#SVGID_1_);}
	.st1{fill:url(#SVGID_00000066476323658350221290000016849516168245729450_);}
	.st2{fill:url(#SVGID_00000024712784868098599300000014685767151579380146_);}
</style>
<linearGradient id="SVGID_1_" gradientUnits="userSpaceOnUse" x1="123.8888" y1="266.5343" x2="105.0935" y2="136.3096" gradientTransform="matrix(1 0 0 -1 0 255.8898)">
	<stop  offset="0" style="stop-color:#53C99E"/>
	<stop  offset="1" style="stop-color:#108057"/>
</linearGradient>
<path class="st0" d="M219.1,12.9C210.5,4.3,199.3,0,188,0L44,0C32.7,0,21.5,4.3,12.9,12.9C4.3,21.5,0,32.7,0,44l0,144
	c0,11.3,4.3,22.5,12.9,31.1C21.5,227.7,32.7,232,44,232c11.3,0,22.5-4.3,31.1-12.9l144-144C227.7,66.5,232,55.3,232,44
	S227.7,21.5,219.1,12.9z"/>
<linearGradient id="SVGID_00000037652940844319477210000007529859763094336166_" gradientUnits="userSpaceOnUse" x1="242.5547" y1="138.1036" x2="117.8668" y2="42.2916" gradientTransform="matrix(1 0 0 -1 0 255.8898)">
	<stop  offset="0" style="stop-color:#118F61"/>
	<stop  offset="1" style="stop-color:#074B32"/>
</linearGradient>
<path style="fill:url(#SVGID_00000037652940844319477210000007529859763094336166_);" d="M172,256c46.4,0,84-37.6,84-84
	s-37.6-84-84-84s-84,37.6-84,84S125.6,256,172,256z"/>
<linearGradient id="SVGID_00000096041312882582738850000015728782889066881936_" gradientUnits="userSpaceOnUse" x1="14.4017" y1="152.9844" x2="106.5229" y2="61.6722" gradientTransform="matrix(1 0 0 -1 0 255.8898)">
	<stop  offset="0" style="stop-color:#6AE4B7"/>
	<stop  offset="0.5889" style="stop-color:#4ECA9D"/>
	<stop  offset="1" style="stop-color:#27B17F"/>
</linearGradient>
<path style="fill:url(#SVGID_00000096041312882582738850000015728782889066881936_);" d="M131.1,100.9C122.5,92.3,111.3,88,100,88
	H44c-11.3,0-22.5-4.3-31.1-12.9C4.3,66.5,0,55.3,0,44l0,144c0,11.3,4.3,22.5,12.9,31.1C21.5,227.7,32.7,232,44,232
	c11.3,0,22.5-4.3,31.1-12.9l56-56c8.6-8.6,12.9-19.9,12.9-31.1S139.7,109.5,131.1,100.9z"/>
</svg>
